LibreBaskerville-ExtraBold.ufo
<glyph name="exclam" format="1">
  <advance width="375"/>
  <unicode hex="0021"/>
  <outline>
    <contour>
      <point x="217" y="247" type="line"/>
      <point x="217" y="464"/>
      <point x="297" y="540"/>
      <point x="297" y="657" type="curve"/>
      <point x="297" y="747"/>
      <point x="239" y="780"/>
      <point x="187" y="780" type="curve" smooth="yes"/>
      <point x="135" y="780"/>
      <point x="77" y="747"/>
      <point x="77" y="657" type="curve"/>
      <point x="77" y="540"/>
      <point x="157" y="461"/>
      <point x="157" y="247" type="curve"/>
    </contour>
    <contour>
      <point x="100" y="75" type="curve" smooth="yes"/>
      <point x="100" y="28"/>
      <point x="138" y="-10"/>
      <point x="186" y="-10" type="curve" smooth="yes"/>
      <point x="237" y="-10"/>
      <point x="275" y="28"/>
      <point x="275" y="75" type="curve" smooth="yes"/>
      <point x="275" y="125"/>
      <point x="237" y="164"/>
      <point x="186" y="164" type="curve" smooth="yes"/>
      <point x="138" y="164"/>
      <point x="100" y="125"/>
    </contour>
  </outline>
</glyph>
<glyph name="dollar" format="1">
  <advance width="652"/>
  <unicode hex="0024"/>
  <outline>
    <contour>
      <point x="361" y="-170" type="line"/>
      <point x="361" y="-8" type="line"/>
      <point x="517" y="5"/>
      <point x="615" y="94"/>
      <point x="615" y="220" type="curve" smooth="yes"/>
      <point x="615" y="327"/>
      <point x="556" y="401"/>
      <point x="361" y="491" type="curve"/>
      <point x="361" y="717" type="line"/>
      <point x="468" y="707"/>
      <point x="411" y="549"/>
      <point x="526" y="549" type="curve" smooth="yes"/>
      <point x="567" y="549"/>
      <point x="591" y="575"/>
      <point x="591" y="610" type="curve" smooth="yes"/>
      <point x="591" y="698"/>
      <point x="476" y="771"/>
      <point x="361" y="777" type="curve"/>
      <point x="361" y="900" type="line"/>
      <point x="293" y="900" type="line"/>
      <point x="293" y="779" type="line"/>
      <point x="190" y="769"/>
      <point x="72" y="697"/>
      <point x="72" y="562" type="curve" smooth="yes"/>
      <point x="72" y="451"/>
      <point x="141" y="377"/>
      <point x="293" y="308" type="curve"/>
      <point x="293" y="52" type="line"/>
      <point x="232" y="57"/>
      <point x="218" y="88"/>
      <point x="202" y="146" type="curve" smooth="yes"/>
      <point x="180" y="225"/>
      <point x="151" y="259"/>
      <point x="105" y="259" type="curve"/>
      <point x="60" y="259"/>
      <point x="37" y="224"/>
      <point x="37" y="178" type="curve" smooth="yes"/>
      <point x="37" y="79"/>
      <point x="151" y="-1"/>
      <point x="293" y="-9" type="curve"/>
      <point x="293" y="-170" type="line"/>
    </contour>
    <contour>
      <point x="187" y="636" type="curve" smooth="yes"/>
      <point x="187" y="690"/>
      <point x="235" y="716"/>
      <point x="293" y="716" type="curve"/>
      <point x="293" y="521" type="line"/>
      <point x="220" y="554"/>
      <point x="187" y="591"/>
    </contour>
    <contour>
      <point x="488" y="156" type="curve" smooth="yes"/>
      <point x="488" y="94"/>
      <point x="442" y="64"/>
      <point x="361" y="54" type="curve"/>
      <point x="361" y="281" type="line"/>
      <point x="453" y="241"/>
      <point x="488" y="212"/>
    </contour>
  </outline>
</glyph>
<glyph name="percent" format="1">
  <advance width="712"/>
  <unicode hex="0025"/>
  <outline>
    <contour>
      <point x="682" y="770" type="line"/>
      <point x="611" y="770" type="line"/>
      <point x="31" y="0" type="line"/>
      <point x="111" y="0" type="line"/>
    </contour>
    <contour>
      <point x="215" y="780" type="curve" smooth="yes"/>
      <point x="131" y="780"/>
      <point x="66" y="710"/>
      <point x="66" y="620" type="curve" smooth="yes"/>
      <point x="66" y="533"/>
      <point x="131" y="464"/>
      <point x="215" y="464" type="curve" smooth="yes"/>
      <point x="301" y="464"/>
      <point x="364" y="533"/>
      <point x="364" y="620" type="curve" smooth="yes"/>
      <point x="364" y="710"/>
      <point x="301" y="780"/>
    </contour>
    <contour>
      <point x="215" y="499" type="curve" smooth="yes"/>
      <point x="180" y="499"/>
      <point x="161" y="526"/>
      <point x="161" y="618" type="curve" smooth="yes"/>
      <point x="161" y="715"/>
      <point x="180" y="745"/>
      <point x="215" y="745" type="curve" smooth="yes"/>
      <point x="250" y="745"/>
      <point x="269" y="715"/>
      <point x="269" y="618" type="curve" smooth="yes"/>
      <point x="269" y="526"/>
      <point x="249" y="499"/>
    </contour>
    <contour>
      <point x="499" y="306" type="curve" smooth="yes"/>
      <point x="415" y="306"/>
      <point x="350" y="236"/>
      <point x="350" y="146" type="curve" smooth="yes"/>
      <point x="350" y="59"/>
      <point x="415" y="-10"/>
      <point x="499" y="-10" type="curve" smooth="yes"/>
      <point x="585" y="-10"/>
      <point x="648" y="59"/>
      <point x="648" y="146" type="curve" smooth="yes"/>
      <point x="648" y="236"/>
      <point x="585" y="306"/>
    </contour>
    <contour>
      <point x="499" y="25" type="curve" smooth="yes"/>
      <point x="464" y="25"/>
      <point x="445" y="52"/>
      <point x="445" y="144" type="curve" smooth="yes"/>
      <point x="445" y="241"/>
      <point x="464" y="271"/>
      <point x="499" y="271" type="curve" smooth="yes"/>
      <point x="534" y="271"/>
      <point x="553" y="241"/>
      <point x="553" y="144" type="curve" smooth="yes"/>
      <point x="553" y="52"/>
      <point x="533" y="25"/>
    </contour>
  </outline>
</glyph>
<glyph name="ampersand" format="1">
  <advance width="901"/>
  <unicode hex="0026"/>
  <outline>
    <contour>
      <point x="406" y="418" type="line"/>
      <point x="540" y="468"/>
      <point x="581" y="530"/>
      <point x="581" y="610" type="curve"/>
      <point x="581" y="706"/>
      <point x="498" y="780"/>
      <point x="387" y="780" type="curve" smooth="yes"/>
      <point x="245" y="780"/>
      <point x="146" y="699"/>
      <point x="146" y="592" type="curve"/>
      <point x="146" y="531"/>
      <point x="164" y="474"/>
      <point x="215" y="405" type="curve"/>
      <point x="65" y="340"/>
      <point x="20" y="262"/>
      <point x="20" y="177" type="curve" smooth="yes"/>
      <point x="20" y="62"/>
      <point x="103" y="-10"/>
      <point x="231" y="-10" type="curve" smooth="yes"/>
      <point x="327" y="-10"/>
      <point x="411" y="20"/>
      <point x="488" y="78" type="curve"/>
      <point x="554" y="9"/>
      <point x="612" y="-10"/>
      <point x="690" y="-10" type="curve"/>
      <point x="786" y="-10"/>
      <point x="862" y="49"/>
      <point x="877" y="123" type="curve"/>
      <point x="851" y="130" type="line"/>
      <point x="828" y="93"/>
      <point x="805" y="83"/>
      <point x="768" y="83" type="curve" smooth="yes"/>
      <point x="721" y="83"/>
      <point x="669" y="107"/>
      <point x="600" y="185" type="curve"/>
      <point x="734" y="370" type="line" smooth="yes"/>
      <point x="764" y="412"/>
      <point x="789" y="432"/>
      <point x="850" y="432" type="curve"/>
      <point x="850" y="472" type="line"/>
      <point x="608" y="472" type="line"/>
      <point x="608" y="432" type="line"/>
      <point x="654" y="432"/>
      <point x="672" y="423"/>
      <point x="672" y="402" type="curve" smooth="yes"/>
      <point x="672" y="373"/>
      <point x="634" y="310"/>
      <point x="564" y="228" type="curve"/>
    </contour>
    <contour>
      <point x="363" y="472" type="curve"/>
      <point x="321" y="528"/>
      <point x="308" y="572"/>
      <point x="308" y="618" type="curve" smooth="yes"/>
      <point x="308" y="677"/>
      <point x="339" y="709"/>
      <point x="383" y="709" type="curve"/>
      <point x="427" y="709"/>
      <point x="448" y="671"/>
      <point x="448" y="622" type="curve" smooth="yes"/>
      <point x="448" y="573"/>
      <point x="427" y="526"/>
    </contour>
    <contour>
      <point x="452" y="118" type="line"/>
      <point x="405" y="85"/>
      <point x="368" y="79"/>
      <point x="327" y="79" type="curve" smooth="yes"/>
      <point x="268" y="79"/>
      <point x="207" y="118"/>
      <point x="207" y="203" type="curve" smooth="yes"/>
      <point x="207" y="261"/>
      <point x="224" y="302"/>
      <point x="265" y="343" type="curve"/>
    </contour>
  </outline>
</glyph>
<glyph name="parenleft" format="1">
  <advance width="373"/>
  <unicode hex="0028"/>
  <outline>
    <contour>
      <point x="321" y="831" type="line"/>
      <point x="132" y="677"/>
      <point x="35" y="503"/>
      <point x="35" y="323" type="curve" smooth="yes"/>
      <point x="35" y="138"/>
      <point x="136" y="-40"/>
      <point x="329" y="-194" type="curve"/>
      <point x="362" y="-161" type="line"/>
      <point x="247" y="-24"/>
      <point x="200" y="169"/>
      <point x="200" y="342" type="curve" smooth="yes"/>
      <point x="200" y="480"/>
      <point x="235" y="630"/>
      <point x="353" y="803" type="curve"/>
    </contour>
  </outline>
</glyph>
<glyph name="parenright" format="1">
  <advance width="373"/>
  <unicode hex="0029"/>
  <outline>
    <contour>
      <point x="20" y="803" type="line"/>
      <point x="138" y="630"/>
      <point x="173" y="480"/>
      <point x="173" y="342" type="curve" smooth="yes"/>
      <point x="173" y="169"/>
      <point x="126" y="-24"/>
      <point x="11" y="-161" type="curve"/>
      <point x="44" y="-194" type="line"/>
      <point x="237" y="-40"/>
      <point x="338" y="138"/>
      <point x="338" y="323" type="curve" smooth="yes"/>
      <point x="338" y="503"/>
      <point x="241" y="677"/>
      <point x="52" y="831" type="curve"/>
    </contour>
  </outline>
</glyph>
<glyph name="asterisk" format="1">
  <advance width="492"/>
  <unicode hex="002A"/>
  <outline>
    <contour>
      <point x="298" y="416" type="curve" smooth="yes"/>
      <point x="298" y="453"/>
      <point x="268" y="467"/>
      <point x="266" y="535" type="curve"/>
      <point x="325" y="502"/>
      <point x="321" y="467"/>
      <point x="354" y="448" type="curve" smooth="yes"/>
      <point x="381" y="432"/>
      <point x="410" y="442"/>
      <point x="425" y="468" type="curve"/>
      <point x="440" y="494"/>
      <point x="434" y="524"/>
      <point x="407" y="540" type="curve" smooth="yes"/>
      <point x="375" y="558"/>
      <point x="348" y="540"/>
      <point x="287" y="572" type="curve"/>
      <point x="346" y="606"/>
      <point x="374" y="585"/>
      <point x="407" y="604" type="curve" smooth="yes"/>
      <point x="434" y="620"/>
      <point x="440" y="650"/>
      <point x="425" y="676" type="curve"/>
      <point x="410" y="702"/>
      <point x="381" y="712"/>
      <point x="354" y="696" type="curve" smooth="yes"/>
      <point x="322" y="678"/>
      <point x="324" y="645"/>
      <point x="266" y="609" type="curve"/>
      <point x="266" y="676"/>
      <point x="298" y="690"/>
      <point x="298" y="728" type="curve" smooth="yes"/>
      <point x="298" y="760"/>
      <point x="275" y="780"/>
      <point x="245" y="780" type="curve"/>
      <point x="215" y="780"/>
      <point x="192" y="760"/>
      <point x="192" y="728" type="curve" smooth="yes"/>
      <point x="192" y="691"/>
      <point x="222" y="677"/>
      <point x="224" y="609" type="curve"/>
      <point x="165" y="642"/>
      <point x="169" y="677"/>
      <point x="136" y="696" type="curve" smooth="yes"/>
      <point x="109" y="712"/>
      <point x="80" y="702"/>
      <point x="65" y="676" type="curve"/>
      <point x="50" y="650"/>
      <point x="56" y="620"/>
      <point x="83" y="604" type="curve" smooth="yes"/>
      <point x="115" y="586"/>
      <point x="142" y="604"/>
      <point x="203" y="572" type="curve"/>
      <point x="144" y="538"/>
      <point x="116" y="559"/>
      <point x="83" y="540" type="curve" smooth="yes"/>
      <point x="56" y="524"/>
      <point x="50" y="494"/>
      <point x="65" y="468" type="curve"/>
      <point x="80" y="442"/>
      <point x="109" y="432"/>
      <point x="136" y="448" type="curve" smooth="yes"/>
      <point x="168" y="466"/>
      <point x="166" y="499"/>
      <point x="224" y="535" type="curve"/>
      <point x="224" y="468"/>
      <point x="192" y="454"/>
      <point x="192" y="416" type="curve" smooth="yes"/>
      <point x="192" y="384"/>
      <point x="215" y="364"/>
      <point x="245" y="364" type="curve"/>
      <point x="275" y="364"/>
      <point x="298" y="384"/>
    </contour>
  </outline>
</glyph>
<glyph name="comma" format="1">
  <advance width="277"/>
  <unicode hex="002C"/>
  <outline>
    <contour>
      <point x="59" y="-155" type="line"/>
      <point x="170" y="-104"/>
      <point x="221" y="-26"/>
      <point x="221" y="50" type="curve" smooth="yes"/>
      <point x="221" y="107"/>
      <point x="191" y="157"/>
      <point x="129" y="157" type="curve"/>
      <point x="69" y="157"/>
      <point x="35" y="118"/>
      <point x="35" y="71" type="curve" smooth="yes"/>
      <point x="35" y="23"/>
      <point x="65" y="-5"/>
      <point x="103" y="-5" type="curve"/>
      <point x="121" y="-5"/>
      <point x="132" y="-1"/>
      <point x="139" y="3" type="curve"/>
      <point x="139" y="-25"/>
      <point x="124" y="-61"/>
      <point x="30" y="-113" type="curve"/>
    </contour>
  </outline>
</glyph>
<glyph name="period" format="1">
  <advance width="283"/>
  <unicode hex="002E"/>
  <outline>
    <contour>
      <point x="54" y="75" type="curve" smooth="yes"/>
      <point x="54" y="28"/>
      <point x="92" y="-10"/>
      <point x="140" y="-10" type="curve" smooth="yes"/>
      <point x="191" y="-10"/>
      <point x="229" y="28"/>
      <point x="229" y="75" type="curve" smooth="yes"/>
      <point x="229" y="125"/>
      <point x="191" y="164"/>
      <point x="140" y="164" type="curve" smooth="yes"/>
      <point x="92" y="164"/>
      <point x="54" y="125"/>
    </contour>
  </outline>
</glyph>
<glyph name="zero" format="1">
  <advance width="784"/>
  <unicode hex="0030"/>
  <outline>
    <contour>
      <point x="392" y="780" type="curve" smooth="yes"/>
      <point x="212" y="780"/>
      <point x="47" y="605"/>
      <point x="47" y="379" type="curve" smooth="yes"/>
      <point x="47" y="162"/>
      <point x="212" y="-10"/>
      <point x="392" y="-10" type="curve" smooth="yes"/>
      <point x="575" y="-10"/>
      <point x="737" y="162"/>
      <point x="737" y="379" type="curve" smooth="yes"/>
      <point x="737" y="605"/>
      <point x="575" y="780"/>
    </contour>
    <contour>
      <point x="392" y="48" type="curve" smooth="yes"/>
      <point x="296" y="48"/>
      <point x="238" y="123"/>
      <point x="238" y="376" type="curve" smooth="yes"/>
      <point x="238" y="640"/>
      <point x="296" y="722"/>
      <point x="392" y="722" type="curve" smooth="yes"/>
      <point x="488" y="722"/>
      <point x="546" y="640"/>
      <point x="546" y="376" type="curve" smooth="yes"/>
      <point x="546" y="123"/>
      <point x="488" y="48"/>
    </contour>
  </outline>
</glyph>
<glyph name="two" format="1">
  <advance width="661"/>
  <unicode hex="0032"/>
  <outline>
    <contour>
      <point x="231" y="138" type="line"/>
      <point x="441" y="279"/>
      <point x="601" y="403"/>
      <point x="601" y="564" type="curve" smooth="yes"/>
      <point x="601" y="691"/>
      <point x="496" y="780"/>
      <point x="324" y="780" type="curve" smooth="yes"/>
      <point x="166" y="780"/>
      <point x="49" y="692"/>
      <point x="49" y="573" type="curve" smooth="yes"/>
      <point x="49" y="486"/>
      <point x="105" y="423"/>
      <point x="177" y="423" type="curve"/>
      <point x="225" y="423"/>
      <point x="270" y="448"/>
      <point x="276" y="486" type="curve"/>
      <point x="218" y="486"/>
      <point x="196" y="528"/>
      <point x="196" y="594" type="curve" smooth="yes"/>
      <point x="196" y="670"/>
      <point x="234" y="723"/>
      <point x="309" y="723" type="curve"/>
      <point x="383" y="723"/>
      <point x="421" y="663"/>
      <point x="421" y="566" type="curve" smooth="yes"/>
      <point x="421" y="426"/>
      <point x="356" y="318"/>
      <point x="39" y="46" type="curve"/>
      <point x="39" y="0" type="line"/>
      <point x="573" y="0" type="line"/>
      <point x="613" y="233" type="line"/>
      <point x="569" y="233" type="line"/>
      <point x="542" y="156"/>
      <point x="513" y="133"/>
      <point x="446" y="133" type="curve" smooth="yes"/>
      <point x="232" y="133" type="line"/>
    </contour>
  </outline>
</glyph>
<glyph name="three" format="1">
  <advance width="652"/>
  <unicode hex="0033"/>
  <outline>
    <contour>
      <point x="421" y="216" type="curve" smooth="yes"/>
      <point x="421" y="313"/>
      <point x="390" y="368"/>
      <point x="315" y="378" type="curve"/>
      <point x="289" y="362"/>
      <point x="262" y="355"/>
      <point x="245" y="355" type="curve" smooth="yes"/>
      <point x="208" y="355"/>
      <point x="186" y="376"/>
      <point x="186" y="404" type="curve" smooth="yes"/>
      <point x="186" y="428"/>
      <point x="207" y="447"/>
      <point x="243" y="447" type="curve" smooth="yes"/>
      <point x="269" y="447"/>
      <point x="287" y="440"/>
      <point x="306" y="431" type="curve"/>
      <point x="369" y="431"/>
      <point x="401" y="481"/>
      <point x="401" y="581" type="curve" smooth="yes"/>
      <point x="401" y="677"/>
      <point x="362" y="727"/>
      <point x="297" y="727" type="curve" smooth="yes"/>
      <point x="236" y="727"/>
      <point x="208" y="696"/>
      <point x="208" y="644" type="curve" smooth="yes"/>
      <point x="208" y="608"/>
      <point x="231" y="581"/>
      <point x="263" y="581" type="curve"/>
      <point x="255" y="545"/>
      <point x="227" y="523"/>
      <point x="176" y="523" type="curve"/>
      <point x="113" y="523"/>
      <point x="68" y="567"/>
      <point x="68" y="630" type="curve" smooth="yes"/>
      <point x="68" y="715"/>
      <point x="163" y="780"/>
      <point x="306" y="780" type="curve" smooth="yes"/>
      <point x="488" y="780"/>
      <point x="576" y="693"/>
      <point x="576" y="591" type="curve" smooth="yes"/>
      <point x="576" y="505"/>
      <point x="524" y="448"/>
      <point x="420" y="417" type="curve"/>
      <point x="420" y="411" type="line"/>
      <point x="542" y="378"/>
      <point x="604" y="307"/>
      <point x="604" y="207" type="curve" smooth="yes"/>
      <point x="604" y="81"/>
      <point x="486" y="-10"/>
      <point x="301" y="-10" type="curve" smooth="yes"/>
      <point x="149" y="-10"/>
      <point x="37" y="65"/>
      <point x="37" y="188" type="curve"/>
      <point x="37" y="253"/>
      <point x="87" y="304"/>
      <point x="163" y="304" type="curve"/>
      <point x="211" y="304"/>
      <point x="246" y="279"/>
      <point x="254" y="240" type="curve"/>
      <point x="214" y="240"/>
      <point x="184" y="208"/>
      <point x="184" y="155" type="curve" smooth="yes"/>
      <point x="184" y="85"/>
      <point x="230" y="47"/>
      <point x="300" y="47" type="curve" smooth="yes"/>
      <point x="375" y="47"/>
      <point x="421" y="114"/>
    </contour>
  </outline>
</glyph>
<glyph name="four" format="1">
  <advance width="698"/>
  <unicode hex="0034"/>
  <outline>
    <contour>
      <point x="8" y="268" type="line"/>
      <point x="383" y="780" type="line"/>
      <point x="502" y="780" type="line"/>
      <point x="502" y="271" type="line"/>
      <point x="599" y="274"/>
      <point x="620" y="290"/>
      <point x="620" y="367" type="curve"/>
      <point x="657" y="367" type="line"/>
      <point x="657" y="124" type="line"/>
      <point x="620" y="124" type="line"/>
      <point x="620" y="197"/>
      <point x="599" y="210"/>
      <point x="502" y="212" type="curve"/>
      <point x="502" y="181" type="line" smooth="yes"/>
      <point x="502" y="88"/>
      <point x="517" y="43"/>
      <point x="595" y="40" type="curve"/>
      <point x="595" y="0" type="line"/>
      <point x="228" y="0" type="line"/>
      <point x="228" y="40" type="line"/>
      <point x="322" y="44"/>
      <point x="337" y="90"/>
      <point x="337" y="174" type="curve" smooth="yes"/>
      <point x="337" y="208" type="line"/>
      <point x="8" y="208" type="line"/>
    </contour>
    <contour>
      <point x="337" y="595" type="line"/>
      <point x="333" y="595" type="line"/>
      <point x="93" y="271" type="line"/>
      <point x="337" y="271" type="line"/>
    </contour>
  </outline>
</glyph>
<glyph name="five" format="1">
  <advance width="629"/>
  <unicode hex="0035"/>
  <outline>
    <contour>
      <point x="246" y="613" type="line"/>
      <point x="393" y="613" type="line" smooth="yes"/>
      <point x="523" y="613"/>
      <point x="566" y="665"/>
      <point x="585" y="780" type="curve"/>
      <point x="579" y="781" type="line"/>
      <point x="549" y="769"/>
      <point x="493" y="762"/>
      <point x="419" y="762" type="curve" smooth="yes"/>
      <point x="357" y="762"/>
      <point x="263" y="768"/>
      <point x="226" y="780" type="curve"/>
      <point x="114" y="367" type="line" smooth="yes"/>
      <point x="113" y="363"/>
      <point x="112" y="359"/>
      <point x="112" y="355" type="curve" smooth="yes"/>
      <point x="112" y="339"/>
      <point x="123" y="329"/>
      <point x="140" y="329" type="curve" smooth="yes"/>
      <point x="158" y="329"/>
      <point x="170" y="336"/>
      <point x="181" y="367" type="curve" smooth="yes"/>
      <point x="204" y="429"/>
      <point x="241" y="457"/>
      <point x="299" y="457" type="curve" smooth="yes"/>
      <point x="369" y="457"/>
      <point x="386" y="407"/>
      <point x="386" y="297" type="curve" smooth="yes"/>
      <point x="386" y="144"/>
      <point x="335" y="44"/>
      <point x="232" y="44" type="curve" smooth="yes"/>
      <point x="100" y="44"/>
      <point x="177" y="205"/>
      <point x="75" y="205" type="curve" smooth="yes"/>
      <point x="37" y="205"/>
      <point x="10" y="179"/>
      <point x="10" y="138" type="curve"/>
      <point x="10" y="48"/>
      <point x="104" y="-10"/>
      <point x="229" y="-10" type="curve" smooth="yes"/>
      <point x="413" y="-10"/>
      <point x="571" y="101"/>
      <point x="571" y="284" type="curve"/>
      <point x="571" y="411"/>
      <point x="494" y="515"/>
      <point x="339" y="515" type="curve"/>
      <point x="276" y="515"/>
      <point x="231" y="498"/>
      <point x="209" y="474" type="curve"/>
      <point x="207" y="477" type="line"/>
    </contour>
  </outline>
</glyph>
<glyph name="six" format="1">
  <advance width="712"/>
  <unicode hex="0036"/>
  <outline>
    <contour>
      <point x="667" y="259" type="curve" smooth="yes"/>
      <point x="667" y="404"/>
      <point x="574" y="513"/>
      <point x="417" y="513" type="curve" smooth="yes"/>
      <point x="353" y="513"/>
      <point x="280" y="491"/>
      <point x="238" y="443" type="curve"/>
      <point x="235" y="445" type="line"/>
      <point x="235" y="604"/>
      <point x="302" y="725"/>
      <point x="389" y="725" type="curve" smooth="yes"/>
      <point x="496" y="725"/>
      <point x="463" y="606"/>
      <point x="545" y="606" type="curve" smooth="yes"/>
      <point x="585" y="606"/>
      <point x="611" y="630"/>
      <point x="611" y="668" type="curve" smooth="yes"/>
      <point x="611" y="731"/>
      <point x="527" y="780"/>
      <point x="420" y="780" type="curve" smooth="yes"/>
      <point x="206" y="780"/>
      <point x="48" y="590"/>
      <point x="48" y="337" type="curve" smooth="yes"/>
      <point x="48" y="133"/>
      <point x="167" y="-10"/>
      <point x="360" y="-10" type="curve" smooth="yes"/>
      <point x="549" y="-10"/>
      <point x="667" y="104"/>
    </contour>
    <contour>
      <point x="233" y="357" type="line"/>
      <point x="275" y="428"/>
      <point x="317" y="454"/>
      <point x="375" y="454" type="curve" smooth="yes"/>
      <point x="453" y="454"/>
      <point x="487" y="385"/>
      <point x="487" y="255" type="curve" smooth="yes"/>
      <point x="487" y="112"/>
      <point x="448" y="45"/>
      <point x="364" y="45" type="curve" smooth="yes"/>
      <point x="279" y="45"/>
      <point x="233" y="126"/>
      <point x="233" y="283" type="curve" smooth="yes"/>
    </contour>
  </outline>
</glyph>
<glyph name="seven" format="1">
  <advance width="562"/>
  <unicode hex="0037"/>
  <outline>
    <contour>
      <point x="228" y="277" type="curve" smooth="yes"/>
      <point x="131" y="117"/>
      <point x="118" y="89"/>
      <point x="118" y="53" type="curve" smooth="yes"/>
      <point x="118" y="13"/>
      <point x="150" y="-10"/>
      <point x="190" y="-10" type="curve" smooth="yes"/>
      <point x="244" y="-10"/>
      <point x="283" y="20"/>
      <point x="310" y="97" type="curve" smooth="yes"/>
      <point x="408" y="384"/>
      <point x="422" y="418"/>
      <point x="574" y="730" type="curve"/>
      <point x="574" y="770" type="line"/>
      <point x="221" y="770" type="line" smooth="yes"/>
      <point x="160" y="770"/>
      <point x="141" y="777"/>
      <point x="141" y="801" type="curve" smooth="yes"/>
      <point x="141" y="809"/>
      <point x="143" y="818"/>
      <point x="146" y="830" type="curve"/>
      <point x="104" y="830" type="line"/>
      <point x="19" y="525" type="line"/>
      <point x="59" y="525" type="line"/>
      <point x="76" y="564" type="line" smooth="yes"/>
      <point x="99" y="618"/>
      <point x="118" y="626"/>
      <point x="228" y="626" type="curve" smooth="yes"/>
      <point x="428" y="626" type="line"/>
      <point x="362" y="502"/>
      <point x="348" y="475"/>
    </contour>
  </outline>
</glyph>
<glyph name="eight" format="1">
  <advance width="670"/>
  <unicode hex="0038"/>
  <outline>
    <contour>
      <point x="238" y="352" type="curve" smooth="yes"/>
      <point x="357" y="306" type="line" smooth="yes"/>
      <point x="447" y="271"/>
      <point x="505" y="228"/>
      <point x="505" y="163" type="curve"/>
      <point x="505" y="96"/>
      <point x="445" y="46"/>
      <point x="346" y="46" type="curve"/>
      <point x="240" y="46"/>
      <point x="185" y="106"/>
      <point x="185" y="182" type="curve"/>
      <point x="185" y="258"/>
      <point x="240" y="315"/>
      <point x="300" y="367" type="curve"/>
      <point x="223" y="385" type="line"/>
      <point x="110" y="335"/>
      <point x="50" y="272"/>
      <point x="50" y="189" type="curve" smooth="yes"/>
      <point x="50" y="68"/>
      <point x="174" y="-10"/>
      <point x="329" y="-10" type="curve" smooth="yes"/>
      <point x="500" y="-10"/>
      <point x="625" y="80"/>
      <point x="625" y="214" type="curve" smooth="yes"/>
      <point x="625" y="303"/>
      <point x="593" y="391"/>
      <point x="447" y="448" type="curve" smooth="yes"/>
      <point x="325" y="496" type="line" smooth="yes"/>
      <point x="241" y="529"/>
      <point x="188" y="562"/>
      <point x="188" y="625" type="curve"/>
      <point x="188" y="681"/>
      <point x="247" y="725"/>
      <point x="330" y="725" type="curve"/>
      <point x="429" y="725"/>
      <point x="478" y="670"/>
      <point x="478" y="590" type="curve"/>
      <point x="478" y="534"/>
      <point x="432" y="491"/>
      <point x="370" y="440" type="curve"/>
      <point x="453" y="421" type="line"/>
      <point x="548" y="457"/>
      <point x="600" y="515"/>
      <point x="600" y="593" type="curve"/>
      <point x="600" y="692"/>
      <point x="493" y="780"/>
      <point x="348" y="780" type="curve"/>
      <point x="185" y="780"/>
      <point x="73" y="684"/>
      <point x="73" y="565" type="curve" smooth="yes"/>
      <point x="73" y="468"/>
      <point x="125" y="396"/>
    </contour>
  </outline>
</glyph>
<glyph name="nine" format="1">
  <advance width="712"/>
  <unicode hex="0039"/>
  <outline>
    <contour>
      <point x="45" y="511" type="curve" smooth="yes"/>
      <point x="45" y="366"/>
      <point x="138" y="257"/>
      <point x="295" y="257" type="curve" smooth="yes"/>
      <point x="359" y="257"/>
      <point x="432" y="279"/>
      <point x="474" y="327" type="curve"/>
      <point x="477" y="325" type="line"/>
      <point x="477" y="166"/>
      <point x="410" y="45"/>
      <point x="323" y="45" type="curve" smooth="yes"/>
      <point x="216" y="45"/>
      <point x="249" y="164"/>
      <point x="167" y="164" type="curve" smooth="yes"/>
      <point x="127" y="164"/>
      <point x="101" y="140"/>
      <point x="101" y="102" type="curve" smooth="yes"/>
      <point x="101" y="39"/>
      <point x="185" y="-10"/>
      <point x="292" y="-10" type="curve" smooth="yes"/>
      <point x="506" y="-10"/>
      <point x="664" y="180"/>
      <point x="664" y="433" type="curve" smooth="yes"/>
      <point x="664" y="637"/>
      <point x="545" y="780"/>
      <point x="352" y="780" type="curve" smooth="yes"/>
      <point x="163" y="780"/>
      <point x="45" y="666"/>
    </contour>
    <contour>
      <point x="479" y="413" type="line"/>
      <point x="437" y="342"/>
      <point x="395" y="316"/>
      <point x="337" y="316" type="curve" smooth="yes"/>
      <point x="259" y="316"/>
      <point x="225" y="385"/>
      <point x="225" y="515" type="curve" smooth="yes"/>
      <point x="225" y="658"/>
      <point x="264" y="725"/>
      <point x="348" y="725" type="curve" smooth="yes"/>
      <point x="433" y="725"/>
      <point x="479" y="644"/>
      <point x="479" y="487" type="curve" smooth="yes"/>
    </contour>
  </outline>
</glyph>
<glyph name="colon" format="1">
  <advance width="307"/>
  <unicode hex="003A"/>
  <outline>
    <contour>
      <point x="66" y="375" type="curve" smooth="yes"/>
      <point x="66" y="328"/>
      <point x="104" y="290"/>
      <point x="152" y="290" type="curve" smooth="yes"/>
      <point x="203" y="290"/>
      <point x="241" y="328"/>
      <point x="241" y="375" type="curve" smooth="yes"/>
      <point x="241" y="425"/>
      <point x="203" y="464"/>
      <point x="152" y="464" type="curve" smooth="yes"/>
      <point x="104" y="464"/>
      <point x="66" y="425"/>
    </contour>
    <contour>
      <point x="66" y="75" type="curve" smooth="yes"/>
      <point x="66" y="28"/>
      <point x="104" y="-10"/>
      <point x="152" y="-10" type="curve" smooth="yes"/>
      <point x="203" y="-10"/>
      <point x="241" y="28"/>
      <point x="241" y="75" type="curve" smooth="yes"/>
      <point x="241" y="125"/>
      <point x="203" y="164"/>
      <point x="152" y="164" type="curve" smooth="yes"/>
      <point x="104" y="164"/>
      <point x="66" y="125"/>
    </contour>
  </outline>
</glyph>
<glyph name="semicolon" format="1">
  <advance width="310"/>
  <unicode hex="003B"/>
  <outline>
    <contour>
      <point x="58" y="375" type="curve" smooth="yes"/>
      <point x="58" y="328"/>
      <point x="96" y="290"/>
      <point x="144" y="290" type="curve" smooth="yes"/>
      <point x="195" y="290"/>
      <point x="233" y="328"/>
      <point x="233" y="375" type="curve" smooth="yes"/>
      <point x="233" y="425"/>
      <point x="195" y="464"/>
      <point x="144" y="464" type="curve" smooth="yes"/>
      <point x="96" y="464"/>
      <point x="58" y="425"/>
    </contour>
    <contour>
      <point x="78" y="-155" type="line"/>
      <point x="189" y="-104"/>
      <point x="240" y="-26"/>
      <point x="240" y="50" type="curve" smooth="yes"/>
      <point x="240" y="107"/>
      <point x="210" y="157"/>
      <point x="148" y="157" type="curve"/>
      <point x="88" y="157"/>
      <point x="54" y="118"/>
      <point x="54" y="71" type="curve" smooth="yes"/>
      <point x="54" y="23"/>
      <point x="84" y="-5"/>
      <point x="122" y="-5" type="curve"/>
      <point x="140" y="-5"/>
      <point x="151" y="-1"/>
      <point x="158" y="3" type="curve"/>
      <point x="158" y="-25"/>
      <point x="143" y="-61"/>
      <point x="49" y="-113" type="curve"/>
    </contour>
  </outline>
</glyph>
<glyph name="question" format="1">
  <advance width="437"/>
  <unicode hex="003F"/>
  <outline>
    <contour>
      <point x="203" y="239" type="line"/>
      <point x="203" y="343" type="line"/>
      <point x="311" y="333"/>
      <point x="391" y="396"/>
      <point x="391" y="520" type="curve"/>
      <point x="391" y="671"/>
      <point x="273" y="780"/>
      <point x="146" y="780" type="curve" smooth="yes"/>
      <point x="94" y="780"/>
      <point x="54" y="759"/>
      <point x="54" y="715" type="curve"/>
      <point x="54" y="675"/>
      <point x="88" y="650"/>
      <point x="127" y="650" type="curve"/>
      <point x="161" y="650"/>
      <point x="190" y="661"/>
      <point x="216" y="661" type="curve" smooth="yes"/>
      <point x="266" y="661"/>
      <point x="324" y="623"/>
      <point x="324" y="565" type="curve" smooth="yes"/>
      <point x="324" y="507"/>
      <point x="261" y="476"/>
      <point x="170" y="476" type="curve" smooth="yes"/>
      <point x="135" y="476" type="line"/>
      <point x="135" y="239" type="line"/>
    </contour>
    <contour>
      <point x="81" y="75" type="curve" smooth="yes"/>
      <point x="81" y="28"/>
      <point x="119" y="-10"/>
      <point x="167" y="-10" type="curve" smooth="yes"/>
      <point x="218" y="-10"/>
      <point x="256" y="28"/>
      <point x="256" y="75" type="curve" smooth="yes"/>
      <point x="256" y="125"/>
      <point x="218" y="164"/>
      <point x="167" y="164" type="curve" smooth="yes"/>
      <point x="119" y="164"/>
      <point x="81" y="125"/>
    </contour>
  </outline>
</glyph>
<glyph name="at" format="1">
  <advance width="1061"/>
  <unicode hex="0040"/>
  <outline>
    <contour>
      <point x="713" y="530" type="line"/>
      <point x="856" y="530" type="line"/>
      <point x="786" y="303" type="line" smooth="yes"/>
      <point x="766" y="239"/>
      <point x="758" y="198"/>
      <point x="758" y="172" type="curve" smooth="yes"/>
      <point x="758" y="146"/>
      <point x="767" y="137"/>
      <point x="782" y="137" type="curve" smooth="yes"/>
      <point x="865" y="137"/>
      <point x="953" y="266"/>
      <point x="953" y="418" type="curve" smooth="yes"/>
      <point x="953" y="595"/>
      <point x="805" y="725"/>
      <point x="597" y="725" type="curve" smooth="yes"/>
      <point x="353" y="725"/>
      <point x="166" y="540"/>
      <point x="166" y="300" type="curve" smooth="yes"/>
      <point x="166" y="75"/>
      <point x="330" y="-76"/>
      <point x="573" y="-76" type="curve" smooth="yes"/>
      <point x="688" y="-76"/>
      <point x="794" y="-43"/>
      <point x="893" y="24" type="curve"/>
      <point x="925" y="-17" type="line"/>
      <point x="800" y="-99"/>
      <point x="690" y="-134"/>
      <point x="557" y="-134" type="curve" smooth="yes"/>
      <point x="255" y="-134"/>
      <point x="40" y="47"/>
      <point x="40" y="301" type="curve" smooth="yes"/>
      <point x="40" y="569"/>
      <point x="280" y="780"/>
      <point x="587" y="780" type="curve" smooth="yes"/>
      <point x="843" y="780"/>
      <point x="1010" y="636"/>
      <point x="1010" y="422" type="curve" smooth="yes"/>
      <point x="1010" y="221"/>
      <point x="889" y="77"/>
      <point x="759" y="77" type="curve"/>
      <point x="677" y="77"/>
      <point x="629" y="118"/>
      <point x="623" y="192" type="curve"/>
      <point x="619" y="192" type="line"/>
      <point x="575" y="119"/>
      <point x="524" y="77"/>
      <point x="446" y="77" type="curve" smooth="yes"/>
      <point x="334" y="77"/>
      <point x="279" y="161"/>
      <point x="279" y="263" type="curve" smooth="yes"/>
      <point x="279" y="417"/>
      <point x="423" y="540"/>
      <point x="568" y="540" type="curve" smooth="yes"/>
      <point x="633" y="540"/>
      <point x="675" y="504"/>
      <point x="686" y="442" type="curve"/>
      <point x="690" y="442" type="line"/>
    </contour>
    <contour>
      <point x="580" y="488" type="curve" smooth="yes"/>
      <point x="493" y="488"/>
      <point x="430" y="367"/>
      <point x="430" y="236" type="curve" smooth="yes"/>
      <point x="430" y="168"/>
      <point x="450" y="132"/>
      <point x="489" y="132" type="curve"/>
      <point x="552" y="132"/>
      <point x="651" y="270"/>
      <point x="651" y="393" type="curve" smooth="yes"/>
      <point x="651" y="454"/>
      <point x="626" y="488"/>
    </contour>
  </outline>
</glyph>
<glyph name="A" format="1">
  <advance width="829"/>
  <unicode hex="0041"/>
  <outline>
    <contour>
      <point x="524" y="173" type="line" smooth="yes"/>
      <point x="542" y="131"/>
      <point x="550" y="102"/>
      <point x="550" y="83" type="curve" smooth="yes"/>
      <point x="550" y="51"/>
      <point x="524" y="44"/>
      <point x="460" y="41" type="curve"/>
      <point x="460" y="0" type="line"/>
      <point x="858" y="0" type="line"/>
      <point x="858" y="41" type="line"/>
      <point x="768" y="50"/>
      <point x="756" y="63"/>
      <point x="698" y="196" type="curve" smooth="yes"/>
      <point x="439" y="786" type="line"/>
      <point x="365" y="786" type="line"/>
      <point x="102" y="121" type="line" smooth="yes"/>
      <point x="80" y="64"/>
      <point x="51" y="47"/>
      <point x="-13" y="40" type="curve"/>
      <point x="-13" y="0" type="line"/>
      <point x="261" y="0" type="line"/>
      <point x="261" y="40" type="line"/>
      <point x="201" y="40"/>
      <point x="171" y="46"/>
      <point x="171" y="86" type="curve" smooth="yes"/>
      <point x="171" y="103"/>
      <point x="176" y="120"/>
      <point x="220" y="233" type="curve"/>
      <point x="499" y="233" type="line"/>
    </contour>
    <contour>
      <point x="355" y="571" type="line"/>
      <point x="474" y="293" type="line"/>
      <point x="243" y="293" type="line"/>
    </contour>
    <contour>
      <point x="399" y="830" type="move" name="topcap"/>
    </contour>
    <contour>
      <point x="666" y="0" type="move" name="bottom"/>
    </contour>
  </outline>
</glyph>
<glyph name="B" format="1">
  <advance width="828"/>
  <unicode hex="0042"/>
  <outline>
    <contour>
      <point x="33" y="0" type="line"/>
      <point x="33" y="40" type="line"/>
      <point x="123" y="43"/>
      <point x="139" y="60"/>
      <point x="139" y="154" type="curve" smooth="yes"/>
      <point x="139" y="616" type="line" smooth="yes"/>
      <point x="139" y="709"/>
      <point x="126" y="726"/>
      <point x="54" y="730" type="curve"/>
      <point x="54" y="770" type="line"/>
      <point x="418" y="770" type="line"/>
      <point x="616" y="770"/>
      <point x="730" y="711"/>
      <point x="730" y="584" type="curve"/>
      <point x="730" y="494"/>
      <point x="667" y="437"/>
      <point x="541" y="415" type="curve"/>
      <point x="541" y="411" type="line"/>
      <point x="700" y="401"/>
      <point x="789" y="326"/>
      <point x="789" y="211" type="curve"/>
      <point x="789" y="69"/>
      <point x="660" y="0"/>
      <point x="441" y="0" type="curve" smooth="yes"/>
    </contour>
    <contour>
      <point x="448" y="61" type="curve" smooth="yes"/>
      <point x="556" y="61"/>
      <point x="609" y="108"/>
      <point x="609" y="206" type="curve" smooth="yes"/>
      <point x="609" y="324"/>
      <point x="539" y="375"/>
      <point x="357" y="375" type="curve" smooth="yes"/>
      <point x="309" y="375" type="line"/>
      <point x="309" y="185" type="line"/>
      <point x="309" y="93"/>
      <point x="348" y="61"/>
    </contour>
    <contour>
      <point x="368" y="435" type="line" smooth="yes"/>
      <point x="504" y="435"/>
      <point x="550" y="485"/>
      <point x="550" y="571" type="curve" smooth="yes"/>
      <point x="550" y="668"/>
      <point x="512" y="709"/>
      <point x="398" y="709" type="curve" smooth="yes"/>
      <point x="327" y="709" type="line" smooth="yes"/>
      <point x="316" y="709"/>
      <point x="309" y="702"/>
      <point x="309" y="692" type="curve" smooth="yes"/>
      <point x="309" y="435" type="line"/>
    </contour>
  </outline>
</glyph>
<glyph name="C" format="1">
  <advance width="833"/>
  <unicode hex="0043"/>
  <outline>
    <contour>
      <point x="478" y="715" type="curve" smooth="yes"/>
      <point x="592" y="715"/>
      <point x="678" y="639"/>
      <point x="706" y="517" type="curve"/>
      <point x="746" y="517" type="line"/>
      <point x="766" y="770" type="line"/>
      <point x="717" y="770" type="line"/>
      <point x="698" y="708" type="line"/>
      <point x="616" y="759"/>
      <point x="550" y="780"/>
      <point x="469" y="780" type="curve" smooth="yes"/>
      <point x="225" y="780"/>
      <point x="47" y="614"/>
      <point x="47" y="372" type="curve" smooth="yes"/>
      <point x="47" y="139"/>
      <point x="214" y="-10"/>
      <point x="457" y="-10" type="curve" smooth="yes"/>
      <point x="561" y="-10"/>
      <point x="650" y="19"/>
      <point x="724" y="79" type="curve"/>
      <point x="738" y="0" type="line"/>
      <point x="785" y="0" type="line"/>
      <point x="785" y="271" type="line"/>
      <point x="741" y="271" type="line"/>
      <point x="704" y="129"/>
      <point x="614" y="56"/>
      <point x="482" y="56" type="curve" smooth="yes"/>
      <point x="318" y="56"/>
      <point x="237" y="172"/>
      <point x="237" y="378" type="curve" smooth="yes"/>
      <point x="237" y="587"/>
      <point x="321" y="715"/>
    </contour>
    <contour>
      <point x="469" y="830" type="move" name="topcap"/>
    </contour>
    <contour>
      <point x="452" y="0" type="move" name="bottom"/>
    </contour>
  </outline>
</glyph>
<glyph name="D" format="1">
  <advance width="950"/>
  <unicode hex="0044"/>
  <outline>
    <contour>
      <point x="35" y="0" type="line"/>
      <point x="35" y="40" type="line"/>
      <point x="123" y="43"/>
      <point x="140" y="59"/>
      <point x="140" y="154" type="curve" smooth="yes"/>
      <point x="140" y="616" type="line" smooth="yes"/>
      <point x="140" y="709"/>
      <point x="127" y="726"/>
      <point x="51" y="730" type="curve"/>
      <point x="51" y="770" type="line"/>
      <point x="454" y="770" type="line" smooth="yes"/>
      <point x="710" y="770"/>
      <point x="904" y="602"/>
      <point x="904" y="372" type="curve" smooth="yes"/>
      <point x="904" y="153"/>
      <point x="723" y="0"/>
      <point x="475" y="0" type="curve" smooth="yes"/>
    </contour>
    <contour>
      <point x="327" y="709" type="line" smooth="yes"/>
      <point x="316" y="709"/>
      <point x="310" y="702"/>
      <point x="310" y="692" type="curve" smooth="yes"/>
      <point x="310" y="175" type="line" smooth="yes"/>
      <point x="310" y="98"/>
      <point x="357" y="61"/>
      <point x="457" y="61" type="curve" smooth="yes"/>
      <point x="621" y="61"/>
      <point x="714" y="170"/>
      <point x="714" y="370" type="curve" smooth="yes"/>
      <point x="714" y="583"/>
      <point x="614" y="709"/>
      <point x="442" y="709" type="curve" smooth="yes"/>
    </contour>
    <contour>
      <point x="489" y="830" type="move" name="topcap"/>
    </contour>
    <contour>
      <point x="489" y="0" type="move" name="bottom"/>
    </contour>
  </outline>
</glyph>
<glyph name="E" format="1">
  <advance width="787"/>
  <unicode hex="0045"/>
  <outline>
    <contour>
      <point x="310" y="680" type="line" smooth="yes"/>
      <point x="310" y="712"/>
      <point x="314" y="717"/>
      <point x="348" y="717" type="curve" smooth="yes"/>
      <point x="461" y="717" type="line" smooth="yes"/>
      <point x="603" y="717"/>
      <point x="648" y="686"/>
      <point x="665" y="574" type="curve"/>
      <point x="708" y="574" type="line"/>
      <point x="701" y="770" type="line"/>
      <point x="46" y="770" type="line"/>
      <point x="46" y="730" type="line"/>
      <point x="126" y="726"/>
      <point x="140" y="709"/>
      <point x="140" y="616" type="curve" smooth="yes"/>
      <point x="140" y="154" type="line" smooth="yes"/>
      <point x="140" y="60"/>
      <point x="124" y="43"/>
      <point x="35" y="40" type="curve"/>
      <point x="35" y="0" type="line"/>
      <point x="736" y="0" type="line"/>
      <point x="752" y="229" type="line"/>
      <point x="712" y="229" type="line"/>
      <point x="684" y="93"/>
      <point x="633" y="55"/>
      <point x="481" y="55" type="curve" smooth="yes"/>
      <point x="352" y="55"/>
      <point x="310" y="83"/>
      <point x="310" y="169" type="curve" smooth="yes"/>
      <point x="310" y="375" type="line"/>
      <point x="477" y="375"/>
      <point x="501" y="363"/>
      <point x="518" y="255" type="curve"/>
      <point x="555" y="255" type="line"/>
      <point x="555" y="548" type="line"/>
      <point x="518" y="548" type="line"/>
      <point x="506" y="440"/>
      <point x="481" y="426"/>
      <point x="310" y="426" type="curve"/>
    </contour>
    <contour>
      <point x="427" y="830" type="move" name="topcap"/>
    </contour>
    <contour>
      <point x="427" y="0" type="move" name="bottom"/>
    </contour>
  </outline>
</glyph>
<glyph name="F" format="1">
  <advance width="712"/>
  <unicode hex="0046"/>
  <outline>
    <contour>
      <point x="310" y="161" type="line" smooth="yes"/>
      <point x="310" y="59"/>
      <point x="329" y="43"/>
      <point x="456" y="40" type="curve"/>
      <point x="456" y="0" type="line"/>
      <point x="35" y="0" type="line"/>
      <point x="35" y="40" type="line"/>
      <point x="124" y="43"/>
      <point x="140" y="60"/>
      <point x="140" y="154" type="curve" smooth="yes"/>
      <point x="140" y="616" type="line" smooth="yes"/>
      <point x="140" y="709"/>
      <point x="126" y="726"/>
      <point x="46" y="730" type="curve"/>
      <point x="46" y="770" type="line"/>
      <point x="681" y="770" type="line"/>
      <point x="693" y="559" type="line"/>
      <point x="651" y="559" type="line"/>
      <point x="635" y="673"/>
      <point x="595" y="714"/>
      <point x="466" y="714" type="curve" smooth="yes"/>
      <point x="328" y="714" type="line" smooth="yes"/>
      <point x="317" y="714"/>
      <point x="310" y="708"/>
      <point x="310" y="697" type="curve" smooth="yes"/>
      <point x="310" y="408" type="line"/>
      <point x="472" y="408"/>
      <point x="508" y="430"/>
      <point x="518" y="538" type="curve"/>
      <point x="555" y="538" type="line"/>
      <point x="555" y="225" type="line"/>
      <point x="518" y="225" type="line"/>
      <point x="502" y="337"/>
      <point x="468" y="354"/>
      <point x="310" y="355" type="curve"/>
    </contour>
  </outline>
</glyph>
<glyph name="G" format="1">
  <advance width="889"/>
  <unicode hex="0047"/>
  <outline>
    <contour>
      <point x="475" y="715" type="curve"/>
      <point x="589" y="715"/>
      <point x="675" y="639"/>
      <point x="703" y="517" type="curve"/>
      <point x="743" y="517" type="line"/>
      <point x="763" y="770" type="line"/>
      <point x="714" y="770" type="line"/>
      <point x="695" y="708" type="line"/>
      <point x="613" y="759"/>
      <point x="555" y="780"/>
      <point x="463" y="780" type="curve"/>
      <point x="224" y="780"/>
      <point x="47" y="614"/>
      <point x="47" y="371" type="curve" smooth="yes"/>
      <point x="47" y="137"/>
      <point x="211" y="-10"/>
      <point x="451" y="-10" type="curve" smooth="yes"/>
      <point x="636" y="-10"/>
      <point x="689" y="83"/>
      <point x="787" y="83" type="curve"/>
      <point x="787" y="216" type="line" smooth="yes"/>
      <point x="787" y="291"/>
      <point x="809" y="315"/>
      <point x="874" y="315" type="curve"/>
      <point x="874" y="355" type="line"/>
      <point x="534" y="355" type="line"/>
      <point x="534" y="315" type="line"/>
      <point x="609" y="309"/>
      <point x="639" y="282"/>
      <point x="639" y="221" type="curve" smooth="yes"/>
      <point x="639" y="119"/>
      <point x="582" y="57"/>
      <point x="470" y="57" type="curve" smooth="yes"/>
      <point x="314" y="57"/>
      <point x="233" y="172"/>
      <point x="233" y="379" type="curve" smooth="yes"/>
      <point x="233" y="590"/>
      <point x="323" y="715"/>
    </contour>
    <contour>
      <point x="470" y="830" type="move" name="topcap"/>
    </contour>
    <contour>
      <point x="454" y="0" type="move" name="bottom"/>
    </contour>
  </outline>
</glyph>
<glyph name="H" format="1">
  <advance width="991"/>
  <unicode hex="0048"/>
  <outline>
    <contour>
      <point x="851" y="161" type="line" smooth="yes"/>
      <point x="851" y="59"/>
      <point x="866" y="43"/>
      <point x="956" y="40" type="curve"/>
      <point x="956" y="0" type="line"/>
      <point x="566" y="0" type="line"/>
      <point x="566" y="40" type="line"/>
      <point x="664" y="43"/>
      <point x="681" y="60"/>
      <point x="681" y="154" type="curve" smooth="yes"/>
      <point x="681" y="363" type="line"/>
      <point x="310" y="363" type="line"/>
      <point x="310" y="161" type="line" smooth="yes"/>
      <point x="310" y="59"/>
      <point x="326" y="43"/>
      <point x="424" y="40" type="curve"/>
      <point x="424" y="0" type="line"/>
      <point x="35" y="0" type="line"/>
      <point x="35" y="40" type="line"/>
      <point x="125" y="43"/>
      <point x="140" y="60"/>
      <point x="140" y="154" type="curve" smooth="yes"/>
      <point x="140" y="616" type="line" smooth="yes"/>
      <point x="140" y="709"/>
      <point x="127" y="726"/>
      <point x="46" y="730" type="curve"/>
      <point x="46" y="770" type="line"/>
      <point x="414" y="770" type="line"/>
      <point x="414" y="730" type="line"/>
      <point x="324" y="727"/>
      <point x="310" y="710"/>
      <point x="310" y="609" type="curve" smooth="yes"/>
      <point x="310" y="425" type="line"/>
      <point x="681" y="425" type="line"/>
      <point x="681" y="616" type="line" smooth="yes"/>
      <point x="681" y="709"/>
      <point x="666" y="726"/>
      <point x="576" y="730" type="curve"/>
      <point x="576" y="770" type="line"/>
      <point x="945" y="770" type="line"/>
      <point x="945" y="730" type="line"/>
      <point x="864" y="727"/>
      <point x="851" y="710"/>
      <point x="851" y="609" type="curve" smooth="yes"/>
    </contour>
    <contour>
      <point x="521" y="830" type="move" name="topcap"/>
    </contour>
    <contour>
      <point x="521" y="0" type="move" name="bottom"/>
    </contour>
  </outline>
</glyph>
<glyph name="I" format="1">
  <advance width="452"/>
  <unicode hex="0049"/>
  <outline>
    <contour>
      <point x="311" y="586" type="line" smooth="yes"/>
      <point x="311" y="699"/>
      <point x="324" y="726"/>
      <point x="406" y="730" type="curve"/>
      <point x="406" y="770" type="line"/>
      <point x="46" y="770" type="line"/>
      <point x="46" y="730" type="line"/>
      <point x="128" y="726"/>
      <point x="141" y="699"/>
      <point x="141" y="586" type="curve" smooth="yes"/>
      <point x="141" y="184" type="line" smooth="yes"/>
      <point x="141" y="60"/>
      <point x="126" y="43"/>
      <point x="36" y="40" type="curve"/>
      <point x="36" y="0" type="line"/>
      <point x="416" y="0" type="line"/>
      <point x="416" y="40" type="line"/>
      <point x="326" y="43"/>
      <point x="311" y="60"/>
      <point x="311" y="184" type="curve" smooth="yes"/>
    </contour>
    <contour>
      <point x="238" y="830" type="move" name="topcap"/>
    </contour>
    <contour>
      <point x="238" y="0" type="move" name="bottom"/>
    </contour>
  </outline>
</glyph>
<glyph name="J" format="1">
  <advance width="430"/>
  <unicode hex="004A"/>
  <outline>
    <contour>
      <point x="130" y="616" type="line" smooth="yes"/>
      <point x="130" y="709"/>
      <point x="117" y="726"/>
      <point x="35" y="730" type="curve"/>
      <point x="35" y="770" type="line"/>
      <point x="395" y="770" type="line"/>
      <point x="395" y="730" type="line"/>
      <point x="312" y="727"/>
      <point x="300" y="710"/>
      <point x="300" y="609" type="curve" smooth="yes"/>
      <point x="300" y="-2" type="line" smooth="yes"/>
      <point x="300" y="-169"/>
      <point x="202" y="-260"/>
      <point x="22" y="-260" type="curve" smooth="yes"/>
      <point x="-98" y="-260"/>
      <point x="-168" y="-214"/>
      <point x="-168" y="-150" type="curve" smooth="yes"/>
      <point x="-168" y="-112"/>
      <point x="-140" y="-90"/>
      <point x="-104" y="-90" type="curve" smooth="yes"/>
      <point x="-74" y="-90"/>
      <point x="-60" y="-103"/>
      <point x="-34" y="-147" type="curve" smooth="yes"/>
      <point x="-8" y="-191"/>
      <point x="10" y="-202"/>
      <point x="41" y="-202" type="curve" smooth="yes"/>
      <point x="98" y="-202"/>
      <point x="130" y="-136"/>
      <point x="130" y="-23" type="curve" smooth="yes"/>
    </contour>
    <contour>
      <point x="203" y="830" type="move" name="topcap"/>
    </contour>
  </outline>
</glyph>
<glyph name="K" format="1">
  <advance width="832"/>
  <unicode hex="004B"/>
  <outline>
    <contour>
      <point x="310" y="293" type="line"/>
      <point x="310" y="161" type="line" smooth="yes"/>
      <point x="310" y="60"/>
      <point x="323" y="43"/>
      <point x="405" y="40" type="curve"/>
      <point x="405" y="0" type="line"/>
      <point x="35" y="0" type="line"/>
      <point x="35" y="40" type="line"/>
      <point x="124" y="43"/>
      <point x="140" y="60"/>
      <point x="140" y="154" type="curve" smooth="yes"/>
      <point x="140" y="616" type="line" smooth="yes"/>
      <point x="140" y="708"/>
      <point x="126" y="726"/>
      <point x="46" y="730" type="curve"/>
      <point x="46" y="770" type="line"/>
      <point x="414" y="770" type="line"/>
      <point x="414" y="730" type="line"/>
      <point x="324" y="727"/>
      <point x="310" y="710"/>
      <point x="310" y="609" type="curve" smooth="yes"/>
      <point x="310" y="387" type="line"/>
      <point x="569" y="665" type="line" smooth="yes"/>
      <point x="584" y="681"/>
      <point x="592" y="695"/>
      <point x="592" y="705" type="curve" smooth="yes"/>
      <point x="592" y="719"/>
      <point x="576" y="730"/>
      <point x="524" y="730" type="curve"/>
      <point x="524" y="770" type="line"/>
      <point x="797" y="770" type="line"/>
      <point x="797" y="731" type="line"/>
      <point x="738" y="729"/>
      <point x="718" y="719"/>
      <point x="638" y="636" type="curve" smooth="yes"/>
    </contour>
    <contour>
      <point x="478" y="483" type="line"/>
      <point x="766" y="92" type="line" smooth="yes"/>
      <point x="793" y="56"/>
      <point x="810" y="40"/>
      <point x="853" y="40" type="curve"/>
      <point x="853" y="0" type="line"/>
      <point x="483" y="0" type="line"/>
      <point x="483" y="40" type="line"/>
      <point x="524" y="40"/>
      <point x="544" y="50"/>
      <point x="544" y="71" type="curve" smooth="yes"/>
      <point x="544" y="86"/>
      <point x="536" y="103"/>
      <point x="519" y="127" type="curve" smooth="yes"/>
      <point x="348" y="378" type="line"/>
    </contour>
    <contour>
      <point x="461" y="0" type="move" name="bottom"/>
    </contour>
  </outline>
</glyph>
<glyph name="L" format="1">
  <advance width="778"/>
  <unicode hex="004C"/>
  <outline>
    <contour>
      <point x="747" y="0" type="line"/>
      <point x="35" y="0" type="line"/>
      <point x="35" y="40" type="line"/>
      <point x="124" y="43"/>
      <point x="140" y="60"/>
      <point x="140" y="154" type="curve" smooth="yes"/>
      <point x="140" y="616" type="line" smooth="yes"/>
      <point x="140" y="709"/>
      <point x="126" y="726"/>
      <point x="46" y="730" type="curve"/>
      <point x="46" y="770" type="line"/>
      <point x="414" y="770" type="line"/>
      <point x="414" y="730" type="line"/>
      <point x="324" y="727"/>
      <point x="310" y="710"/>
      <point x="310" y="609" type="curve" smooth="yes"/>
      <point x="310" y="190" type="line" smooth="yes"/>
      <point x="310" y="78"/>
      <point x="352" y="55"/>
      <point x="491" y="55" type="curve" smooth="yes"/>
      <point x="645" y="55"/>
      <point x="693" y="87"/>
      <point x="723" y="227" type="curve"/>
      <point x="763" y="227" type="line"/>
    </contour>
    <contour>
      <point x="249" y="830" type="move" name="topcap"/>
    </contour>
    <contour>
      <point x="433" y="0" type="move" name="bottom"/>
    </contour>
  </outline>
</glyph>
<glyph name="P" format="1">
  <advance width="755"/>
  <unicode hex="0050"/>
  <outline>
    <contour>
      <point x="738" y="554" type="curve"/>
      <point x="738" y="696"/>
      <point x="632" y="770"/>
      <point x="415" y="770" type="curve" smooth="yes"/>
      <point x="46" y="770" type="line"/>
      <point x="46" y="730" type="line"/>
      <point x="127" y="726"/>
      <point x="140" y="709"/>
      <point x="140" y="616" type="curve" smooth="yes"/>
      <point x="140" y="154" type="line" smooth="yes"/>
      <point x="140" y="60"/>
      <point x="124" y="43"/>
      <point x="35" y="40" type="curve"/>
      <point x="35" y="0" type="line"/>
      <point x="455" y="0" type="line"/>
      <point x="455" y="40" type="line"/>
      <point x="331" y="40"/>
      <point x="310" y="57"/>
      <point x="310" y="159" type="curve" smooth="yes"/>
      <point x="310" y="325" type="line"/>
      <point x="395" y="325" type="line" smooth="yes"/>
      <point x="622" y="325"/>
      <point x="738" y="413"/>
    </contour>
    <contour>
      <point x="310" y="697" type="line" smooth="yes"/>
      <point x="310" y="707"/>
      <point x="317" y="714"/>
      <point x="328" y="714" type="curve" smooth="yes"/>
      <point x="395" y="714" type="line"/>
      <point x="512" y="714"/>
      <point x="552" y="657"/>
      <point x="552" y="550" type="curve"/>
      <point x="552" y="446"/>
      <point x="503" y="385"/>
      <point x="375" y="385" type="curve" smooth="yes"/>
      <point x="310" y="385" type="line"/>
    </contour>
  </outline>
</glyph>
<glyph name="Q" format="1">
  <advance width="937"/>
  <unicode hex="0051"/>
  <outline>
    <contour>
      <point x="762" y="-270" type="curve"/>
      <point x="867" y="-270"/>
      <point x="927" y="-200"/>
      <point x="927" y="-115" type="curve" smooth="yes"/>
      <point x="927" y="-104"/>
      <point x="926" y="-89"/>
      <point x="923" y="-72" type="curve"/>
      <point x="886" y="-72" type="line"/>
      <point x="866" y="-125"/>
      <point x="835" y="-136"/>
      <point x="782" y="-136" type="curve"/>
      <point x="690" y="-136"/>
      <point x="570" y="-86"/>
      <point x="456" y="-86" type="curve" smooth="yes"/>
      <point x="443" y="-86"/>
      <point x="426" y="-87"/>
      <point x="417" y="-88" type="curve"/>
      <point x="417" y="-84" type="line"/>
      <point x="442" y="-74"/>
      <point x="475" y="-61"/>
      <point x="534" y="-41" type="curve" smooth="yes"/>
      <point x="799" y="49"/>
      <point x="904" y="181"/>
      <point x="904" y="378" type="curve" smooth="yes"/>
      <point x="904" y="603"/>
      <point x="713" y="780"/>
      <point x="471" y="780" type="curve" smooth="yes"/>
      <point x="230" y="780"/>
      <point x="46" y="605"/>
      <point x="46" y="377" type="curve" smooth="yes"/>
      <point x="46" y="165"/>
      <point x="209" y="-9"/>
      <point x="423" y="-27" type="curve"/>
      <point x="285" y="-98" type="line" smooth="yes"/>
      <point x="228" y="-127"/>
      <point x="212" y="-144"/>
      <point x="212" y="-167" type="curve" smooth="yes"/>
      <point x="212" y="-183"/>
      <point x="226" y="-195"/>
      <point x="249" y="-195" type="curve" smooth="yes"/>
      <point x="300" y="-195"/>
      <point x="325" y="-144"/>
      <point x="396" y="-144" type="curve" smooth="yes"/>
      <point x="520" y="-144"/>
      <point x="594" y="-270"/>
    </contour>
    <contour>
      <point x="471" y="30" type="curve" smooth="yes"/>
      <point x="316" y="30"/>
      <point x="236" y="162"/>
      <point x="236" y="375" type="curve" smooth="yes"/>
      <point x="236" y="586"/>
      <point x="315" y="715"/>
      <point x="471" y="715" type="curve" smooth="yes"/>
      <point x="629" y="715"/>
      <point x="714" y="583"/>
      <point x="714" y="375" type="curve" smooth="yes"/>
      <point x="714" y="166"/>
      <point x="628" y="30"/>
    </contour>
  </outline>
</glyph>
<glyph name="R" format="1">
  <advance width="838"/>
  <unicode hex="0052"/>
  <outline>
    <contour>
      <point x="737" y="564" type="curve" smooth="yes"/>
      <point x="737" y="698"/>
      <point x="624" y="770"/>
      <point x="415" y="770" type="curve"/>
      <point x="46" y="770" type="line"/>
      <point x="46" y="730" type="line"/>
      <point x="128" y="726"/>
      <point x="140" y="709"/>
      <point x="140" y="616" type="curve" smooth="yes"/>
      <point x="140" y="154" type="line" smooth="yes"/>
      <point x="140" y="60"/>
      <point x="123" y="40"/>
      <point x="35" y="40" type="curve"/>
      <point x="35" y="0" type="line"/>
      <point x="455" y="0" type="line"/>
      <point x="455" y="40" type="line"/>
      <point x="328" y="40"/>
      <point x="310" y="60"/>
      <point x="310" y="159" type="curve" smooth="yes"/>
      <point x="310" y="355" type="line"/>
      <point x="331" y="355"/>
      <point x="345" y="346"/>
      <point x="376" y="304" type="curve" smooth="yes"/>
      <point x="601" y="0" type="line"/>
      <point x="873" y="0" type="line"/>
      <point x="873" y="40" type="line"/>
      <point x="828" y="40"/>
      <point x="781" y="60"/>
      <point x="749" y="97" type="curve" smooth="yes"/>
      <point x="517" y="363" type="line"/>
      <point x="667" y="383"/>
      <point x="737" y="455"/>
    </contour>
    <contour>
      <point x="310" y="697" type="line" smooth="yes"/>
      <point x="310" y="707"/>
      <point x="317" y="714"/>
      <point x="328" y="714" type="curve" smooth="yes"/>
      <point x="405" y="714" type="line"/>
      <point x="507" y="714"/>
      <point x="552" y="653"/>
      <point x="552" y="568" type="curve" smooth="yes"/>
      <point x="552" y="457"/>
      <point x="500" y="415"/>
      <point x="375" y="415" type="curve" smooth="yes"/>
      <point x="310" y="415" type="line"/>
    </contour>
    <contour>
      <point x="422" y="830" type="move" name="topcap"/>
    </contour>
    <contour>
      <point x="461" y="0" type="move" name="bottom"/>
    </contour>
  </outline>
</glyph>
<glyph name="S" format="1">
  <advance width="682"/>
  <unicode hex="0053"/>
  <outline>
    <contour>
      <point x="73" y="0" type="line"/>
      <point x="97" y="0" type="line"/>
      <point x="117" y="60" type="line"/>
      <point x="175" y="19"/>
      <point x="245" y="-10"/>
      <point x="344" y="-10" type="curve"/>
      <point x="499" y="-10"/>
      <point x="637" y="76"/>
      <point x="637" y="219" type="curve" smooth="yes"/>
      <point x="637" y="313"/>
      <point x="597" y="394"/>
      <point x="447" y="457" type="curve" smooth="yes"/>
      <point x="352" y="497" type="line" smooth="yes"/>
      <point x="231" y="548"/>
      <point x="200" y="568"/>
      <point x="200" y="626" type="curve"/>
      <point x="200" y="686"/>
      <point x="260" y="719"/>
      <point x="329" y="719" type="curve" smooth="yes"/>
      <point x="418" y="719"/>
      <point x="490" y="659"/>
      <point x="522" y="550" type="curve"/>
      <point x="561" y="550" type="line"/>
      <point x="550" y="766" type="line"/>
      <point x="526" y="766" type="line"/>
      <point x="508" y="716" type="line"/>
      <point x="450" y="759"/>
      <point x="391" y="780"/>
      <point x="323" y="780" type="curve" smooth="yes"/>
      <point x="169" y="780"/>
      <point x="54" y="688"/>
      <point x="54" y="555" type="curve" smooth="yes"/>
      <point x="54" y="465"/>
      <point x="95" y="399"/>
      <point x="224" y="343" type="curve" smooth="yes"/>
      <point x="369" y="280" type="line" smooth="yes"/>
      <point x="457" y="242"/>
      <point x="490" y="212"/>
      <point x="490" y="162" type="curve"/>
      <point x="490" y="88"/>
      <point x="434" y="51"/>
      <point x="326" y="51" type="curve" smooth="yes"/>
      <point x="206" y="51"/>
      <point x="115" y="129"/>
      <point x="97" y="255" type="curve"/>
      <point x="58" y="255" type="line"/>
    </contour>
    <contour>
      <point x="324" y="830" type="move" name="topcap"/>
    </contour>
    <contour>
      <point x="354" y="-51" type="move" name="bottom"/>
    </contour>
  </outline>
</glyph>
<glyph name="T" format="1">
  <advance width="788"/>
  <unicode hex="0054"/>
  <outline>
    <contour>
      <point x="766" y="770" type="line"/>
      <point x="22" y="770" type="line"/>
      <point x="12" y="550" type="line"/>
      <point x="51" y="550" type="line"/>
      <point x="65" y="712"/>
      <point x="138" y="718"/>
      <point x="215" y="718" type="curve"/>
      <point x="283" y="718"/>
      <point x="307" y="711"/>
      <point x="307" y="677" type="curve"/>
      <point x="307" y="163" type="line" smooth="yes"/>
      <point x="307" y="77"/>
      <point x="289" y="44"/>
      <point x="170" y="40" type="curve"/>
      <point x="170" y="0" type="line"/>
      <point x="612" y="0" type="line"/>
      <point x="612" y="40" type="line"/>
      <point x="494" y="44"/>
      <point x="477" y="77"/>
      <point x="477" y="163" type="curve" smooth="yes"/>
      <point x="477" y="677" type="line"/>
      <point x="477" y="711"/>
      <point x="502" y="718"/>
      <point x="585" y="718" type="curve"/>
      <point x="672" y="718"/>
      <point x="715" y="682"/>
      <point x="733" y="550" type="curve"/>
      <point x="776" y="550" type="line"/>
    </contour>
    <contour>
      <point x="393" y="830" type="move" name="topcap"/>
    </contour>
    <contour>
      <point x="393" y="0" type="move" name="bottom"/>
    </contour>
  </outline>
</glyph>
<glyph name="U" format="1">
  <advance width="893"/>
  <unicode hex="0055"/>
  <outline>
    <contour>
      <point x="770" y="522" type="line" smooth="yes"/>
      <point x="770" y="633"/>
      <point x="777" y="680"/>
      <point x="797" y="705" type="curve" smooth="yes"/>
      <point x="812" y="723"/>
      <point x="836" y="730"/>
      <point x="885" y="730" type="curve"/>
      <point x="885" y="770" type="line"/>
      <point x="561" y="770" type="line"/>
      <point x="561" y="730" type="line"/>
      <point x="613" y="730"/>
      <point x="640" y="722"/>
      <point x="658" y="703" type="curve" smooth="yes"/>
      <point x="680" y="678"/>
      <point x="687" y="633"/>
      <point x="687" y="522" type="curve" smooth="yes"/>
      <point x="687" y="291" type="line" smooth="yes"/>
      <point x="687" y="138"/>
      <point x="619" y="67"/>
      <point x="491" y="67" type="curve"/>
      <point x="357" y="67"/>
      <point x="293" y="134"/>
      <point x="293" y="295" type="curve"/>
      <point x="293" y="547" type="line" smooth="yes"/>
      <point x="293" y="651"/>
      <point x="298" y="687"/>
      <point x="316" y="708" type="curve" smooth="yes"/>
      <point x="330" y="725"/>
      <point x="353" y="730"/>
      <point x="409" y="730" type="curve"/>
      <point x="409" y="770" type="line"/>
      <point x="27" y="770" type="line"/>
      <point x="27" y="730" type="line"/>
      <point x="74" y="730"/>
      <point x="93" y="724"/>
      <point x="105" y="706" type="curve" smooth="yes"/>
      <point x="119" y="685"/>
      <point x="123" y="650"/>
      <point x="123" y="547" type="curve" smooth="yes"/>
      <point x="123" y="283" type="line"/>
      <point x="123" y="76"/>
      <point x="236" y="-10"/>
      <point x="456" y="-10" type="curve"/>
      <point x="663" y="-10"/>
      <point x="770" y="84"/>
      <point x="770" y="310" type="curve" smooth="yes"/>
    </contour>
    <contour>
      <point x="495" y="830" type="move" name="topcap"/>
    </contour>
    <contour>
      <point x="487" y="0" type="move" name="bottom"/>
    </contour>
  </outline>
</glyph>
<glyph name="V" format="1">
  <advance width="850"/>
  <unicode hex="0056"/>
  <outline>
    <contour>
      <point x="303" y="610" type="line" smooth="yes"/>
      <point x="288" y="646"/>
      <point x="283" y="667"/>
      <point x="283" y="685" type="curve" smooth="yes"/>
      <point x="283" y="714"/>
      <point x="302" y="727"/>
      <point x="372" y="729" type="curve"/>
      <point x="372" y="770" type="line"/>
      <point x="-31" y="770" type="line"/>
      <point x="-31" y="729" type="line"/>
      <point x="46" y="724"/>
      <point x="72" y="698"/>
      <point x="129" y="574" type="curve" smooth="yes"/>
      <point x="397" y="-10" type="line"/>
      <point x="471" y="-10" type="line"/>
      <point x="750" y="649" type="line" smooth="yes"/>
      <point x="773" y="704"/>
      <point x="809" y="730"/>
      <point x="865" y="730" type="curve"/>
      <point x="865" y="770" type="line"/>
      <point x="571" y="770" type="line"/>
      <point x="571" y="730" type="line"/>
      <point x="639" y="730"/>
      <point x="664" y="720"/>
      <point x="664" y="688" type="curve" smooth="yes"/>
      <point x="664" y="656"/>
      <point x="646" y="601"/>
      <point x="607" y="509" type="curve" smooth="yes"/>
      <point x="475" y="201" type="line"/>
    </contour>
  </outline>
</glyph>
<glyph name="W" format="1">
  <advance width="1262"/>
  <unicode hex="0057"/>
  <outline>
    <contour>
      <point x="796" y="597" type="line" smooth="yes"/>
      <point x="785" y="632"/>
      <point x="779" y="658"/>
      <point x="779" y="678" type="curve" smooth="yes"/>
      <point x="779" y="718"/>
      <point x="806" y="729"/>
      <point x="861" y="729" type="curve"/>
      <point x="861" y="770" type="line"/>
      <point x="493" y="770" type="line"/>
      <point x="493" y="729" type="line"/>
      <point x="556" y="722"/>
      <point x="582" y="709"/>
      <point x="608" y="636" type="curve"/>
      <point x="446" y="214" type="line"/>
      <point x="306" y="597" type="line" smooth="yes"/>
      <point x="286" y="653"/>
      <point x="281" y="667"/>
      <point x="281" y="688" type="curve" smooth="yes"/>
      <point x="281" y="717"/>
      <point x="303" y="729"/>
      <point x="370" y="729" type="curve"/>
      <point x="370" y="770" type="line"/>
      <point x="-28" y="770" type="line"/>
      <point x="-28" y="729" type="line"/>
      <point x="49" y="729"/>
      <point x="76" y="709"/>
      <point x="130" y="574" type="curve" smooth="yes"/>
      <point x="362" y="-10" type="line"/>
      <point x="445" y="-10" type="line"/>
      <point x="643" y="518" type="line"/>
      <point x="832" y="-10" type="line"/>
      <point x="921" y="-10" type="line"/>
      <point x="1162" y="649" type="line" smooth="yes"/>
      <point x="1183" y="707"/>
      <point x="1227" y="730"/>
      <point x="1277" y="730" type="curve"/>
      <point x="1277" y="770" type="line"/>
      <point x="993" y="770" type="line"/>
      <point x="993" y="730" type="line"/>
      <point x="1053" y="730"/>
      <point x="1081" y="721"/>
      <point x="1081" y="680" type="curve" smooth="yes"/>
      <point x="1081" y="657"/>
      <point x="1074" y="625"/>
      <point x="1057" y="580" type="curve" smooth="yes"/>
      <point x="922" y="214" type="line"/>
    </contour>
    <contour>
      <point x="648" y="830" type="move" name="topcap"/>
    </contour>
  </outline>
</glyph>
<glyph name="X" format="1">
  <advance width="870"/>
  <unicode hex="0058"/>
  <outline>
    <contour>
      <point x="387" y="334" type="line"/>
      <point x="511" y="157" type="line" smooth="yes"/>
      <point x="553" y="98"/>
      <point x="564" y="82"/>
      <point x="564" y="66" type="curve" smooth="yes"/>
      <point x="564" y="50"/>
      <point x="554" y="40"/>
      <point x="486" y="40" type="curve"/>
      <point x="486" y="0" type="line"/>
      <point x="881" y="0" type="line"/>
      <point x="881" y="40" type="line"/>
      <point x="827" y="40"/>
      <point x="781" y="66"/>
      <point x="748" y="111" type="curve" smooth="yes"/>
      <point x="503" y="448" type="line"/>
      <point x="491" y="461" type="line"/>
      <point x="370" y="627" type="line" smooth="yes"/>
      <point x="350" y="654"/>
      <point x="340" y="677"/>
      <point x="340" y="694" type="curve" smooth="yes"/>
      <point x="340" y="718"/>
      <point x="360" y="730"/>
      <point x="408" y="730" type="curve"/>
      <point x="408" y="770" type="line"/>
      <point x="10" y="770" type="line"/>
      <point x="10" y="730" type="line"/>
      <point x="55" y="730"/>
      <point x="89" y="719"/>
      <point x="125" y="673" type="curve" smooth="yes"/>
      <point x="376" y="347" type="line"/>
    </contour>
    <contour>
      <point x="377" y="394" type="line"/>
      <point x="139" y="104" type="line" smooth="yes"/>
      <point x="95" y="51"/>
      <point x="71" y="40"/>
      <point x="-2" y="40" type="curve"/>
      <point x="-2" y="0" type="line"/>
      <point x="305" y="0" type="line"/>
      <point x="305" y="40" type="line"/>
      <point x="244" y="40"/>
      <point x="219" y="47"/>
      <point x="219" y="68" type="curve" smooth="yes"/>
      <point x="219" y="99"/>
      <point x="277" y="153"/>
      <point x="335" y="224" type="curve" smooth="yes"/>
      <point x="423" y="332" type="line"/>
    </contour>
    <contour>
      <point x="502" y="401" type="line"/>
      <point x="744" y="700" type="line" smooth="yes"/>
      <point x="764" y="724"/>
      <point x="792" y="730"/>
      <point x="847" y="730" type="curve"/>
      <point x="847" y="770" type="line"/>
      <point x="549" y="770" type="line"/>
      <point x="549" y="730" type="line"/>
      <point x="618" y="730"/>
      <point x="630" y="719"/>
      <point x="630" y="699" type="curve" smooth="yes"/>
      <point x="630" y="682"/>
      <point x="622" y="663"/>
      <point x="602" y="639" type="curve" smooth="yes"/>
      <point x="454" y="462" type="line"/>
    </contour>
  </outline>
</glyph>
<glyph name="Y" format="1">
  <advance width="788"/>
  <unicode hex="0059"/>
  <outline>
    <contour>
      <point x="101" y="644" type="line" smooth="yes"/>
      <point x="61" y="714"/>
      <point x="38" y="730"/>
      <point x="-14" y="730" type="curve"/>
      <point x="-14" y="770" type="line"/>
      <point x="350" y="770" type="line"/>
      <point x="350" y="730" type="line"/>
      <point x="294" y="730"/>
      <point x="274" y="719"/>
      <point x="274" y="698" type="curve" smooth="yes"/>
      <point x="274" y="685"/>
      <point x="282" y="668"/>
      <point x="299" y="636" type="curve" smooth="yes"/>
      <point x="442" y="363" type="line"/>
      <point x="446" y="363" type="line"/>
      <point x="572" y="573" type="line" smooth="yes"/>
      <point x="616" y="647"/>
      <point x="631" y="679"/>
      <point x="631" y="700" type="curve" smooth="yes"/>
      <point x="631" y="723"/>
      <point x="614" y="730"/>
      <point x="558" y="730" type="curve"/>
      <point x="558" y="770" type="line"/>
      <point x="809" y="770" type="line"/>
      <point x="809" y="730" type="line"/>
      <point x="751" y="730"/>
      <point x="721" y="700"/>
      <point x="629" y="543" type="curve" smooth="yes"/>
      <point x="483" y="293" type="line"/>
      <point x="483" y="191" type="line" smooth="yes"/>
      <point x="483" y="58"/>
      <point x="502" y="40"/>
      <point x="587" y="40" type="curve"/>
      <point x="587" y="0" type="line"/>
      <point x="208" y="0" type="line"/>
      <point x="208" y="40" type="line"/>
      <point x="291" y="40"/>
      <point x="313" y="58"/>
      <point x="313" y="184" type="curve" smooth="yes"/>
      <point x="313" y="276" type="line"/>
    </contour>
    <contour>
      <point x="419" y="830" type="move" name="topcap"/>
    </contour>
  </outline>
</glyph>
<glyph name="Z" format="1">
  <advance width="812"/>
  <unicode hex="005A"/>
  <outline>
    <contour>
      <point x="775" y="255" type="line"/>
      <point x="729" y="255" type="line"/>
      <point x="704" y="99"/>
      <point x="674" y="56"/>
      <point x="530" y="56" type="curve" smooth="yes"/>
      <point x="244" y="56" type="line"/>
      <point x="742" y="727" type="line"/>
      <point x="742" y="770" type="line"/>
      <point x="79" y="770" type="line"/>
      <point x="63" y="566" type="line"/>
      <point x="102" y="566" type="line"/>
      <point x="121" y="670"/>
      <point x="166" y="718"/>
      <point x="265" y="718" type="curve" smooth="yes"/>
      <point x="518" y="718" type="line"/>
      <point x="15" y="43" type="line"/>
      <point x="15" y="0" type="line"/>
      <point x="762" y="0" type="line"/>
    </contour>
    <contour>
      <point x="467" y="830" type="move" name="topcap"/>
    </contour>
    <contour>
      <point x="463" y="0" type="move" name="bottom"/>
    </contour>
  </outline>
</glyph>
<glyph name="bracketleft" format="1">
  <advance width="412"/>
  <unicode hex="005B"/>
  <outline>
    <contour>
      <point x="399" y="768" type="line"/>
      <point x="399" y="820" type="line"/>
      <point x="96" y="820" type="line"/>
      <point x="96" y="-150" type="line"/>
      <point x="399" y="-150" type="line"/>
      <point x="399" y="-98" type="line"/>
      <point x="240" y="-98" type="line"/>
      <point x="240" y="768" type="line"/>
    </contour>
  </outline>
</glyph>
<glyph name="a" format="1">
  <advance width="604"/>
  <unicode hex="0061"/>
  <outline>
    <contour>
      <point x="344" y="190" type="line" smooth="yes"/>
      <point x="344" y="131"/>
      <point x="306" y="84"/>
      <point x="251" y="84" type="curve"/>
      <point x="209" y="84"/>
      <point x="187" y="111"/>
      <point x="187" y="150" type="curve" smooth="yes"/>
      <point x="187" y="197"/>
      <point x="219" y="246"/>
      <point x="344" y="275" type="curve"/>
    </contour>
    <contour>
      <point x="213" y="289" type="line" smooth="yes"/>
      <point x="77" y="249"/>
      <point x="34" y="197"/>
      <point x="34" y="120" type="curve"/>
      <point x="34" y="33"/>
      <point x="96" y="-9"/>
      <point x="176" y="-9" type="curve" smooth="yes"/>
      <point x="254" y="-9"/>
      <point x="315" y="28"/>
      <point x="353" y="97" type="curve"/>
      <point x="358" y="97" type="line"/>
      <point x="358" y="29"/>
      <point x="397" y="-10"/>
      <point x="467" y="-10" type="curve" smooth="yes"/>
      <point x="521" y="-10"/>
      <point x="559" y="11"/>
      <point x="592" y="44" type="curve"/>
      <point x="577" y="73" type="line"/>
      <point x="569" y="68"/>
      <point x="555" y="60"/>
      <point x="542" y="60" type="curve" smooth="yes"/>
      <point x="522" y="60"/>
      <point x="508" y="72"/>
      <point x="508" y="109" type="curve"/>
      <point x="508" y="344" type="line"/>
      <point x="508" y="482"/>
      <point x="430" y="540"/>
      <point x="280" y="540" type="curve" smooth="yes"/>
      <point x="145" y="540"/>
      <point x="59" y="498"/>
      <point x="59" y="426" type="curve"/>
      <point x="59" y="384"/>
      <point x="90" y="361"/>
      <point x="127" y="361" type="curve" smooth="yes"/>
      <point x="170" y="361"/>
      <point x="196" y="391"/>
      <point x="208" y="424" type="curve" smooth="yes"/>
      <point x="225" y="472"/>
      <point x="232" y="493"/>
      <point x="270" y="493" type="curve" smooth="yes"/>
      <point x="327" y="493"/>
      <point x="344" y="457"/>
      <point x="344" y="380" type="curve" smooth="yes"/>
      <point x="344" y="328" type="line"/>
    </contour>
    <contour>
      <point x="253.0" y="651.0" type="move" name="top"/>
    </contour>
    <contour>
      <point x="443.0" y="0.0" type="move" name="bottom"/>
    </contour>
  </outline>
</glyph>
<glyph name="b" format="1">
  <advance width="679"/>
  <unicode hex="0062"/>
  <outline>
    <contour>
      <point x="248" y="830" type="line"/>
      <point x="-1" y="790" type="line"/>
      <point x="-1" y="756" type="line"/>
      <point x="80" y="743"/>
      <point x="85" y="734"/>
      <point x="85" y="634" type="curve" smooth="yes"/>
      <point x="85" y="0" type="line"/>
      <point x="119" y="0" type="line"/>
      <point x="220" y="67" type="line"/>
      <point x="277" y="10"/>
      <point x="328" y="-11"/>
      <point x="401" y="-11" type="curve" smooth="yes"/>
      <point x="543" y="-11"/>
      <point x="641" y="97"/>
      <point x="641" y="266" type="curve" smooth="yes"/>
      <point x="641" y="429"/>
      <point x="553" y="540"/>
      <point x="412" y="540" type="curve" smooth="yes"/>
      <point x="343" y="540"/>
      <point x="286" y="511"/>
      <point x="252" y="461" type="curve"/>
      <point x="248" y="461" type="line"/>
    </contour>
    <contour>
      <point x="250" y="282" type="line" smooth="yes"/>
      <point x="250" y="405"/>
      <point x="278" y="477"/>
      <point x="358" y="477" type="curve" smooth="yes"/>
      <point x="439" y="477"/>
      <point x="465" y="402"/>
      <point x="465" y="264" type="curve" smooth="yes"/>
      <point x="465" y="122"/>
      <point x="437" y="47"/>
      <point x="358" y="47" type="curve" smooth="yes"/>
      <point x="279" y="47"/>
      <point x="250" y="120"/>
      <point x="250" y="219" type="curve" smooth="yes"/>
    </contour>
  </outline>
</glyph>
<glyph name="c" format="1">
  <advance width="571"/>
  <unicode hex="0063"/>
  <outline>
    <contour>
      <point x="512" y="121" type="line"/>
      <point x="463" y="83"/>
      <point x="415" y="61"/>
      <point x="352" y="61" type="curve"/>
      <point x="246" y="61"/>
      <point x="214" y="139"/>
      <point x="214" y="277" type="curve" smooth="yes"/>
      <point x="214" y="406"/>
      <point x="238" y="482"/>
      <point x="305" y="482" type="curve"/>
      <point x="340" y="482"/>
      <point x="361" y="475"/>
      <point x="390" y="410" type="curve" smooth="yes"/>
      <point x="413" y="359"/>
      <point x="444" y="349"/>
      <point x="475" y="349" type="curve" smooth="yes"/>
      <point x="517" y="349"/>
      <point x="543" y="379"/>
      <point x="543" y="418" type="curve"/>
      <point x="543" y="489"/>
      <point x="447" y="540"/>
      <point x="327" y="540" type="curve" smooth="yes"/>
      <point x="148" y="540"/>
      <point x="39" y="428"/>
      <point x="39" y="263" type="curve" smooth="yes"/>
      <point x="39" y="93"/>
      <point x="141" y="-5"/>
      <point x="311" y="-5" type="curve" smooth="yes"/>
      <point x="398" y="-5"/>
      <point x="483" y="27"/>
      <point x="538" y="83" type="curve"/>
    </contour>
    <contour>
      <point x="320" y="651" type="move" name="top"/>
    </contour>
    <contour>
      <point x="293" y="0" type="move" name="bottom"/>
    </contour>
  </outline>
</glyph>
<glyph name="d" format="1">
  <advance width="709"/>
  <unicode hex="0064"/>
  <outline>
    <contour>
      <point x="481" y="-10" type="line"/>
      <point x="686" y="1" type="line"/>
      <point x="686" y="40" type="line"/>
      <point x="629" y="40"/>
      <point x="618" y="46"/>
      <point x="612" y="81" type="curve" smooth="yes"/>
      <point x="607" y="109"/>
      <point x="605" y="159"/>
      <point x="605" y="258" type="curve" smooth="yes"/>
      <point x="605" y="830" type="line"/>
      <point x="327" y="790" type="line"/>
      <point x="327" y="756" type="line"/>
      <point x="397" y="756"/>
      <point x="430" y="744"/>
      <point x="436" y="716" type="curve" smooth="yes"/>
      <point x="440" y="699"/>
      <point x="442" y="637"/>
      <point x="442" y="559" type="curve" smooth="yes"/>
      <point x="442" y="474" type="line"/>
      <point x="438" y="474" type="line"/>
      <point x="405" y="514"/>
      <point x="358" y="540"/>
      <point x="297" y="540" type="curve"/>
      <point x="146" y="540"/>
      <point x="39" y="420"/>
      <point x="39" y="261" type="curve" smooth="yes"/>
      <point x="39" y="90"/>
      <point x="153" y="-10"/>
      <point x="305" y="-10" type="curve"/>
      <point x="377" y="-10"/>
      <point x="431" y="15"/>
      <point x="477" y="64" type="curve"/>
      <point x="481" y="64" type="line"/>
    </contour>
    <contour>
      <point x="440" y="248" type="line" smooth="yes"/>
      <point x="440" y="89"/>
      <point x="397" y="47"/>
      <point x="330" y="47" type="curve" smooth="yes"/>
      <point x="253" y="47"/>
      <point x="214" y="125"/>
      <point x="214" y="263" type="curve" smooth="yes"/>
      <point x="214" y="404"/>
      <point x="253" y="477"/>
      <point x="334" y="477" type="curve"/>
      <point x="411" y="477"/>
      <point x="440" y="403"/>
      <point x="440" y="287" type="curve" smooth="yes"/>
    </contour>
    <contour>
      <point x="305" y="0" type="move" name="bottom"/>
    </contour>
  </outline>
</glyph>
<glyph name="e" format="1">
  <advance width="584"/>
  <unicode hex="0065"/>
  <outline>
    <contour>
      <point x="163" y="356" type="line"/>
      <point x="163" y="300" type="line"/>
      <point x="515" y="300" type="line" smooth="yes"/>
      <point x="546" y="300"/>
      <point x="548" y="302"/>
      <point x="548" y="323" type="curve" smooth="yes"/>
      <point x="548" y="459"/>
      <point x="472" y="540"/>
      <point x="326" y="540" type="curve"/>
      <point x="147" y="540"/>
      <point x="38" y="428"/>
      <point x="38" y="263" type="curve" smooth="yes"/>
      <point x="38" y="93"/>
      <point x="145" y="-5"/>
      <point x="315" y="-5" type="curve" smooth="yes"/>
      <point x="402" y="-5"/>
      <point x="487" y="27"/>
      <point x="542" y="83" type="curve"/>
      <point x="516" y="121" type="line"/>
      <point x="467" y="83"/>
      <point x="419" y="61"/>
      <point x="356" y="61" type="curve"/>
      <point x="250" y="61"/>
      <point x="213" y="139"/>
      <point x="213" y="277" type="curve" smooth="yes"/>
      <point x="213" y="406"/>
      <point x="238" y="482"/>
      <point x="315" y="482" type="curve"/>
      <point x="366" y="482"/>
      <point x="391" y="440"/>
      <point x="391" y="382" type="curve" smooth="yes"/>
      <point x="391" y="359"/>
      <point x="382" y="356"/>
      <point x="328" y="356" type="curve" smooth="yes"/>
    </contour>
    <contour>
      <point x="313" y="651" type="move" name="top"/>
    </contour>
    <contour>
      <point x="312" y="0" type="move" name="bottom"/>
    </contour>
  </outline>
</glyph>
<glyph name="f" format="1">
  <advance width="463"/>
  <unicode hex="0066"/>
  <outline>
    <contour>
      <point x="17" y="475" type="line"/>
      <point x="125" y="475" type="line"/>
      <point x="125" y="158" type="line" smooth="yes"/>
      <point x="125" y="57"/>
      <point x="115" y="44"/>
      <point x="35" y="40" type="curve"/>
      <point x="35" y="0" type="line"/>
      <point x="399" y="0" type="line"/>
      <point x="399" y="40" type="line"/>
      <point x="311" y="42"/>
      <point x="290" y="66"/>
      <point x="290" y="166" type="curve" smooth="yes"/>
      <point x="290" y="475" type="line"/>
      <point x="453" y="475" type="line"/>
      <point x="453" y="530" type="line"/>
      <point x="290" y="530" type="line"/>
      <point x="290" y="632" type="line" smooth="yes"/>
      <point x="290" y="734"/>
      <point x="317" y="774"/>
      <point x="365" y="774" type="curve"/>
      <point x="395" y="774"/>
      <point x="410" y="755"/>
      <point x="424" y="735" type="curve" smooth="yes"/>
      <point x="441" y="710"/>
      <point x="457" y="682"/>
      <point x="496" y="682" type="curve" smooth="yes"/>
      <point x="530" y="682"/>
      <point x="554" y="703"/>
      <point x="554" y="740" type="curve"/>
      <point x="554" y="794"/>
      <point x="488" y="830"/>
      <point x="388" y="830" type="curve"/>
      <point x="233" y="830"/>
      <point x="125" y="758"/>
      <point x="125" y="596" type="curve" smooth="yes"/>
      <point x="125" y="530" type="line"/>
      <point x="17" y="530" type="line"/>
    </contour>
  </outline>
</glyph>
<glyph name="g" format="1">
  <advance width="671"/>
  <unicode hex="0067"/>
  <outline>
    <contour>
      <point x="317" y="230" type="curve" smooth="yes"/>
      <point x="267" y="230"/>
      <point x="232" y="282"/>
      <point x="232" y="361" type="curve" smooth="yes"/>
      <point x="232" y="439"/>
      <point x="266" y="488"/>
      <point x="316" y="488" type="curve" smooth="yes"/>
      <point x="365" y="488"/>
      <point x="395" y="441"/>
      <point x="395" y="359" type="curve" smooth="yes"/>
      <point x="395" y="278"/>
      <point x="365" y="230"/>
    </contour>
    <contour>
      <point x="319" y="540" type="curve"/>
      <point x="156" y="540"/>
      <point x="67" y="465"/>
      <point x="67" y="365" type="curve" smooth="yes"/>
      <point x="67" y="283"/>
      <point x="116" y="227"/>
      <point x="210" y="207" type="curve"/>
      <point x="210" y="203" type="line"/>
      <point x="135" y="182"/>
      <point x="85" y="145"/>
      <point x="85" y="95" type="curve"/>
      <point x="85" y="47"/>
      <point x="123" y="3"/>
      <point x="211" y="-5" type="curve" smooth="yes"/>
      <point x="383" y="-20" type="line" smooth="yes"/>
      <point x="452" y="-26"/>
      <point x="504" y="-40"/>
      <point x="504" y="-99" type="curve"/>
      <point x="504" y="-156"/>
      <point x="438" y="-195"/>
      <point x="308" y="-195" type="curve"/>
      <point x="227" y="-195"/>
      <point x="170" y="-175"/>
      <point x="170" y="-125" type="curve" smooth="yes"/>
      <point x="170" y="-92"/>
      <point x="193" y="-75"/>
      <point x="229" y="-65" type="curve"/>
      <point x="207" y="-40"/>
      <point x="168" y="-24"/>
      <point x="127" y="-24" type="curve"/>
      <point x="74" y="-24"/>
      <point x="22" y="-56"/>
      <point x="22" y="-115" type="curve" smooth="yes"/>
      <point x="22" y="-200"/>
      <point x="127" y="-260"/>
      <point x="303" y="-260" type="curve"/>
      <point x="505" y="-260"/>
      <point x="618" y="-160"/>
      <point x="618" y="-48" type="curve"/>
      <point x="618" y="43"/>
      <point x="565" y="103"/>
      <point x="422" y="112" type="curve" smooth="yes"/>
      <point x="279" y="121" type="line" smooth="yes"/>
      <point x="249" y="123"/>
      <point x="224" y="126"/>
      <point x="224" y="144" type="curve"/>
      <point x="224" y="163"/>
      <point x="250" y="166"/>
      <point x="309" y="173" type="curve" smooth="yes"/>
      <point x="460" y="191"/>
      <point x="561" y="248"/>
      <point x="561" y="364" type="curve"/>
      <point x="561" y="473"/>
      <point x="443" y="540"/>
    </contour>
    <contour>
      <point x="496" y="421" type="line"/>
      <point x="525" y="460"/>
      <point x="540" y="468"/>
      <point x="557" y="468" type="curve"/>
      <point x="593" y="468"/>
      <point x="594" y="420"/>
      <point x="642" y="420" type="curve" smooth="yes"/>
      <point x="670" y="420"/>
      <point x="693" y="442"/>
      <point x="693" y="478" type="curve" smooth="yes"/>
      <point x="693" y="515"/>
      <point x="664" y="543"/>
      <point x="603" y="543" type="curve" smooth="yes"/>
      <point x="552" y="543"/>
      <point x="507" y="519"/>
      <point x="451" y="475" type="curve"/>
    </contour>
  </outline>
</glyph>
<glyph name="h" format="1">
  <advance width="746"/>
  <unicode hex="0068"/>
  <outline>
    <contour>
      <point x="270" y="297" type="line"/>
      <point x="270" y="414"/>
      <point x="299" y="477"/>
      <point x="380" y="477" type="curve"/>
      <point x="447" y="477"/>
      <point x="483" y="435"/>
      <point x="483" y="293" type="curve" smooth="yes"/>
      <point x="483" y="157" type="line" smooth="yes"/>
      <point x="483" y="56"/>
      <point x="484" y="44"/>
      <point x="404" y="40" type="curve"/>
      <point x="404" y="0" type="line"/>
      <point x="733" y="0" type="line"/>
      <point x="733" y="40" type="line"/>
      <point x="654" y="45"/>
      <point x="648" y="53"/>
      <point x="648" y="164" type="curve" smooth="yes"/>
      <point x="648" y="319" type="line" smooth="yes"/>
      <point x="648" y="472"/>
      <point x="565" y="540"/>
      <point x="435" y="540" type="curve"/>
      <point x="360" y="540"/>
      <point x="301" y="512"/>
      <point x="272" y="474" type="curve"/>
      <point x="268" y="474" type="line"/>
      <point x="268" y="830" type="line"/>
      <point x="19" y="792" type="line"/>
      <point x="19" y="755" type="line"/>
      <point x="79" y="755"/>
      <point x="91" y="749"/>
      <point x="98" y="715" type="curve" smooth="yes"/>
      <point x="103" y="691"/>
      <point x="105" y="647"/>
      <point x="105" y="568" type="curve" smooth="yes"/>
      <point x="105" y="157" type="line" smooth="yes"/>
      <point x="105" y="56"/>
      <point x="97" y="45"/>
      <point x="16" y="40" type="curve"/>
      <point x="16" y="0" type="line"/>
      <point x="347" y="0" type="line"/>
      <point x="347" y="40" type="line"/>
      <point x="267" y="45"/>
      <point x="270" y="55"/>
      <point x="270" y="164" type="curve" smooth="yes"/>
    </contour>
    <contour>
      <point x="418" y="651" type="move" name="top"/>
    </contour>
    <contour>
      <point x="375" y="0" type="move" name="bottom"/>
    </contour>
  </outline>
</glyph>
<glyph name="i" format="1">
  <advance width="387"/>
  <unicode hex="0069"/>
  <outline>
    <contour>
      <point x="283" y="540" type="line"/>
      <point x="25" y="502" type="line"/>
      <point x="25" y="468" type="line"/>
      <point x="86" y="468"/>
      <point x="104" y="460"/>
      <point x="111" y="427" type="curve" smooth="yes"/>
      <point x="115" y="409"/>
      <point x="118" y="357"/>
      <point x="118" y="280" type="curve" smooth="yes"/>
      <point x="118" y="157" type="line" smooth="yes"/>
      <point x="118" y="63"/>
      <point x="104" y="44"/>
      <point x="29" y="40" type="curve"/>
      <point x="29" y="0" type="line"/>
      <point x="370" y="0" type="line"/>
      <point x="370" y="40" type="line"/>
      <point x="293" y="43"/>
      <point x="283" y="58"/>
      <point x="283" y="164" type="curve" smooth="yes"/>
    </contour>
    <contour>
      <point x="89" y="729" type="curve" smooth="yes"/>
      <point x="89" y="674"/>
      <point x="133" y="630"/>
      <point x="188" y="630" type="curve" smooth="yes"/>
      <point x="245" y="630"/>
      <point x="289" y="674"/>
      <point x="289" y="729" type="curve" smooth="yes"/>
      <point x="289" y="786"/>
      <point x="245" y="830"/>
      <point x="188" y="830" type="curve" smooth="yes"/>
      <point x="133" y="830"/>
      <point x="89" y="786"/>
    </contour>
    <contour>
      <point x="210" y="651" type="move" name="top"/>
    </contour>
    <contour>
      <point x="214" y="0" type="move" name="bottom"/>
    </contour>
  </outline>
</glyph>
<glyph name="j" format="1">
  <advance width="349"/>
  <unicode hex="006A"/>
  <outline>
    <contour>
      <point x="272" y="540" type="line"/>
      <point x="14" y="502" type="line"/>
      <point x="14" y="468" type="line"/>
      <point x="76" y="468"/>
      <point x="92" y="459"/>
      <point x="99" y="428" type="curve" smooth="yes"/>
      <point x="103" y="411"/>
      <point x="107" y="363"/>
      <point x="107" y="290" type="curve" smooth="yes"/>
      <point x="107" y="-78" type="line" smooth="yes"/>
      <point x="107" y="-172"/>
      <point x="82" y="-207"/>
      <point x="33" y="-207" type="curve" smooth="yes"/>
      <point x="5" y="-207"/>
      <point x="-6" y="-190"/>
      <point x="-14" y="-170" type="curve" smooth="yes"/>
      <point x="-27" y="-139"/>
      <point x="-32" y="-99"/>
      <point x="-83" y="-99" type="curve" smooth="yes"/>
      <point x="-124" y="-99"/>
      <point x="-153" y="-128"/>
      <point x="-153" y="-161" type="curve"/>
      <point x="-153" y="-227"/>
      <point x="-91" y="-260"/>
      <point x="21" y="-260" type="curve"/>
      <point x="188" y="-260"/>
      <point x="272" y="-176"/>
      <point x="272" y="8" type="curve" smooth="yes"/>
    </contour>
    <contour>
      <point x="63" y="729" type="curve" smooth="yes"/>
      <point x="63" y="674"/>
      <point x="107" y="630"/>
      <point x="162" y="630" type="curve" smooth="yes"/>
      <point x="219" y="630"/>
      <point x="263" y="674"/>
      <point x="263" y="729" type="curve" smooth="yes"/>
      <point x="263" y="786"/>
      <point x="219" y="830"/>
      <point x="162" y="830" type="curve" smooth="yes"/>
      <point x="107" y="830"/>
      <point x="63" y="786"/>
    </contour>
    <contour>
      <point x="173" y="651" type="move" name="top"/>
    </contour>
  </outline>
</glyph>
<glyph name="k" format="1">
  <advance width="712"/>
  <unicode hex="006B"/>
  <outline>
    <contour>
      <point x="339" y="0" type="line"/>
      <point x="339" y="40" type="line"/>
      <point x="283" y="40"/>
      <point x="270" y="59"/>
      <point x="270" y="164" type="curve" smooth="yes"/>
      <point x="270" y="197" type="line"/>
      <point x="527" y="432" type="line" smooth="yes"/>
      <point x="575" y="475"/>
      <point x="616" y="490"/>
      <point x="667" y="490" type="curve"/>
      <point x="667" y="530" type="line"/>
      <point x="374" y="530" type="line"/>
      <point x="374" y="490" type="line"/>
      <point x="441" y="490"/>
      <point x="461" y="485"/>
      <point x="461" y="467" type="curve" smooth="yes"/>
      <point x="461" y="452"/>
      <point x="448" y="428"/>
      <point x="375" y="365" type="curve" smooth="yes"/>
      <point x="270" y="274" type="line"/>
      <point x="270" y="830" type="line"/>
      <point x="19" y="792" type="line"/>
      <point x="19" y="755" type="line"/>
      <point x="59" y="755"/>
      <point x="81" y="753"/>
      <point x="93" y="730" type="curve" name="inserted" smooth="yes"/>
      <point x="104" y="706"/>
      <point x="105" y="663"/>
      <point x="105" y="581" type="curve" smooth="yes"/>
      <point x="105" y="157" type="line" smooth="yes"/>
      <point x="105" y="59"/>
      <point x="91" y="42"/>
      <point x="16" y="40" type="curve"/>
      <point x="16" y="0" type="line"/>
    </contour>
    <contour>
      <point x="303" y="276" type="line"/>
      <point x="396" y="137" type="line" smooth="yes"/>
      <point x="424" y="95"/>
      <point x="444" y="61"/>
      <point x="444" y="53" type="curve" smooth="yes"/>
      <point x="444" y="42"/>
      <point x="429" y="40"/>
      <point x="386" y="40" type="curve"/>
      <point x="386" y="0" type="line"/>
      <point x="717" y="0" type="line"/>
      <point x="717" y="40" type="line"/>
      <point x="669" y="40"/>
      <point x="645" y="53"/>
      <point x="614" y="96" type="curve" smooth="yes"/>
      <point x="424" y="366" type="line"/>
    </contour>
    <contour>
      <point x="373" y="0" type="move" name="bottom"/>
    </contour>
  </outline>
</glyph>
<glyph name="l" format="1">
  <advance width="381"/>
  <unicode hex="006C"/>
  <outline>
    <contour>
      <point x="273" y="830" type="line"/>
      <point x="15" y="792" type="line"/>
      <point x="15" y="758" type="line"/>
      <point x="76" y="758"/>
      <point x="94" y="750"/>
      <point x="101" y="717" type="curve" smooth="yes"/>
      <point x="105" y="699"/>
      <point x="108" y="647"/>
      <point x="108" y="570" type="curve" smooth="yes"/>
      <point x="108" y="157" type="line" smooth="yes"/>
      <point x="108" y="63"/>
      <point x="94" y="44"/>
      <point x="19" y="40" type="curve"/>
      <point x="19" y="0" type="line"/>
      <point x="360" y="0" type="line"/>
      <point x="360" y="40" type="line"/>
      <point x="283" y="43"/>
      <point x="273" y="58"/>
      <point x="273" y="164" type="curve" smooth="yes"/>
    </contour>
    <contour>
      <point x="215" y="830" type="move" name="topcap"/>
    </contour>
    <contour>
      <point x="216" y="0" type="move" name="bottom"/>
    </contour>
  </outline>
</glyph>
<glyph name="m" format="1">
  <advance width="1136"/>
  <unicode hex="006D"/>
  <outline>
    <contour>
      <point x="359" y="40" type="line"/>
      <point x="289" y="45"/>
      <point x="283" y="54"/>
      <point x="283" y="165" type="curve" smooth="yes"/>
      <point x="283" y="332" type="line"/>
      <point x="283" y="405"/>
      <point x="309" y="474"/>
      <point x="392" y="474" type="curve" smooth="yes"/>
      <point x="467" y="474"/>
      <point x="494" y="428"/>
      <point x="494" y="308" type="curve"/>
      <point x="494" y="157" type="line" smooth="yes"/>
      <point x="494" y="56"/>
      <point x="485" y="45"/>
      <point x="417" y="40" type="curve"/>
      <point x="417" y="0" type="line"/>
      <point x="734" y="0" type="line"/>
      <point x="734" y="40" type="line"/>
      <point x="665" y="45"/>
      <point x="659" y="55"/>
      <point x="659" y="165" type="curve" smooth="yes"/>
      <point x="659" y="317" type="line"/>
      <point x="659" y="394"/>
      <point x="680" y="475"/>
      <point x="767" y="475" type="curve" smooth="yes"/>
      <point x="840" y="475"/>
      <point x="869" y="427"/>
      <point x="869" y="308" type="curve"/>
      <point x="869" y="157" type="line" smooth="yes"/>
      <point x="869" y="57"/>
      <point x="860" y="44"/>
      <point x="790" y="40" type="curve"/>
      <point x="790" y="0" type="line"/>
      <point x="1121" y="0" type="line"/>
      <point x="1121" y="40" type="line"/>
      <point x="1042" y="45"/>
      <point x="1034" y="55"/>
      <point x="1034" y="165" type="curve" smooth="yes"/>
      <point x="1034" y="319" type="line" smooth="yes"/>
      <point x="1034" y="479"/>
      <point x="953" y="540"/>
      <point x="826" y="540" type="curve"/>
      <point x="731" y="540"/>
      <point x="674" y="507"/>
      <point x="626" y="451" type="curve"/>
      <point x="622" y="451" type="line"/>
      <point x="593" y="508"/>
      <point x="530" y="540"/>
      <point x="445" y="540" type="curve"/>
      <point x="369" y="540"/>
      <point x="301" y="511"/>
      <point x="262" y="453" type="curve"/>
      <point x="256" y="453" type="line"/>
      <point x="244" y="540" type="line"/>
      <point x="26" y="502" type="line"/>
      <point x="26" y="468" type="line"/>
      <point x="90" y="468"/>
      <point x="103" y="462"/>
      <point x="111" y="428" type="curve" smooth="yes"/>
      <point x="116" y="410"/>
      <point x="118" y="357"/>
      <point x="118" y="281" type="curve" smooth="yes"/>
      <point x="118" y="157" type="line" smooth="yes"/>
      <point x="118" y="56"/>
      <point x="108" y="45"/>
      <point x="28" y="40" type="curve"/>
      <point x="28" y="0" type="line"/>
      <point x="359" y="0" type="line"/>
    </contour>
  </outline>
</glyph>
<glyph name="n" format="1">
  <advance width="759"/>
  <unicode hex="006E"/>
  <outline>
    <contour>
      <point x="257" y="452" type="line"/>
      <point x="244" y="540" type="line"/>
      <point x="25" y="502" type="line"/>
      <point x="25" y="468" type="line"/>
      <point x="86" y="468"/>
      <point x="103" y="461"/>
      <point x="111" y="426" type="curve" smooth="yes"/>
      <point x="115" y="409"/>
      <point x="118" y="359"/>
      <point x="118" y="281" type="curve" smooth="yes"/>
      <point x="118" y="156" type="line" smooth="yes"/>
      <point x="118" y="56"/>
      <point x="107" y="45"/>
      <point x="29" y="40" type="curve"/>
      <point x="29" y="0" type="line"/>
      <point x="360" y="0" type="line"/>
      <point x="360" y="40" type="line"/>
      <point x="290" y="45"/>
      <point x="283" y="55"/>
      <point x="283" y="163" type="curve" smooth="yes"/>
      <point x="283" y="301" type="line" smooth="yes"/>
      <point x="283" y="417"/>
      <point x="312" y="475"/>
      <point x="396" y="475" type="curve"/>
      <point x="472" y="475"/>
      <point x="496" y="428"/>
      <point x="496" y="292" type="curve" smooth="yes"/>
      <point x="496" y="156" type="line" smooth="yes"/>
      <point x="496" y="57"/>
      <point x="486" y="44"/>
      <point x="417" y="40" type="curve"/>
      <point x="417" y="0" type="line"/>
      <point x="746" y="0" type="line"/>
      <point x="746" y="40" type="line"/>
      <point x="669" y="45"/>
      <point x="661" y="55"/>
      <point x="661" y="163" type="curve" smooth="yes"/>
      <point x="661" y="310" type="line" smooth="yes"/>
      <point x="661" y="481"/>
      <point x="571" y="540"/>
      <point x="448" y="540" type="curve"/>
      <point x="372" y="540"/>
      <point x="303" y="506"/>
      <point x="261" y="452" type="curve"/>
    </contour>
    <contour>
      <point x="388" y="651" type="move" name="top"/>
    </contour>
    <contour>
      <point x="388" y="0" type="move" name="bottom"/>
    </contour>
  </outline>
</glyph>
<glyph name="o" format="1">
  <advance width="680"/>
  <unicode hex="006F"/>
  <outline>
    <contour>
      <point x="338" y="540" type="curve" smooth="yes"/>
      <point x="170" y="540"/>
      <point x="37" y="427"/>
      <point x="37" y="269" type="curve" smooth="yes"/>
      <point x="37" y="106"/>
      <point x="170" y="-10"/>
      <point x="338" y="-10" type="curve" smooth="yes"/>
      <point x="507" y="-10"/>
      <point x="643" y="107"/>
      <point x="643" y="269" type="curve" smooth="yes"/>
      <point x="643" y="426"/>
      <point x="507" y="540"/>
    </contour>
    <contour>
      <point x="338" y="482" type="curve" smooth="yes"/>
      <point x="421" y="482"/>
      <point x="468" y="395"/>
      <point x="468" y="268" type="curve" smooth="yes"/>
      <point x="468" y="137"/>
      <point x="422" y="51"/>
      <point x="338" y="51" type="curve" smooth="yes"/>
      <point x="256" y="51"/>
      <point x="212" y="136"/>
      <point x="212" y="268" type="curve" smooth="yes"/>
      <point x="212" y="396"/>
      <point x="257" y="482"/>
    </contour>
    <contour>
      <point x="339" y="651" type="move" name="top"/>
    </contour>
    <contour>
      <point x="339" y="0" type="move" name="bottom"/>
    </contour>
  </outline>
</glyph>
<glyph name="p" format="1">
  <advance width="724"/>
  <unicode hex="0070"/>
  <outline>
    <contour>
      <point x="421" y="540" type="curve" smooth="yes"/>
      <point x="350" y="540"/>
      <point x="293" y="515"/>
      <point x="249" y="465" type="curve"/>
      <point x="245" y="465" type="line"/>
      <point x="245" y="536" type="line"/>
      <point x="17" y="508" type="line"/>
      <point x="17" y="469" type="line"/>
      <point x="73" y="469"/>
      <point x="93" y="459"/>
      <point x="99" y="428" type="curve" smooth="yes"/>
      <point x="103" y="406"/>
      <point x="106" y="343"/>
      <point x="106" y="282" type="curve" smooth="yes"/>
      <point x="106" y="-90" type="line" smooth="yes"/>
      <point x="106" y="-186"/>
      <point x="91" y="-206"/>
      <point x="19" y="-208" type="curve"/>
      <point x="19" y="-250" type="line"/>
      <point x="391" y="-250" type="line"/>
      <point x="391" y="-208" type="line"/>
      <point x="287" y="-205"/>
      <point x="271" y="-189"/>
      <point x="271" y="-83" type="curve" smooth="yes"/>
      <point x="271" y="56" type="line"/>
      <point x="275" y="56" type="line"/>
      <point x="310" y="11"/>
      <point x="357" y="-10"/>
      <point x="423" y="-10" type="curve" smooth="yes"/>
      <point x="576" y="-10"/>
      <point x="686" y="96"/>
      <point x="686" y="265" type="curve" smooth="yes"/>
      <point x="686" y="425"/>
      <point x="576" y="540"/>
    </contour>
    <contour>
      <point x="396" y="483" type="curve" smooth="yes"/>
      <point x="475" y="483"/>
      <point x="511" y="408"/>
      <point x="511" y="263" type="curve" smooth="yes"/>
      <point x="511" y="123"/>
      <point x="477" y="56"/>
      <point x="396" y="56" type="curve" smooth="yes"/>
      <point x="310" y="56"/>
      <point x="273" y="136"/>
      <point x="273" y="232" type="curve" smooth="yes"/>
      <point x="273" y="300" type="line" smooth="yes"/>
      <point x="273" y="408"/>
      <point x="312" y="483"/>
    </contour>
  </outline>
</glyph>
<glyph name="q" format="1">
  <advance width="690"/>
  <unicode hex="0071"/>
  <outline>
    <contour>
      <point x="442" y="-92" type="line"/>
      <point x="442" y="-183"/>
      <point x="416" y="-208"/>
      <point x="319" y="-210" type="curve"/>
      <point x="319" y="-250" type="line"/>
      <point x="702" y="-250" type="line"/>
      <point x="702" y="-210" type="line"/>
      <point x="613" y="-207"/>
      <point x="605" y="-196"/>
      <point x="605" y="-85" type="curve"/>
      <point x="605" y="530" type="line"/>
      <point x="561" y="530" type="line"/>
      <point x="486" y="473" type="line"/>
      <point x="433" y="521"/>
      <point x="378" y="541"/>
      <point x="315" y="541" type="curve"/>
      <point x="163" y="541"/>
      <point x="39" y="433"/>
      <point x="39" y="264" type="curve" smooth="yes"/>
      <point x="39" y="101"/>
      <point x="147" y="-10"/>
      <point x="288" y="-10" type="curve" smooth="yes"/>
      <point x="357" y="-10"/>
      <point x="404" y="14"/>
      <point x="438" y="59" type="curve"/>
      <point x="442" y="59" type="line"/>
    </contour>
    <contour>
      <point x="440" y="248" type="line" smooth="yes"/>
      <point x="440" y="125"/>
      <point x="412" y="53"/>
      <point x="332" y="53" type="curve" smooth="yes"/>
      <point x="251" y="53"/>
      <point x="215" y="128"/>
      <point x="215" y="266" type="curve" smooth="yes"/>
      <point x="215" y="408"/>
      <point x="253" y="483"/>
      <point x="332" y="483" type="curve" smooth="yes"/>
      <point x="411" y="483"/>
      <point x="440" y="410"/>
      <point x="440" y="311" type="curve" smooth="yes"/>
    </contour>
  </outline>
</glyph>
<glyph name="r" format="1">
  <advance width="537"/>
  <unicode hex="0072"/>
  <outline>
    <contour>
      <point x="284" y="203" type="line" smooth="yes"/>
      <point x="284" y="364"/>
      <point x="300" y="428"/>
      <point x="343" y="428" type="curve"/>
      <point x="387" y="428"/>
      <point x="410" y="377"/>
      <point x="458" y="377" type="curve"/>
      <point x="502" y="377"/>
      <point x="535" y="412"/>
      <point x="535" y="465" type="curve" smooth="yes"/>
      <point x="535" y="507"/>
      <point x="499" y="540"/>
      <point x="440" y="540" type="curve"/>
      <point x="369" y="540"/>
      <point x="308" y="495"/>
      <point x="272" y="425" type="curve"/>
      <point x="268" y="425" type="line"/>
      <point x="252" y="540" type="line"/>
      <point x="26" y="503" type="line"/>
      <point x="26" y="468" type="line"/>
      <point x="107" y="468"/>
      <point x="119" y="444"/>
      <point x="119" y="279" type="curve" smooth="yes"/>
      <point x="119" y="157" type="line" smooth="yes"/>
      <point x="119" y="56"/>
      <point x="111" y="45"/>
      <point x="30" y="40" type="curve"/>
      <point x="30" y="0" type="line"/>
      <point x="390" y="0" type="line"/>
      <point x="390" y="40" type="line"/>
      <point x="297" y="41"/>
      <point x="284" y="52"/>
      <point x="284" y="155" type="curve" smooth="yes"/>
    </contour>
    <contour>
      <point x="315" y="651" type="move" name="top"/>
    </contour>
    <contour>
      <point x="216" y="0" type="move" name="bottom"/>
    </contour>
  </outline>
</glyph>
<glyph name="s" format="1">
  <advance width="515"/>
  <unicode hex="0073"/>
  <outline>
    <contour>
      <point x="107" y="35" type="line"/>
      <point x="149" y="12"/>
      <point x="214" y="-10"/>
      <point x="281" y="-10" type="curve" smooth="yes"/>
      <point x="401" y="-10"/>
      <point x="479" y="63"/>
      <point x="479" y="155" type="curve" smooth="yes"/>
      <point x="479" y="227"/>
      <point x="429" y="267"/>
      <point x="378" y="299" type="curve" smooth="yes"/>
      <point x="305" y="344" type="line" smooth="yes"/>
      <point x="240" y="384"/>
      <point x="202" y="410"/>
      <point x="202" y="448" type="curve"/>
      <point x="202" y="476"/>
      <point x="224" y="487"/>
      <point x="252" y="487" type="curve"/>
      <point x="299" y="487"/>
      <point x="365" y="456"/>
      <point x="396" y="380" type="curve"/>
      <point x="435" y="380" type="line"/>
      <point x="435" y="531" type="line"/>
      <point x="409" y="531" type="line"/>
      <point x="391" y="501" type="line"/>
      <point x="367" y="516"/>
      <point x="317" y="541"/>
      <point x="245" y="541" type="curve"/>
      <point x="114" y="541"/>
      <point x="54" y="463"/>
      <point x="54" y="385" type="curve" smooth="yes"/>
      <point x="54" y="320"/>
      <point x="91" y="274"/>
      <point x="156" y="236" type="curve" smooth="yes"/>
      <point x="251" y="180" type="line" smooth="yes"/>
      <point x="299" y="152"/>
      <point x="344" y="122"/>
      <point x="344" y="89" type="curve" smooth="yes"/>
      <point x="344" y="65"/>
      <point x="325" y="46"/>
      <point x="269" y="46" type="curve"/>
      <point x="183" y="46"/>
      <point x="118" y="91"/>
      <point x="96" y="182" type="curve"/>
      <point x="54" y="182" type="line"/>
      <point x="54" y="0" type="line"/>
      <point x="85" y="0" type="line"/>
    </contour>
    <contour>
      <point x="260" y="651" type="move" name="top"/>
    </contour>
    <contour>
      <point x="278" y="1" type="move" name="bottom"/>
    </contour>
  </outline>
</glyph>
<glyph name="t" format="1">
  <advance width="408"/>
  <unicode hex="0074"/>
  <outline>
    <contour>
      <point x="98" y="475" type="line"/>
      <point x="98" y="152" type="line"/>
      <point x="98" y="30"/>
      <point x="154" y="-10"/>
      <point x="252" y="-10" type="curve"/>
      <point x="325" y="-10"/>
      <point x="384" y="15"/>
      <point x="402" y="61" type="curve"/>
      <point x="381" y="90" type="line"/>
      <point x="367" y="65"/>
      <point x="345" y="54"/>
      <point x="318" y="54" type="curve" smooth="yes"/>
      <point x="276" y="54"/>
      <point x="263" y="86"/>
      <point x="263" y="128" type="curve"/>
      <point x="263" y="475" type="line"/>
      <point x="378" y="475" type="line"/>
      <point x="378" y="530" type="line"/>
      <point x="263" y="530" type="line"/>
      <point x="263" y="651" type="line"/>
      <point x="212" y="651" type="line"/>
      <point x="165" y="584"/>
      <point x="116" y="546"/>
      <point x="25" y="520" type="curve"/>
      <point x="25" y="475" type="line"/>
    </contour>
    <contour>
      <point x="282" y="0" type="move" name="bottom"/>
    </contour>
  </outline>
</glyph>
<glyph name="u" format="1">
  <advance width="746"/>
  <unicode hex="0075"/>
  <outline>
    <contour>
      <point x="476" y="232" type="line"/>
      <point x="476" y="115"/>
      <point x="448" y="55"/>
      <point x="368" y="55" type="curve" smooth="yes"/>
      <point x="295" y="55"/>
      <point x="263" y="103"/>
      <point x="263" y="227" type="curve"/>
      <point x="263" y="530" type="line"/>
      <point x="13" y="530" type="line"/>
      <point x="13" y="490" type="line"/>
      <point x="93" y="481"/>
      <point x="98" y="476"/>
      <point x="98" y="366" type="curve" smooth="yes"/>
      <point x="98" y="231" type="line" smooth="yes"/>
      <point x="98" y="55"/>
      <point x="179" y="-10"/>
      <point x="320" y="-10" type="curve"/>
      <point x="407" y="-10"/>
      <point x="474" y="23"/>
      <point x="508" y="78" type="curve"/>
      <point x="512" y="78" type="line"/>
      <point x="523" y="-11" type="line"/>
      <point x="733" y="1" type="line"/>
      <point x="733" y="40" type="line"/>
      <point x="667" y="40"/>
      <point x="655" y="46"/>
      <point x="648" y="80" type="curve" smooth="yes"/>
      <point x="643" y="102"/>
      <point x="641" y="146"/>
      <point x="641" y="227" type="curve" smooth="yes"/>
      <point x="641" y="530" type="line"/>
      <point x="389" y="530" type="line"/>
      <point x="389" y="490" type="line"/>
      <point x="470" y="482"/>
      <point x="476" y="474"/>
      <point x="476" y="366" type="curve" smooth="yes"/>
    </contour>
    <contour>
      <point x="346" y="651" type="move" name="top"/>
    </contour>
    <contour>
      <point x="323" y="0" type="move" name="bottom"/>
    </contour>
  </outline>
</glyph>
<glyph name="v" format="1">
  <advance width="664"/>
  <unicode hex="0076"/>
  <outline>
    <contour>
      <point x="296" y="-10" type="line"/>
      <point x="387" y="-10" type="line"/>
      <point x="577" y="414" type="line" smooth="yes"/>
      <point x="606" y="479"/>
      <point x="628" y="490"/>
      <point x="664" y="490" type="curve"/>
      <point x="664" y="530" type="line"/>
      <point x="443" y="530" type="line"/>
      <point x="443" y="490" type="line"/>
      <point x="493" y="489"/>
      <point x="511" y="482"/>
      <point x="511" y="453" type="curve" smooth="yes"/>
      <point x="511" y="438"/>
      <point x="504" y="414"/>
      <point x="494" y="392" type="curve" smooth="yes"/>
      <point x="390" y="152" type="line"/>
      <point x="386" y="152" type="line"/>
      <point x="285" y="393" type="line" smooth="yes"/>
      <point x="276" y="415"/>
      <point x="269" y="436"/>
      <point x="269" y="452" type="curve" smooth="yes"/>
      <point x="269" y="476"/>
      <point x="285" y="490"/>
      <point x="341" y="490" type="curve"/>
      <point x="341" y="530" type="line"/>
      <point x="7" y="530" type="line"/>
      <point x="7" y="490" type="line"/>
      <point x="53" y="490"/>
      <point x="66" y="474"/>
      <point x="101" y="401" type="curve" smooth="yes"/>
    </contour>
  </outline>
</glyph>
<glyph name="w" format="1">
  <advance width="951"/>
  <unicode hex="0077"/>
  <outline>
    <contour>
      <point x="343" y="-10" type="line"/>
      <point x="253" y="-10" type="line"/>
      <point x="101" y="401" type="line" smooth="yes"/>
      <point x="78" y="464"/>
      <point x="54" y="487"/>
      <point x="8" y="490" type="curve"/>
      <point x="8" y="530" type="line"/>
      <point x="324" y="530" type="line"/>
      <point x="324" y="490" type="line"/>
      <point x="276" y="489"/>
      <point x="260" y="477"/>
      <point x="260" y="447" type="curve" smooth="yes"/>
      <point x="260" y="433"/>
      <point x="264" y="415"/>
      <point x="271" y="393" type="curve" smooth="yes"/>
      <point x="338" y="169" type="line"/>
      <point x="342" y="169" type="line"/>
      <point x="478" y="530" type="line"/>
      <point x="560" y="530" type="line"/>
      <point x="703" y="169" type="line"/>
      <point x="708" y="169" type="line"/>
      <point x="780" y="366" type="line" smooth="yes"/>
      <point x="792" y="400"/>
      <point x="798" y="424"/>
      <point x="798" y="442" type="curve" smooth="yes"/>
      <point x="798" y="477"/>
      <point x="773" y="490"/>
      <point x="735" y="490" type="curve"/>
      <point x="735" y="530" type="line"/>
      <point x="950" y="530" type="line"/>
      <point x="950" y="490" type="line"/>
      <point x="903" y="490"/>
      <point x="888" y="477"/>
      <point x="835" y="336" type="curve" smooth="yes"/>
      <point x="706" y="-10" type="line"/>
      <point x="616" y="-10" type="line"/>
      <point x="482" y="335" type="line"/>
      <point x="478" y="335" type="line"/>
    </contour>
    <contour>
      <point x="529" y="651" type="move" name="top"/>
    </contour>
  </outline>
</glyph>
<glyph name="x" format="1">
  <advance width="663"/>
  <unicode hex="0078"/>
  <outline>
    <contour>
      <point x="375" y="322" type="line"/>
      <point x="289" y="436" type="line" smooth="yes"/>
      <point x="281" y="447"/>
      <point x="278" y="456"/>
      <point x="278" y="463" type="curve" smooth="yes"/>
      <point x="278" y="481"/>
      <point x="298" y="490"/>
      <point x="336" y="490" type="curve"/>
      <point x="336" y="530" type="line"/>
      <point x="12" y="530" type="line"/>
      <point x="12" y="490" type="line"/>
      <point x="45" y="490"/>
      <point x="60" y="485"/>
      <point x="85" y="454" type="curve" smooth="yes"/>
      <point x="267" y="227" type="line"/>
      <point x="284" y="215" type="line"/>
      <point x="364" y="120" type="line" smooth="yes"/>
      <point x="384" y="97"/>
      <point x="393" y="80"/>
      <point x="393" y="67" type="curve" smooth="yes"/>
      <point x="393" y="49"/>
      <point x="374" y="40"/>
      <point x="327" y="40" type="curve"/>
      <point x="327" y="0" type="line"/>
      <point x="660" y="0" type="line"/>
      <point x="660" y="40" type="line"/>
      <point x="616" y="40"/>
      <point x="598" y="57"/>
      <point x="570" y="91" type="curve" smooth="yes"/>
      <point x="392" y="310" type="line"/>
    </contour>
    <contour>
      <point x="276" y="265" type="line"/>
      <point x="100" y="79" type="line" smooth="yes"/>
      <point x="76" y="53"/>
      <point x="51" y="40"/>
      <point x="9" y="40" type="curve"/>
      <point x="9" y="0" type="line"/>
      <point x="260" y="0" type="line"/>
      <point x="260" y="40" type="line"/>
      <point x="222" y="40"/>
      <point x="191" y="46"/>
      <point x="191" y="70" type="curve" smooth="yes"/>
      <point x="191" y="86"/>
      <point x="204" y="111"/>
      <point x="239" y="147" type="curve" smooth="yes"/>
      <point x="312" y="223" type="line"/>
    </contour>
    <contour>
      <point x="382" y="271" type="line"/>
      <point x="512" y="412" type="line" smooth="yes"/>
      <point x="561" y="465"/>
      <point x="586" y="488"/>
      <point x="636" y="490" type="curve"/>
      <point x="636" y="530" type="line"/>
      <point x="403" y="530" type="line"/>
      <point x="403" y="490" type="line"/>
      <point x="447" y="490"/>
      <point x="464" y="483"/>
      <point x="464" y="465" type="curve" smooth="yes"/>
      <point x="464" y="451"/>
      <point x="453" y="432"/>
      <point x="429" y="404" type="curve" smooth="yes"/>
      <point x="350" y="312" type="line"/>
    </contour>
  </outline>
</glyph>
<glyph name="y" format="1">
  <advance width="674"/>
  <unicode hex="0079"/>
  <outline>
    <contour>
      <point x="170" y="-260" type="curve"/>
      <point x="229" y="-260"/>
      <point x="287" y="-228"/>
      <point x="321" y="-156" type="curve" smooth="yes"/>
      <point x="544" y="323" type="line" smooth="yes"/>
      <point x="613" y="471"/>
      <point x="630" y="490"/>
      <point x="682" y="490" type="curve"/>
      <point x="682" y="530" type="line"/>
      <point x="439" y="530" type="line"/>
      <point x="439" y="490" type="line"/>
      <point x="492" y="490"/>
      <point x="516" y="484"/>
      <point x="516" y="453" type="curve" smooth="yes"/>
      <point x="516" y="429"/>
      <point x="500" y="387"/>
      <point x="468" y="318" type="curve" smooth="yes"/>
      <point x="390" y="147" type="line"/>
      <point x="386" y="147" type="line"/>
      <point x="276" y="415" type="line" smooth="yes"/>
      <point x="270" y="430"/>
      <point x="266" y="444"/>
      <point x="266" y="455" type="curve" smooth="yes"/>
      <point x="266" y="480"/>
      <point x="286" y="490"/>
      <point x="337" y="490" type="curve"/>
      <point x="337" y="530" type="line"/>
      <point x="8" y="530" type="line"/>
      <point x="8" y="490" type="line"/>
      <point x="60" y="488"/>
      <point x="72" y="478"/>
      <point x="109" y="401" type="curve" smooth="yes"/>
      <point x="314" y="-26" type="line"/>
      <point x="290" y="-70" type="line" smooth="yes"/>
      <point x="267" y="-112"/>
      <point x="226" y="-103"/>
      <point x="165" y="-112" type="curve" smooth="yes"/>
      <point x="109" y="-120"/>
      <point x="82" y="-150"/>
      <point x="82" y="-188" type="curve" smooth="yes"/>
      <point x="82" y="-229"/>
      <point x="116" y="-260"/>
    </contour>
    <contour>
      <point x="398" y="651" type="move" name="top"/>
    </contour>
  </outline>
</glyph>
<glyph name="z" format="1">
  <advance width="586"/>
  <unicode hex="007A"/>
  <outline>
    <contour>
      <point x="550" y="170" type="line"/>
      <point x="511" y="170" type="line"/>
      <point x="486" y="72"/>
      <point x="456" y="54"/>
      <point x="316" y="54" type="curve" smooth="yes"/>
      <point x="218" y="54" type="line"/>
      <point x="536" y="487" type="line"/>
      <point x="536" y="530" type="line"/>
      <point x="67" y="530" type="line"/>
      <point x="55" y="374" type="line"/>
      <point x="94" y="374" type="line"/>
      <point x="110" y="462"/>
      <point x="133" y="477"/>
      <point x="247" y="477" type="curve" smooth="yes"/>
      <point x="346" y="477" type="line"/>
      <point x="26" y="43" type="line"/>
      <point x="26" y="0" type="line"/>
      <point x="538" y="0" type="line"/>
    </contour>
    <contour>
      <point x="318" y="651" type="move" name="top"/>
    </contour>
    <contour>
      <point x="322" y="0" type="move" name="bottom"/>
    </contour>
  </outline>
</glyph>
<glyph name="braceleft" format="1">
  <advance width="384"/>
  <unicode hex="007B"/>
  <outline>
    <contour>
      <point x="267" y="198" type="line" smooth="yes"/>
      <point x="267" y="278"/>
      <point x="245" y="326"/>
      <point x="144" y="340" type="curve"/>
      <point x="144" y="345" type="line"/>
      <point x="252" y="363"/>
      <point x="267" y="419"/>
      <point x="267" y="501" type="curve" smooth="yes"/>
      <point x="267" y="675" type="line" smooth="yes"/>
      <point x="267" y="743"/>
      <point x="288" y="782"/>
      <point x="353" y="797" type="curve"/>
      <point x="353" y="830" type="line"/>
      <point x="180" y="830"/>
      <point x="113" y="786"/>
      <point x="113" y="659" type="curve" smooth="yes"/>
      <point x="113" y="489" type="line" smooth="yes"/>
      <point x="113" y="413"/>
      <point x="98" y="375"/>
      <point x="19" y="360" type="curve"/>
      <point x="19" y="325" type="line"/>
      <point x="91" y="319"/>
      <point x="113" y="255"/>
      <point x="113" y="195" type="curve" smooth="yes"/>
      <point x="113" y="4" type="line" smooth="yes"/>
      <point x="113" y="-117"/>
      <point x="193" y="-150"/>
      <point x="358" y="-150" type="curve"/>
      <point x="358" y="-118" type="line"/>
      <point x="286" y="-100"/>
      <point x="267" y="-64"/>
      <point x="267" y="5" type="curve" smooth="yes"/>
    </contour>
  </outline>
</glyph>
<glyph name="asciitilde" format="1">
  <advance width="562"/>
  <unicode hex="007E"/>
  <outline>
    <contour>
      <point x="119" y="239" type="line"/>
      <point x="130" y="272"/>
      <point x="139" y="279"/>
      <point x="167" y="279" type="curve" smooth="yes"/>
      <point x="239" y="279"/>
      <point x="306" y="231"/>
      <point x="369" y="231" type="curve" smooth="yes"/>
      <point x="433" y="231"/>
      <point x="477" y="301"/>
      <point x="492" y="389" type="curve"/>
      <point x="447" y="389" type="line"/>
      <point x="437" y="358"/>
      <point x="423" y="347"/>
      <point x="395" y="347" type="curve" smooth="yes"/>
      <point x="336" y="347"/>
      <point x="254" y="393"/>
      <point x="196" y="393" type="curve" smooth="yes"/>
      <point x="134" y="393"/>
      <point x="86" y="321"/>
      <point x="73" y="239" type="curve"/>
    </contour>
  </outline>
</glyph>
<glyph name="exclamdown" format="1">
  <advance width="311"/>
  <unicode hex="00A1"/>
  <outline>
    <contour>
      <point x="217" y="523" type="curve"/>
      <point x="157" y="523" type="line"/>
      <point x="157" y="309"/>
      <point x="77" y="230"/>
      <point x="77" y="113" type="curve"/>
      <point x="77" y="23"/>
      <point x="135" y="-10"/>
      <point x="187" y="-10" type="curve" smooth="yes"/>
      <point x="239" y="-10"/>
      <point x="297" y="23"/>
      <point x="297" y="113" type="curve"/>
      <point x="297" y="230"/>
      <point x="217" y="306"/>
    </contour>
    <contour>
      <point x="100" y="695" type="curve" smooth="yes"/>
      <point x="100" y="645"/>
      <point x="138" y="606"/>
      <point x="186" y="606" type="curve" smooth="yes"/>
      <point x="237" y="606"/>
      <point x="275" y="645"/>
      <point x="275" y="695" type="curve" smooth="yes"/>
      <point x="275" y="742"/>
      <point x="237" y="780"/>
      <point x="186" y="780" type="curve" smooth="yes"/>
      <point x="138" y="780"/>
      <point x="100" y="742"/>
    </contour>
  </outline>
</glyph>
<glyph name="cent" format="1">
  <advance width="586"/>
  <unicode hex="00A2"/>
  <outline>
    <contour>
      <point x="219" y="277" type="curve"/>
      <point x="219" y="397"/>
      <point x="240" y="471"/>
      <point x="297" y="481" type="curve"/>
      <point x="297" y="72" type="line"/>
      <point x="238" y="98"/>
      <point x="219" y="170"/>
    </contour>
    <contour>
      <point x="361" y="-2" type="line"/>
      <point x="432" y="7"/>
      <point x="498" y="37"/>
      <point x="543" y="83" type="curve"/>
      <point x="517" y="121" type="line"/>
      <point x="469" y="84"/>
      <point x="422" y="62"/>
      <point x="361" y="61" type="curve"/>
      <point x="361" y="465" type="line"/>
      <point x="372" y="454"/>
      <point x="383" y="437"/>
      <point x="395" y="410" type="curve" smooth="yes"/>
      <point x="418" y="359"/>
      <point x="449" y="349"/>
      <point x="480" y="349" type="curve" smooth="yes"/>
      <point x="522" y="349"/>
      <point x="548" y="379"/>
      <point x="548" y="418" type="curve"/>
      <point x="548" y="483"/>
      <point x="467" y="532"/>
      <point x="361" y="539" type="curve"/>
      <point x="361" y="683" type="line"/>
      <point x="297" y="683" type="line"/>
      <point x="297" y="539" type="line"/>
      <point x="139" y="525"/>
      <point x="44" y="417"/>
      <point x="44" y="263" type="curve" smooth="yes"/>
      <point x="44" y="99"/>
      <point x="138" y="3"/>
      <point x="297" y="-5" type="curve"/>
      <point x="297" y="-147" type="line"/>
      <point x="361" y="-147" type="line"/>
    </contour>
  </outline>
</glyph>
<glyph name="sterling" format="1">
  <advance width="772"/>
  <unicode hex="00A3"/>
  <outline>
    <contour>
      <point x="287" y="202" type="curve" smooth="yes"/>
      <point x="287" y="172"/>
      <point x="279" y="159"/>
      <point x="274" y="150" type="curve"/>
      <point x="253" y="166"/>
      <point x="214" y="190"/>
      <point x="160" y="190" type="curve" smooth="yes"/>
      <point x="86" y="190"/>
      <point x="35" y="149"/>
      <point x="35" y="90" type="curve"/>
      <point x="35" y="21"/>
      <point x="85" y="-11"/>
      <point x="154" y="-11" type="curve"/>
      <point x="228" y="-11"/>
      <point x="276" y="15"/>
      <point x="303" y="49" type="curve"/>
      <point x="404" y="6"/>
      <point x="496" y="-15"/>
      <point x="572" y="-15" type="curve"/>
      <point x="703" y="-15"/>
      <point x="751" y="55"/>
      <point x="720" y="184" type="curve"/>
      <point x="709" y="188" type="line"/>
      <point x="658" y="142"/>
      <point x="591" y="121"/>
      <point x="481" y="121" type="curve" smooth="yes"/>
      <point x="452" y="122"/>
      <point x="421" y="123"/>
      <point x="387" y="126" type="curve"/>
      <point x="411" y="159"/>
      <point x="439" y="208"/>
      <point x="439" y="271" type="curve" smooth="yes"/>
      <point x="439" y="310"/>
      <point x="432" y="362"/>
      <point x="413" y="402" type="curve" smooth="yes"/>
      <point x="380" y="472" type="line" smooth="yes"/>
      <point x="354" y="527"/>
      <point x="336" y="577"/>
      <point x="336" y="621" type="curve" smooth="yes"/>
      <point x="336" y="682"/>
      <point x="370" y="722"/>
      <point x="441" y="722" type="curve"/>
      <point x="567" y="722"/>
      <point x="523" y="590"/>
      <point x="615" y="590" type="curve" smooth="yes"/>
      <point x="655" y="590"/>
      <point x="681" y="615"/>
      <point x="681" y="655" type="curve" smooth="yes"/>
      <point x="681" y="728"/>
      <point x="578" y="780"/>
      <point x="445" y="780" type="curve"/>
      <point x="269" y="780"/>
      <point x="163" y="675"/>
      <point x="163" y="564" type="curve"/>
      <point x="163" y="513"/>
      <point x="179" y="466"/>
      <point x="202" y="422" type="curve" smooth="yes"/>
      <point x="238" y="353" type="line" smooth="yes"/>
      <point x="264" y="303"/>
      <point x="287" y="255"/>
    </contour>
    <contour>
      <point x="252" y="87" type="curve"/>
      <point x="229" y="69"/>
      <point x="198" y="59"/>
      <point x="168" y="59" type="curve" smooth="yes"/>
      <point x="141" y="59"/>
      <point x="121" y="71"/>
      <point x="121" y="93" type="curve" smooth="yes"/>
      <point x="121" y="113"/>
      <point x="138" y="123"/>
      <point x="163" y="123" type="curve" smooth="yes"/>
      <point x="185" y="123"/>
      <point x="216" y="113"/>
    </contour>
    <contour>
      <point x="612" y="370" type="line"/>
      <point x="612" y="431" type="line"/>
      <point x="108" y="431" type="line"/>
      <point x="108" y="370" type="line"/>
    </contour>
  </outline>
</glyph>
<glyph name="yen" format="1">
  <advance width="877"/>
  <unicode hex="00A5"/>
  <outline>
    <contour>
      <point x="250" y="0" type="line"/>
      <point x="629" y="0" type="line"/>
      <point x="629" y="40" type="line"/>
      <point x="549" y="40"/>
      <point x="527" y="56"/>
      <point x="525" y="170" type="curve"/>
      <point x="689" y="170" type="line"/>
      <point x="689" y="235" type="line"/>
      <point x="525" y="235" type="line"/>
      <point x="525" y="299" type="line"/>
      <point x="689" y="299" type="line"/>
      <point x="689" y="364" type="line"/>
      <point x="566" y="364" type="line"/>
      <point x="671" y="543" type="line" smooth="yes"/>
      <point x="763" y="700"/>
      <point x="793" y="730"/>
      <point x="851" y="730" type="curve"/>
      <point x="851" y="770" type="line"/>
      <point x="600" y="770" type="line"/>
      <point x="600" y="730" type="line"/>
      <point x="656" y="730"/>
      <point x="673" y="723"/>
      <point x="673" y="700" type="curve" smooth="yes"/>
      <point x="673" y="679"/>
      <point x="658" y="647"/>
      <point x="614" y="573" type="curve" smooth="yes"/>
      <point x="488" y="363" type="line"/>
      <point x="484" y="363" type="line"/>
      <point x="341" y="636" type="line" smooth="yes"/>
      <point x="324" y="668"/>
      <point x="316" y="685"/>
      <point x="316" y="698" type="curve" smooth="yes"/>
      <point x="316" y="719"/>
      <point x="336" y="730"/>
      <point x="392" y="730" type="curve"/>
      <point x="392" y="770" type="line"/>
      <point x="28" y="770" type="line"/>
      <point x="28" y="730" type="line"/>
      <point x="80" y="730"/>
      <point x="101" y="713"/>
      <point x="143" y="644" type="curve" smooth="yes"/>
      <point x="316" y="364" type="line"/>
      <point x="193" y="364" type="line"/>
      <point x="193" y="299" type="line"/>
      <point x="355" y="299" type="line"/>
      <point x="355" y="235" type="line"/>
      <point x="193" y="235" type="line"/>
      <point x="193" y="170" type="line"/>
      <point x="355" y="170" type="line"/>
      <point x="353" y="57"/>
      <point x="330" y="40"/>
      <point x="250" y="40" type="curve"/>
    </contour>
  </outline>
</glyph>
<glyph name="section" format="1">
  <advance width="533"/>
  <unicode hex="00A7"/>
  <outline>
    <contour>
      <point x="234" y="279" type="line" smooth="yes"/>
      <point x="182" y="315"/>
      <point x="139" y="346"/>
      <point x="139" y="380" type="curve"/>
      <point x="139" y="403"/>
      <point x="151" y="422"/>
      <point x="181" y="444" type="curve"/>
      <point x="291" y="367" type="line" smooth="yes"/>
      <point x="343" y="331"/>
      <point x="386" y="300"/>
      <point x="386" y="266" type="curve"/>
      <point x="386" y="244"/>
      <point x="374" y="221"/>
      <point x="345" y="202" type="curve"/>
    </contour>
    <contour>
      <point x="238" y="73" type="line" smooth="yes"/>
      <point x="323" y="14"/>
      <point x="358" y="-16"/>
      <point x="358" y="-57" type="curve"/>
      <point x="358" y="-100"/>
      <point x="319" y="-134"/>
      <point x="250" y="-134" type="curve" smooth="yes"/>
      <point x="193" y="-134"/>
      <point x="151" y="-114"/>
      <point x="151" y="-88" type="curve" smooth="yes"/>
      <point x="151" y="-67"/>
      <point x="181" y="-62"/>
      <point x="181" y="-25" type="curve" smooth="yes"/>
      <point x="181" y="11"/>
      <point x="153" y="36"/>
      <point x="115" y="36" type="curve" smooth="yes"/>
      <point x="74" y="36"/>
      <point x="49" y="7"/>
      <point x="49" y="-39" type="curve" smooth="yes"/>
      <point x="49" y="-124"/>
      <point x="132" y="-184"/>
      <point x="250" y="-184" type="curve" smooth="yes"/>
      <point x="387" y="-184"/>
      <point x="491" y="-111"/>
      <point x="491" y="-4" type="curve"/>
      <point x="491" y="68"/>
      <point x="453" y="118"/>
      <point x="401" y="161" type="curve"/>
      <point x="475" y="207"/>
      <point x="514" y="259"/>
      <point x="514" y="326" type="curve" smooth="yes"/>
      <point x="514" y="390"/>
      <point x="469" y="446"/>
      <point x="366" y="518" type="curve" smooth="yes"/>
      <point x="287" y="573" type="line" smooth="yes"/>
      <point x="202" y="632"/>
      <point x="167" y="662"/>
      <point x="167" y="703" type="curve"/>
      <point x="167" y="746"/>
      <point x="203" y="780"/>
      <point x="272" y="780" type="curve" smooth="yes"/>
      <point x="329" y="780"/>
      <point x="374" y="760"/>
      <point x="374" y="734" type="curve" smooth="yes"/>
      <point x="374" y="713"/>
      <point x="344" y="708"/>
      <point x="344" y="671" type="curve" smooth="yes"/>
      <point x="344" y="635"/>
      <point x="372" y="610"/>
      <point x="410" y="610" type="curve" smooth="yes"/>
      <point x="451" y="610"/>
      <point x="476" y="639"/>
      <point x="476" y="685" type="curve" smooth="yes"/>
      <point x="476" y="770"/>
      <point x="390" y="830"/>
      <point x="272" y="830" type="curve" smooth="yes"/>
      <point x="135" y="830"/>
      <point x="34" y="752"/>
      <point x="34" y="645" type="curve"/>
      <point x="34" y="570"/>
      <point x="76" y="522"/>
      <point x="131" y="479" type="curve"/>
      <point x="61" y="437"/>
      <point x="11" y="384"/>
      <point x="11" y="311" type="curve" smooth="yes"/>
      <point x="11" y="247"/>
      <point x="56" y="200"/>
      <point x="159" y="128" type="curve" smooth="yes"/>
    </contour>
  </outline>
</glyph>
<glyph name="registered" format="1">
  <advance width="902"/>
  <unicode hex="00AE"/>
  <outline>
    <contour>
      <point x="857" y="386" type="curve" smooth="yes"/>
      <point x="857" y="605"/>
      <point x="675" y="780"/>
      <point x="448" y="780" type="curve" smooth="yes"/>
      <point x="224" y="780"/>
      <point x="45" y="602"/>
      <point x="45" y="385" type="curve" smooth="yes"/>
      <point x="45" y="168"/>
      <point x="225" y="-10"/>
      <point x="449" y="-10" type="curve" smooth="yes"/>
      <point x="675" y="-10"/>
      <point x="857" y="166"/>
    </contour>
    <contour>
      <point x="797" y="386" type="curve" smooth="yes"/>
      <point x="797" y="200"/>
      <point x="640" y="48"/>
      <point x="449" y="48" type="curve" smooth="yes"/>
      <point x="257" y="48"/>
      <point x="105" y="200"/>
      <point x="105" y="385" type="curve" smooth="yes"/>
      <point x="105" y="570"/>
      <point x="256" y="722"/>
      <point x="448" y="722" type="curve" smooth="yes"/>
      <point x="640" y="722"/>
      <point x="797" y="573"/>
    </contour>
    <contour>
      <point x="616" y="507" type="curve" smooth="yes"/>
      <point x="616" y="574"/>
      <point x="548" y="615"/>
      <point x="430" y="615" type="curve" smooth="yes"/>
      <point x="246" y="615" type="line"/>
      <point x="246" y="585" type="line"/>
      <point x="283" y="583"/>
      <point x="289" y="573"/>
      <point x="289" y="522" type="curve" smooth="yes"/>
      <point x="289" y="273" type="line" smooth="yes"/>
      <point x="289" y="222"/>
      <point x="282" y="212"/>
      <point x="240" y="210" type="curve"/>
      <point x="240" y="183" type="line"/>
      <point x="448" y="183" type="line"/>
      <point x="448" y="210" type="line"/>
      <point x="395" y="210"/>
      <point x="387" y="222"/>
      <point x="387" y="276" type="curve" smooth="yes"/>
      <point x="387" y="383" type="line"/>
      <point x="399" y="383"/>
      <point x="407" y="379"/>
      <point x="425" y="354" type="curve" smooth="yes"/>
      <point x="550" y="183" type="line"/>
      <point x="692" y="183" type="line"/>
      <point x="692" y="210" type="line"/>
      <point x="660" y="215"/>
      <point x="640" y="225"/>
      <point x="621" y="248" type="curve" smooth="yes"/>
      <point x="500" y="393" type="line"/>
      <point x="580" y="405"/>
      <point x="616" y="447"/>
    </contour>
    <contour>
      <point x="387" y="571" type="line" smooth="yes"/>
      <point x="387" y="576"/>
      <point x="389" y="580"/>
      <point x="397" y="580" type="curve" smooth="yes"/>
      <point x="430" y="580" type="line" smooth="yes"/>
      <point x="489" y="580"/>
      <point x="506" y="559"/>
      <point x="506" y="504" type="curve" smooth="yes"/>
      <point x="506" y="442"/>
      <point x="482" y="416"/>
      <point x="414" y="416" type="curve" smooth="yes"/>
      <point x="387" y="416" type="line"/>
    </contour>
  </outline>
</glyph>
<glyph name="paragraph" format="1">
  <advance width="699"/>
  <unicode hex="00B6"/>
  <outline>
    <contour>
      <point x="552" y="568" type="line" smooth="yes"/>
      <point x="552" y="640"/>
      <point x="556" y="670"/>
      <point x="564" y="691" type="curve" smooth="yes"/>
      <point x="574" y="719"/>
      <point x="593" y="727"/>
      <point x="652" y="727" type="curve"/>
      <point x="652" y="770" type="line"/>
      <point x="322" y="770" type="line" smooth="yes"/>
      <point x="135" y="770"/>
      <point x="33" y="695"/>
      <point x="33" y="559" type="curve" smooth="yes"/>
      <point x="33" y="429"/>
      <point x="108" y="352"/>
      <point x="235" y="352" type="curve" smooth="yes"/>
      <point x="251" y="352"/>
      <point x="260" y="353"/>
      <point x="271" y="353" type="curve"/>
      <point x="271" y="68" type="line" smooth="yes"/>
      <point x="271" y="3"/>
      <point x="267" y="-66"/>
      <point x="261" y="-83" type="curve" smooth="yes"/>
      <point x="251" y="-111"/>
      <point x="220" y="-122"/>
      <point x="146" y="-122" type="curve"/>
      <point x="146" y="-165" type="line"/>
      <point x="388" y="-165" type="line"/>
      <point x="388" y="716" type="line"/>
      <point x="436" y="716" type="line"/>
      <point x="436" y="-165" type="line"/>
      <point x="652" y="-165" type="line"/>
      <point x="652" y="-122" type="line"/>
      <point x="598" y="-122"/>
      <point x="574" y="-112"/>
      <point x="566" y="-86" type="curve" smooth="yes"/>
      <point x="557" y="-65"/>
      <point x="552" y="-7"/>
      <point x="552" y="68" type="curve" smooth="yes"/>
    </contour>
  </outline>
</glyph>
<glyph name="periodcentered" format="1">
  <advance width="304"/>
  <unicode hex="00B7"/>
  <outline>
    <contour>
      <point x="65" y="274" type="curve" smooth="yes"/>
      <point x="65" y="227"/>
      <point x="103" y="189"/>
      <point x="151" y="189" type="curve" smooth="yes"/>
      <point x="202" y="189"/>
      <point x="240" y="227"/>
      <point x="240" y="274" type="curve" smooth="yes"/>
      <point x="240" y="324"/>
      <point x="202" y="363"/>
      <point x="151" y="363" type="curve" smooth="yes"/>
      <point x="103" y="363"/>
      <point x="65" y="324"/>
    </contour>
  </outline>
</glyph>
<glyph name="questiondown" format="1">
  <advance width="401"/>
  <unicode hex="00BF"/>
  <outline>
    <contour>
      <point x="242" y="531" type="line"/>
      <point x="242" y="427" type="line"/>
      <point x="134" y="437"/>
      <point x="54" y="374"/>
      <point x="54" y="250" type="curve"/>
      <point x="54" y="99"/>
      <point x="172" y="-10"/>
      <point x="299" y="-10" type="curve" smooth="yes"/>
      <point x="351" y="-10"/>
      <point x="391" y="11"/>
      <point x="391" y="55" type="curve"/>
      <point x="391" y="95"/>
      <point x="357" y="120"/>
      <point x="318" y="120" type="curve"/>
      <point x="284" y="120"/>
      <point x="255" y="109"/>
      <point x="229" y="109" type="curve" smooth="yes"/>
      <point x="179" y="109"/>
      <point x="121" y="147"/>
      <point x="121" y="205" type="curve" smooth="yes"/>
      <point x="121" y="263"/>
      <point x="184" y="294"/>
      <point x="275" y="294" type="curve" smooth="yes"/>
      <point x="310" y="294" type="line"/>
      <point x="310" y="531" type="line"/>
    </contour>
    <contour>
      <point x="364" y="695" type="curve" smooth="yes"/>
      <point x="364" y="742"/>
      <point x="326" y="780"/>
      <point x="278" y="780" type="curve" smooth="yes"/>
      <point x="227" y="780"/>
      <point x="189" y="742"/>
      <point x="189" y="695" type="curve" smooth="yes"/>
      <point x="189" y="645"/>
      <point x="227" y="606"/>
      <point x="278" y="606" type="curve" smooth="yes"/>
      <point x="326" y="606"/>
      <point x="364" y="645"/>
    </contour>
  </outline>
</glyph>
<glyph name="AE" format="1">
  <advance width="1187"/>
  <unicode hex="00C6"/>
  <outline>
    <contour>
      <point x="434" y="41" type="curve"/>
      <point x="434" y="0" type="line"/>
      <point x="1136" y="0" type="line"/>
      <point x="1151" y="227" type="line"/>
      <point x="1107" y="227" type="line"/>
      <point x="1080" y="93"/>
      <point x="1029" y="53"/>
      <point x="884" y="53" type="curve" smooth="yes"/>
      <point x="751" y="53"/>
      <point x="709" y="80"/>
      <point x="709" y="167" type="curve" smooth="yes"/>
      <point x="709" y="376" type="line"/>
      <point x="883" y="375"/>
      <point x="901" y="355"/>
      <point x="917" y="255" type="curve"/>
      <point x="954" y="255" type="line"/>
      <point x="954" y="548" type="line"/>
      <point x="917" y="548" type="line"/>
      <point x="905" y="441"/>
      <point x="881" y="426"/>
      <point x="709" y="426" type="curve"/>
      <point x="709" y="700" type="line" smooth="yes"/>
      <point x="709" y="710"/>
      <point x="716" y="717"/>
      <point x="727" y="717" type="curve" smooth="yes"/>
      <point x="861" y="717" type="line" smooth="yes"/>
      <point x="1000" y="717"/>
      <point x="1047" y="688"/>
      <point x="1063" y="574" type="curve"/>
      <point x="1105" y="574" type="line"/>
      <point x="1105" y="770" type="line"/>
      <point x="359" y="770" type="line"/>
      <point x="359" y="722" type="line"/>
      <point x="417" y="722"/>
      <point x="442" y="717"/>
      <point x="442" y="699" type="curve" smooth="yes"/>
      <point x="442" y="692"/>
      <point x="440" y="684"/>
      <point x="434" y="674" type="curve" smooth="yes"/>
      <point x="103" y="122" type="line" smooth="yes"/>
      <point x="69" y="66"/>
      <point x="42" y="48"/>
      <point x="-22" y="41" type="curve"/>
      <point x="-22" y="0" type="line"/>
      <point x="270" y="0" type="line"/>
      <point x="270" y="41" type="line"/>
      <point x="234" y="44"/>
      <point x="180" y="50"/>
      <point x="180" y="96" type="curve" smooth="yes"/>
      <point x="180" y="111"/>
      <point x="186" y="130"/>
      <point x="201" y="154" type="curve" smooth="yes"/>
      <point x="273" y="274" type="line"/>
      <point x="539" y="274" type="line"/>
      <point x="539" y="155" type="line" smooth="yes"/>
      <point x="539" y="61"/>
      <point x="523" y="44"/>
    </contour>
    <contour>
      <point x="308" y="334" type="line"/>
      <point x="539" y="721" type="line"/>
      <point x="539" y="334" type="line"/>
    </contour>
  </outline>
</glyph>
<glyph name="Thorn" format="1">
  <advance width="770"/>
  <unicode hex="00DE"/>
  <outline>
    <contour>
      <point x="317" y="618" type="line" smooth="yes"/>
      <point x="317" y="713"/>
      <point x="325" y="732"/>
      <point x="452" y="732" type="curve"/>
      <point x="452" y="770" type="line"/>
      <point x="32" y="770" type="line"/>
      <point x="32" y="729" type="line"/>
      <point x="130" y="726"/>
      <point x="147" y="709"/>
      <point x="147" y="615" type="curve" smooth="yes"/>
      <point x="147" y="152" type="line" smooth="yes"/>
      <point x="147" y="58"/>
      <point x="130" y="44"/>
      <point x="32" y="41" type="curve"/>
      <point x="32" y="0" type="line"/>
      <point x="452" y="0" type="line"/>
      <point x="452" y="41" type="line"/>
      <point x="325" y="41"/>
      <point x="317" y="57"/>
      <point x="317" y="147" type="curve" smooth="yes"/>
      <point x="317" y="166" type="line"/>
      <point x="402" y="166" type="line" smooth="yes"/>
      <point x="662" y="166"/>
      <point x="743" y="244"/>
      <point x="743" y="381" type="curve"/>
      <point x="743" y="515"/>
      <point x="639" y="601"/>
      <point x="422" y="601" type="curve" smooth="yes"/>
      <point x="317" y="601" type="line"/>
    </contour>
    <contour>
      <point x="317" y="527" type="line" smooth="yes"/>
      <point x="317" y="537"/>
      <point x="324" y="544"/>
      <point x="335" y="544" type="curve" smooth="yes"/>
      <point x="412" y="544" type="line" smooth="yes"/>
      <point x="500" y="544"/>
      <point x="553" y="490"/>
      <point x="553" y="391" type="curve" smooth="yes"/>
      <point x="553" y="274"/>
      <point x="493" y="226"/>
      <point x="372" y="226" type="curve" smooth="yes"/>
      <point x="317" y="226" type="line"/>
    </contour>
  </outline>
</glyph>
<glyph name="germandbls" format="1">
  <advance width="781"/>
  <unicode hex="00DF"/>
  <outline>
    <contour>
      <point x="401" y="770" type="curve"/>
      <point x="469" y="770"/>
      <point x="508" y="726"/>
      <point x="508" y="633" type="curve" smooth="yes"/>
      <point x="508" y="536"/>
      <point x="475" y="492"/>
      <point x="392" y="492" type="curve"/>
      <point x="392" y="431" type="line"/>
      <point x="506" y="431"/>
      <point x="567" y="351"/>
      <point x="567" y="211" type="curve" smooth="yes"/>
      <point x="567" y="116"/>
      <point x="544" y="46"/>
      <point x="505" y="46" type="curve" smooth="yes"/>
      <point x="487" y="46"/>
      <point x="481" y="62"/>
      <point x="474" y="81" type="curve" smooth="yes"/>
      <point x="466" y="105"/>
      <point x="457" y="133"/>
      <point x="420" y="133" type="curve"/>
      <point x="386" y="133"/>
      <point x="363" y="112"/>
      <point x="363" y="82" type="curve" smooth="yes"/>
      <point x="363" y="31"/>
      <point x="423" y="-10"/>
      <point x="509" y="-10" type="curve"/>
      <point x="656" y="-10"/>
      <point x="743" y="84"/>
      <point x="743" y="221" type="curve"/>
      <point x="743" y="363"/>
      <point x="643" y="443"/>
      <point x="512" y="462" type="curve"/>
      <point x="512" y="467" type="line"/>
      <point x="609" y="491"/>
      <point x="677" y="552"/>
      <point x="677" y="642" type="curve" smooth="yes"/>
      <point x="677" y="765"/>
      <point x="563" y="830"/>
      <point x="408" y="830" type="curve"/>
      <point x="226" y="830"/>
      <point x="106" y="744"/>
      <point x="106" y="572" type="curve"/>
      <point x="106" y="158" type="line" smooth="yes"/>
      <point x="106" y="57"/>
      <point x="96" y="44"/>
      <point x="16" y="40" type="curve"/>
      <point x="16" y="0" type="line"/>
      <point x="340" y="0" type="line"/>
      <point x="340" y="40" type="line"/>
      <point x="282" y="42"/>
      <point x="271" y="66"/>
      <point x="271" y="166" type="curve"/>
      <point x="271" y="608" type="line"/>
      <point x="271" y="720"/>
      <point x="323" y="770"/>
    </contour>
  </outline>
</glyph>
<glyph name="ae" format="1">
  <advance width="910"/>
  <unicode hex="00E6"/>
  <outline>
    <contour>
      <point x="868" y="83" type="line"/>
      <point x="813" y="27"/>
      <point x="728" y="-5"/>
      <point x="641" y="-5" type="curve" smooth="yes"/>
      <point x="534" y="-5"/>
      <point x="452" y="34"/>
      <point x="406" y="105" type="curve"/>
      <point x="356" y="26"/>
      <point x="272" y="-9"/>
      <point x="186" y="-9" type="curve"/>
      <point x="103" y="-9"/>
      <point x="34" y="43"/>
      <point x="34" y="130" type="curve"/>
      <point x="34" y="201"/>
      <point x="81" y="255"/>
      <point x="213" y="289" type="curve" smooth="yes"/>
      <point x="364" y="328" type="line"/>
      <point x="364" y="380" type="line" smooth="yes"/>
      <point x="364" y="457"/>
      <point x="337" y="493"/>
      <point x="280" y="493" type="curve"/>
      <point x="240" y="493"/>
      <point x="225" y="472"/>
      <point x="208" y="424" type="curve" smooth="yes"/>
      <point x="196" y="391"/>
      <point x="170" y="361"/>
      <point x="127" y="361" type="curve" smooth="yes"/>
      <point x="90" y="361"/>
      <point x="59" y="384"/>
      <point x="59" y="426" type="curve"/>
      <point x="59" y="498"/>
      <point x="165" y="540"/>
      <point x="300" y="540" type="curve" smooth="yes"/>
      <point x="377" y="540"/>
      <point x="436" y="525"/>
      <point x="474" y="490" type="curve"/>
      <point x="521" y="522"/>
      <point x="573" y="540"/>
      <point x="650" y="540" type="curve" smooth="yes"/>
      <point x="798" y="540"/>
      <point x="874" y="459"/>
      <point x="874" y="323" type="curve" smooth="yes"/>
      <point x="874" y="302"/>
      <point x="872" y="300"/>
      <point x="841" y="300" type="curve" smooth="yes"/>
      <point x="539" y="300" type="line"/>
      <point x="539" y="277" type="line" smooth="yes"/>
      <point x="539" y="139"/>
      <point x="576" y="61"/>
      <point x="682" y="61" type="curve"/>
      <point x="745" y="61"/>
      <point x="793" y="83"/>
      <point x="842" y="121" type="curve"/>
    </contour>
    <contour>
      <point x="641" y="482" type="curve"/>
      <point x="581" y="482"/>
      <point x="553" y="436"/>
      <point x="543" y="356" type="curve"/>
      <point x="654" y="356" type="line" smooth="yes"/>
      <point x="708" y="356"/>
      <point x="717" y="359"/>
      <point x="717" y="382" type="curve" smooth="yes"/>
      <point x="717" y="440"/>
      <point x="692" y="482"/>
    </contour>
    <contour>
      <point x="364" y="210" type="curve"/>
      <point x="364" y="275" type="line"/>
      <point x="231" y="246"/>
      <point x="187" y="188"/>
      <point x="187" y="141" type="curve" smooth="yes"/>
      <point x="187" y="102"/>
      <point x="209" y="74"/>
      <point x="251" y="74" type="curve"/>
      <point x="306" y="74"/>
      <point x="364" y="119"/>
    </contour>
    <contour>
      <point x="455" y="651" type="move" name="top"/>
    </contour>
  </outline>
</glyph>
<glyph name="eth" format="1">
  <advance width="703"/>
  <unicode hex="00F0"/>
  <outline>
    <contour>
      <point x="184" y="736" type="line"/>
      <point x="231" y="719"/>
      <point x="274" y="698"/>
      <point x="312" y="673" type="curve"/>
      <point x="197" y="611" type="line"/>
      <point x="225" y="566" type="line"/>
      <point x="358" y="639" type="line"/>
      <point x="423" y="582"/>
      <point x="470" y="509"/>
      <point x="499" y="414" type="curve"/>
      <point x="496" y="412" type="line"/>
      <point x="459" y="476"/>
      <point x="398" y="513"/>
      <point x="311" y="513" type="curve"/>
      <point x="145" y="513"/>
      <point x="39" y="404"/>
      <point x="39" y="264" type="curve"/>
      <point x="39" y="85"/>
      <point x="162" y="-10"/>
      <point x="340" y="-10" type="curve" smooth="yes"/>
      <point x="531" y="-10"/>
      <point x="661" y="122"/>
      <point x="661" y="308" type="curve" smooth="yes"/>
      <point x="661" y="485"/>
      <point x="566" y="606"/>
      <point x="441" y="684" type="curve"/>
      <point x="550" y="744" type="line"/>
      <point x="522" y="787" type="line"/>
      <point x="387" y="714" type="line"/>
      <point x="328" y="744"/>
      <point x="265" y="766"/>
      <point x="204" y="780" type="curve"/>
    </contour>
    <contour>
      <point x="220" y="244" type="curve" smooth="yes"/>
      <point x="220" y="376"/>
      <point x="269" y="454"/>
      <point x="342" y="454" type="curve" smooth="yes"/>
      <point x="423" y="454"/>
      <point x="475" y="374"/>
      <point x="475" y="244" type="curve" smooth="yes"/>
      <point x="475" y="121"/>
      <point x="422" y="45"/>
      <point x="341" y="45" type="curve" smooth="yes"/>
      <point x="269" y="45"/>
      <point x="220" y="118"/>
    </contour>
  </outline>
</glyph>
<glyph name="oslash" format="1">
  <advance width="658"/>
  <unicode hex="00F8"/>
  <outline>
    <contour>
      <point x="646" y="592" type="line"/>
      <point x="565" y="592" type="line"/>
      <point x="23" y="-61" type="line"/>
      <point x="103" y="-61" type="line"/>
    </contour>
    <contour>
      <point x="337" y="540" type="curve" smooth="yes"/>
      <point x="169" y="540"/>
      <point x="36" y="427"/>
      <point x="36" y="269" type="curve" smooth="yes"/>
      <point x="36" y="106"/>
      <point x="169" y="-10"/>
      <point x="337" y="-10" type="curve" smooth="yes"/>
      <point x="506" y="-10"/>
      <point x="642" y="107"/>
      <point x="642" y="269" type="curve" smooth="yes"/>
      <point x="642" y="426"/>
      <point x="506" y="540"/>
    </contour>
    <contour>
      <point x="337" y="482" type="curve" smooth="yes"/>
      <point x="420" y="482"/>
      <point x="467" y="395"/>
      <point x="467" y="268" type="curve" smooth="yes"/>
      <point x="467" y="137"/>
      <point x="421" y="51"/>
      <point x="337" y="51" type="curve" smooth="yes"/>
      <point x="255" y="51"/>
      <point x="211" y="136"/>
      <point x="211" y="268" type="curve" smooth="yes"/>
      <point x="211" y="396"/>
      <point x="256" y="482"/>
    </contour>
  </outline>
</glyph>
<glyph name="thorn" format="1">
  <advance width="698"/>
  <unicode hex="00FE"/>
  <outline>
    <contour>
      <point x="245" y="487" type="curve"/>
      <point x="245" y="830" type="line"/>
      <point x="-13" y="792" type="line"/>
      <point x="-13" y="758" type="line"/>
      <point x="48" y="758"/>
      <point x="66" y="750"/>
      <point x="73" y="717" type="curve" smooth="yes"/>
      <point x="77" y="699"/>
      <point x="80" y="647"/>
      <point x="80" y="570" type="curve" smooth="yes"/>
      <point x="80" y="-93" type="line" smooth="yes"/>
      <point x="80" y="-187"/>
      <point x="66" y="-206"/>
      <point x="-9" y="-210" type="curve"/>
      <point x="-9" y="-250" type="line"/>
      <point x="332" y="-250" type="line"/>
      <point x="332" y="-210" type="line"/>
      <point x="255" y="-207"/>
      <point x="245" y="-192"/>
      <point x="245" y="-86" type="curve" smooth="yes"/>
      <point x="245" y="56" type="line"/>
      <point x="249" y="56" type="line"/>
      <point x="284" y="11"/>
      <point x="331" y="-10"/>
      <point x="397" y="-10" type="curve" smooth="yes"/>
      <point x="550" y="-10"/>
      <point x="660" y="96"/>
      <point x="660" y="265" type="curve" smooth="yes"/>
      <point x="660" y="425"/>
      <point x="550" y="540"/>
      <point x="395" y="540" type="curve" smooth="yes"/>
      <point x="335" y="540"/>
      <point x="285" y="522"/>
    </contour>
    <contour>
      <point x="370" y="483" type="curve" smooth="yes"/>
      <point x="449" y="483"/>
      <point x="485" y="408"/>
      <point x="485" y="263" type="curve" smooth="yes"/>
      <point x="485" y="123"/>
      <point x="451" y="56"/>
      <point x="370" y="56" type="curve" smooth="yes"/>
      <point x="284" y="56"/>
      <point x="247" y="136"/>
      <point x="247" y="232" type="curve" smooth="yes"/>
      <point x="247" y="300" type="line" smooth="yes"/>
      <point x="247" y="408"/>
      <point x="286" y="483"/>
    </contour>
  </outline>
</glyph>
<glyph name="Dcroat" format="1">
  <advance width="951"/>
  <unicode hex="0110"/>
  <outline>
    <contour>
      <point x="36" y="0" type="line"/>
      <point x="36" y="40" type="line"/>
      <point x="124" y="43"/>
      <point x="141" y="59"/>
      <point x="141" y="154" type="curve" smooth="yes"/>
      <point x="141" y="616" type="line" smooth="yes"/>
      <point x="141" y="709"/>
      <point x="128" y="726"/>
      <point x="52" y="730" type="curve"/>
      <point x="52" y="770" type="line"/>
      <point x="455" y="770" type="line" smooth="yes"/>
      <point x="711" y="770"/>
      <point x="905" y="602"/>
      <point x="905" y="372" type="curve" smooth="yes"/>
      <point x="905" y="153"/>
      <point x="724" y="0"/>
      <point x="476" y="0" type="curve" smooth="yes"/>
    </contour>
    <contour>
      <point x="328" y="709" type="line" smooth="yes"/>
      <point x="317" y="709"/>
      <point x="311" y="702"/>
      <point x="311" y="692" type="curve" smooth="yes"/>
      <point x="311" y="175" type="line" smooth="yes"/>
      <point x="311" y="98"/>
      <point x="358" y="61"/>
      <point x="458" y="61" type="curve" smooth="yes"/>
      <point x="622" y="61"/>
      <point x="715" y="170"/>
      <point x="715" y="370" type="curve" smooth="yes"/>
      <point x="715" y="583"/>
      <point x="615" y="709"/>
      <point x="443" y="709" type="curve" smooth="yes"/>
    </contour>
    <contour>
      <point x="54" y="370" type="line"/>
      <point x="54" y="430" type="line"/>
      <point x="451" y="430" type="line"/>
      <point x="451" y="370" type="line"/>
    </contour>
  </outline>
</glyph>
<glyph name="Hbar" format="1">
  <advance width="995"/>
  <unicode hex="0126"/>
  <outline>
    <contour>
      <point x="71" y="541" type="line"/>
      <point x="71" y="601" type="line"/>
      <point x="923" y="601" type="line"/>
      <point x="923" y="541" type="line"/>
    </contour>
    <component base="H" xOffset="2"/>
  </outline>
</glyph>
<glyph name="hbar" format="1">
  <advance width="746"/>
  <unicode hex="0127"/>
  <outline>
    <contour>
      <point x="343" y="601" type="line"/>
      <point x="343" y="651" type="line"/>
      <point x="20" y="651" type="line"/>
      <point x="20" y="601" type="line"/>
    </contour>
    <component base="h"/>
  </outline>
</glyph>
<glyph name="kgreenlandic" format="1">
  <advance width="728"/>
  <unicode hex="0138"/>
  <outline>
    <contour>
      <point x="397" y="0" type="line"/>
      <point x="733" y="0" type="line"/>
      <point x="733" y="40" type="line"/>
      <point x="689" y="40"/>
      <point x="663" y="50"/>
      <point x="630" y="96" type="curve" smooth="yes"/>
      <point x="451" y="346" type="line"/>
      <point x="554" y="432" type="line" smooth="yes"/>
      <point x="603" y="473"/>
      <point x="634" y="490"/>
      <point x="684" y="490" type="curve"/>
      <point x="684" y="530" type="line"/>
      <point x="411" y="530" type="line"/>
      <point x="411" y="490" type="line"/>
      <point x="483" y="490"/>
      <point x="498" y="485"/>
      <point x="498" y="474" type="curve" smooth="yes"/>
      <point x="498" y="462"/>
      <point x="485" y="445"/>
      <point x="402" y="375" type="curve" smooth="yes"/>
      <point x="281" y="274" type="line"/>
      <point x="281" y="540" type="line"/>
      <point x="30" y="502" type="line"/>
      <point x="30" y="465" type="line"/>
      <point x="109" y="465"/>
      <point x="116" y="460"/>
      <point x="116" y="291" type="curve" smooth="yes"/>
      <point x="116" y="157" type="line" smooth="yes"/>
      <point x="116" y="62"/>
      <point x="99" y="40"/>
      <point x="27" y="40" type="curve"/>
      <point x="27" y="0" type="line"/>
      <point x="350" y="0" type="line"/>
      <point x="350" y="40" type="line"/>
      <point x="293" y="40"/>
      <point x="281" y="61"/>
      <point x="281" y="164" type="curve" smooth="yes"/>
      <point x="281" y="203" type="line"/>
      <point x="334" y="247" type="line"/>
      <point x="431" y="98" type="line" smooth="yes"/>
      <point x="442" y="81"/>
      <point x="448" y="69"/>
      <point x="448" y="60" type="curve" smooth="yes"/>
      <point x="448" y="46"/>
      <point x="434" y="40"/>
      <point x="397" y="40" type="curve"/>
    </contour>
  </outline>
</glyph>
<glyph name="Eng" format="1">
  <advance width="940"/>
  <unicode hex="014A"/>
  <outline>
    <contour>
      <point x="804" y="-10" type="line"/>
      <point x="804" y="-172"/>
      <point x="721" y="-260"/>
      <point x="578" y="-260" type="curve" smooth="yes"/>
      <point x="481" y="-260"/>
      <point x="406" y="-217"/>
      <point x="406" y="-153" type="curve" smooth="yes"/>
      <point x="406" y="-118"/>
      <point x="431" y="-97"/>
      <point x="466" y="-97" type="curve" smooth="yes"/>
      <point x="491" y="-97"/>
      <point x="511" y="-109"/>
      <point x="534" y="-147" type="curve" smooth="yes"/>
      <point x="558" y="-187"/>
      <point x="574" y="-197"/>
      <point x="607" y="-197" type="curve"/>
      <point x="671" y="-197"/>
      <point x="725" y="-139"/>
      <point x="725" y="-73" type="curve" smooth="yes"/>
      <point x="725" y="-68" type="line"/>
      <point x="227" y="621" type="line"/>
      <point x="223" y="621" type="line"/>
      <point x="223" y="191" type="line" smooth="yes"/>
      <point x="223" y="59"/>
      <point x="238" y="43"/>
      <point x="327" y="40" type="curve"/>
      <point x="327" y="0" type="line"/>
      <point x="30" y="0" type="line"/>
      <point x="30" y="40" type="line"/>
      <point x="128" y="43"/>
      <point x="145" y="60"/>
      <point x="145" y="184" type="curve" smooth="yes"/>
      <point x="145" y="586" type="line" smooth="yes"/>
      <point x="145" y="699"/>
      <point x="130" y="726"/>
      <point x="40" y="730" type="curve"/>
      <point x="40" y="770" type="line"/>
      <point x="329" y="770" type="line"/>
      <point x="722" y="222" type="line"/>
      <point x="726" y="222" type="line"/>
      <point x="726" y="579" type="line" smooth="yes"/>
      <point x="726" y="711"/>
      <point x="711" y="727"/>
      <point x="622" y="730" type="curve"/>
      <point x="622" y="770" type="line"/>
      <point x="919" y="770" type="line"/>
      <point x="919" y="730" type="line"/>
      <point x="821" y="727"/>
      <point x="804" y="710"/>
      <point x="804" y="586" type="curve" smooth="yes"/>
    </contour>
  </outline>
</glyph>
<glyph name="eng" format="1">
  <advance width="732"/>
  <unicode hex="014B"/>
  <outline>
    <contour>
      <point x="496" y="-78" type="line"/>
      <point x="496" y="-172"/>
      <point x="471" y="-207"/>
      <point x="422" y="-207" type="curve" smooth="yes"/>
      <point x="395" y="-207"/>
      <point x="384" y="-192"/>
      <point x="376" y="-173" type="curve" smooth="yes"/>
      <point x="363" y="-142"/>
      <point x="359" y="-99"/>
      <point x="306" y="-99" type="curve" smooth="yes"/>
      <point x="265" y="-99"/>
      <point x="236" y="-128"/>
      <point x="236" y="-161" type="curve"/>
      <point x="236" y="-227"/>
      <point x="298" y="-260"/>
      <point x="410" y="-260" type="curve"/>
      <point x="577" y="-260"/>
      <point x="661" y="-176"/>
      <point x="661" y="8" type="curve"/>
      <point x="661" y="310" type="line" smooth="yes"/>
      <point x="661" y="481"/>
      <point x="571" y="540"/>
      <point x="448" y="540" type="curve"/>
      <point x="372" y="540"/>
      <point x="303" y="506"/>
      <point x="261" y="452" type="curve"/>
      <point x="257" y="452" type="line"/>
      <point x="244" y="540" type="line"/>
      <point x="25" y="502" type="line"/>
      <point x="25" y="468" type="line"/>
      <point x="86" y="468"/>
      <point x="103" y="461"/>
      <point x="111" y="426" type="curve" smooth="yes"/>
      <point x="115" y="409"/>
      <point x="118" y="359"/>
      <point x="118" y="281" type="curve" smooth="yes"/>
      <point x="118" y="156" type="line" smooth="yes"/>
      <point x="118" y="56"/>
      <point x="107" y="45"/>
      <point x="29" y="40" type="curve"/>
      <point x="29" y="0" type="line"/>
      <point x="360" y="0" type="line"/>
      <point x="360" y="40" type="line"/>
      <point x="290" y="45"/>
      <point x="283" y="55"/>
      <point x="283" y="163" type="curve" smooth="yes"/>
      <point x="283" y="301" type="line" smooth="yes"/>
      <point x="283" y="417"/>
      <point x="312" y="475"/>
      <point x="396" y="475" type="curve"/>
      <point x="472" y="475"/>
      <point x="496" y="428"/>
      <point x="496" y="292" type="curve" smooth="yes"/>
    </contour>
  </outline>
</glyph>
<glyph name="OE" format="1">
  <advance width="1194"/>
  <unicode hex="0152"/>
  <outline>
    <contour>
      <point x="472" y="770" type="line"/>
      <point x="232" y="770"/>
      <point x="45" y="595"/>
      <point x="45" y="384" type="curve"/>
      <point x="45" y="152"/>
      <point x="238" y="0"/>
      <point x="468" y="0" type="curve"/>
      <point x="1143" y="0" type="line"/>
      <point x="1164" y="229" type="line"/>
      <point x="1124" y="229" type="line"/>
      <point x="1095" y="102"/>
      <point x="1052" y="55"/>
      <point x="891" y="55" type="curve" smooth="yes"/>
      <point x="759" y="55"/>
      <point x="717" y="82"/>
      <point x="717" y="169" type="curve" smooth="yes"/>
      <point x="717" y="383" type="line"/>
      <point x="872" y="382"/>
      <point x="905" y="356"/>
      <point x="921" y="255" type="curve"/>
      <point x="962" y="255" type="line"/>
      <point x="962" y="548" type="line"/>
      <point x="921" y="548" type="line"/>
      <point x="910" y="445"/>
      <point x="871" y="423"/>
      <point x="717" y="423" type="curve"/>
      <point x="717" y="700" type="line" smooth="yes"/>
      <point x="717" y="710"/>
      <point x="723" y="717"/>
      <point x="735" y="717" type="curve" smooth="yes"/>
      <point x="868" y="717" type="line" smooth="yes"/>
      <point x="1011" y="717"/>
      <point x="1059" y="680"/>
      <point x="1076" y="574" type="curve"/>
      <point x="1118" y="574" type="line"/>
      <point x="1109" y="770" type="line"/>
    </contour>
    <contour>
      <point x="472" y="705" type="curve"/>
      <point x="526" y="705"/>
      <point x="547" y="684"/>
      <point x="547" y="618" type="curve" smooth="yes"/>
      <point x="547" y="152" type="line" smooth="yes"/>
      <point x="547" y="87"/>
      <point x="527" y="65"/>
      <point x="472" y="65" type="curve"/>
      <point x="320" y="65"/>
      <point x="235" y="169"/>
      <point x="235" y="381" type="curve"/>
      <point x="235" y="574"/>
      <point x="316" y="705"/>
    </contour>
  </outline>
</glyph>
<glyph name="Tbar" format="1">
  <advance width="788"/>
  <unicode hex="0166"/>
  <outline>
    <contour>
      <point x="671" y="407" type="line"/>
      <point x="671" y="467" type="line"/>
      <point x="118" y="467" type="line"/>
      <point x="118" y="407" type="line"/>
    </contour>
    <component base="T"/>
  </outline>
</glyph>
<glyph name="tbar" format="1">
  <advance width="411"/>
  <unicode hex="0167"/>
  <outline>
    <contour>
      <point x="357" y="331" type="line"/>
      <point x="357" y="381" type="line"/>
      <point x="28" y="381" type="line"/>
      <point x="28" y="331" type="line"/>
    </contour>
    <component base="t" xOffset="3"/>
  </outline>
</glyph>
<glyph name="Schwa" format="1">
  <advance width="858"/>
  <unicode hex="018F"/>
  <outline>
    <contour>
      <point x="365" y="-10" type="curve" smooth="yes"/>
      <point x="624" y="-10"/>
      <point x="812" y="158"/>
      <point x="812" y="394" type="curve" smooth="yes"/>
      <point x="812" y="624"/>
      <point x="651" y="781"/>
      <point x="413" y="781" type="curve"/>
      <point x="275" y="781"/>
      <point x="147" y="738"/>
      <point x="60" y="637" type="curve"/>
      <point x="107" y="596" type="line"/>
      <point x="191" y="685"/>
      <point x="278" y="714"/>
      <point x="371" y="714" type="curve"/>
      <point x="518" y="714"/>
      <point x="615" y="586"/>
      <point x="615" y="382" type="curve" smooth="yes"/>
      <point x="615" y="357"/>
      <point x="615" y="334"/>
      <point x="609" y="318" type="curve"/>
      <point x="86" y="318" type="line" smooth="yes"/>
      <point x="45" y="318"/>
      <point x="39" y="315"/>
      <point x="39" y="289" type="curve" smooth="yes"/>
      <point x="39" y="102"/>
      <point x="160" y="-10"/>
    </contour>
    <contour>
      <point x="390" y="58" type="curve" smooth="yes"/>
      <point x="265" y="58"/>
      <point x="213" y="116"/>
      <point x="213" y="204" type="curve" smooth="yes"/>
      <point x="213" y="239"/>
      <point x="221" y="245"/>
      <point x="303" y="245" type="curve" smooth="yes"/>
      <point x="599" y="245" type="line"/>
      <point x="572" y="121"/>
      <point x="511" y="58"/>
    </contour>
  </outline>
</glyph>
<glyph name="florin" format="1">
  <advance width="811"/>
  <unicode hex="0192"/>
  <outline>
    <contour>
      <point x="93" y="-201" type="curve"/>
      <point x="59" y="-201"/>
      <point x="37" y="-167"/>
      <point x="9" y="-139" type="curve" smooth="yes"/>
      <point x="-10" y="-119"/>
      <point x="-33" y="-102"/>
      <point x="-64" y="-102" type="curve" smooth="yes"/>
      <point x="-106" y="-102"/>
      <point x="-126" y="-129"/>
      <point x="-126" y="-160" type="curve" smooth="yes"/>
      <point x="-126" y="-218"/>
      <point x="-50" y="-260"/>
      <point x="78" y="-260" type="curve"/>
      <point x="276" y="-260"/>
      <point x="361" y="-134"/>
      <point x="424" y="226" type="curve" smooth="yes"/>
      <point x="459" y="425" type="line"/>
      <point x="581" y="425" type="line"/>
      <point x="595" y="480" type="line"/>
      <point x="465" y="480" type="line"/>
      <point x="473" y="523" type="line" smooth="yes"/>
      <point x="499" y="662"/>
      <point x="524" y="722"/>
      <point x="576" y="722" type="curve"/>
      <point x="605" y="722"/>
      <point x="625" y="697"/>
      <point x="648" y="673" type="curve" smooth="yes"/>
      <point x="670" y="648"/>
      <point x="695" y="623"/>
      <point x="733" y="623" type="curve" smooth="yes"/>
      <point x="775" y="623"/>
      <point x="795" y="650"/>
      <point x="795" y="681" type="curve" smooth="yes"/>
      <point x="795" y="739"/>
      <point x="718" y="780"/>
      <point x="602" y="780" type="curve"/>
      <point x="435" y="780"/>
      <point x="326" y="683"/>
      <point x="294" y="525" type="curve" smooth="yes"/>
      <point x="285" y="480" type="line"/>
      <point x="180" y="480" type="line"/>
      <point x="165" y="425" type="line"/>
      <point x="275" y="425" type="line"/>
      <point x="220" y="82" type="line" smooth="yes"/>
      <point x="186" y="-127"/>
      <point x="153" y="-201"/>
    </contour>
  </outline>
</glyph>
<glyph name="Aringacute" format="1">
  <advance width="829"/>
  <unicode hex="01FA"/>
  <outline>
    <contour>
      <point x="523" y="173" type="line" smooth="yes"/>
      <point x="542" y="131"/>
      <point x="549" y="102"/>
      <point x="549" y="83" type="curve" smooth="yes"/>
      <point x="549" y="51"/>
      <point x="523" y="44"/>
      <point x="459" y="41" type="curve"/>
      <point x="459" y="0" type="line"/>
      <point x="857" y="0" type="line"/>
      <point x="857" y="41" type="line"/>
      <point x="767" y="50"/>
      <point x="762" y="65"/>
      <point x="697" y="196" type="curve" smooth="yes"/>
      <point x="438" y="720" type="line"/>
      <point x="364" y="720" type="line"/>
      <point x="101" y="121" type="line" smooth="yes"/>
      <point x="76" y="64"/>
      <point x="50" y="47"/>
      <point x="-14" y="40" type="curve"/>
      <point x="-14" y="0" type="line"/>
      <point x="260" y="0" type="line"/>
      <point x="260" y="40" type="line"/>
      <point x="200" y="40"/>
      <point x="170" y="46"/>
      <point x="170" y="86" type="curve" smooth="yes"/>
      <point x="170" y="104"/>
      <point x="176" y="123"/>
      <point x="222" y="233" type="curve"/>
      <point x="497" y="233" type="line"/>
    </contour>
    <contour>
      <point x="357" y="545" type="line"/>
      <point x="470" y="293" type="line"/>
      <point x="247" y="293" type="line"/>
    </contour>
    <contour>
      <point x="325" y="878" type="curve" smooth="yes"/>
      <point x="325" y="870"/>
      <point x="325" y="863"/>
      <point x="327" y="857" type="curve"/>
      <point x="265" y="801" type="line"/>
      <point x="321" y="801" type="line"/>
      <point x="355" y="816" type="line"/>
      <point x="369" y="805"/>
      <point x="388" y="799"/>
      <point x="408" y="799" type="curve" smooth="yes"/>
      <point x="457" y="799"/>
      <point x="492" y="834"/>
      <point x="492" y="878" type="curve" smooth="yes"/>
      <point x="492" y="883"/>
      <point x="491" y="889"/>
      <point x="490" y="894" type="curve"/>
      <point x="518" y="909"/>
      <point x="535" y="926"/>
      <point x="535" y="944" type="curve" smooth="yes"/>
      <point x="535" y="960"/>
      <point x="523" y="970"/>
      <point x="505" y="970" type="curve" smooth="yes"/>
      <point x="488" y="970"/>
      <point x="473" y="964"/>
      <point x="456" y="947" type="curve"/>
      <point x="442" y="955"/>
      <point x="426" y="960"/>
      <point x="408" y="960" type="curve" smooth="yes"/>
      <point x="361" y="960"/>
      <point x="325" y="926"/>
    </contour>
    <contour>
      <point x="364" y="878" type="curve" smooth="yes"/>
      <point x="364" y="903"/>
      <point x="382" y="920"/>
      <point x="408" y="920" type="curve" smooth="yes"/>
      <point x="435" y="920"/>
      <point x="453" y="903"/>
      <point x="453" y="878" type="curve" smooth="yes"/>
      <point x="453" y="854"/>
      <point x="435" y="837"/>
      <point x="408" y="837" type="curve" smooth="yes"/>
      <point x="382" y="837"/>
      <point x="364" y="854"/>
    </contour>
  </outline>
</glyph>
<glyph name="Oslashacute" format="1">
  <advance width="943"/>
  <unicode hex="01FE"/>
  <outline>
    <contour>
      <point x="472" y="780" type="curve" smooth="yes"/>
      <point x="232" y="780"/>
      <point x="45" y="605"/>
      <point x="45" y="379" type="curve" smooth="yes"/>
      <point x="45" y="162"/>
      <point x="234" y="-10"/>
      <point x="472" y="-10" type="curve" smooth="yes"/>
      <point x="710" y="-10"/>
      <point x="899" y="162"/>
      <point x="899" y="379" type="curve" smooth="yes"/>
      <point x="899" y="605"/>
      <point x="712" y="780"/>
    </contour>
    <contour>
      <point x="472" y="55" type="curve" smooth="yes"/>
      <point x="316" y="55"/>
      <point x="235" y="179"/>
      <point x="235" y="376" type="curve" smooth="yes"/>
      <point x="235" y="584"/>
      <point x="316" y="715"/>
      <point x="472" y="715" type="curve" smooth="yes"/>
      <point x="628" y="715"/>
      <point x="709" y="584"/>
      <point x="709" y="376" type="curve" smooth="yes"/>
      <point x="709" y="179"/>
      <point x="627" y="55"/>
    </contour>
    <contour>
      <point x="891" y="830" type="line"/>
      <point x="802" y="830" type="line"/>
      <point x="47" y="-81" type="line"/>
      <point x="135" y="-81" type="line"/>
    </contour>
    <component base="acute.cap" xOffset="363"/>
  </outline>
</glyph>
<glyph name="dotlessj" format="1">
  <advance width="357"/>
  <unicode hex="0237"/>
  <outline>
    <contour>
      <point x="272" y="540" type="line"/>
      <point x="14" y="502" type="line"/>
      <point x="14" y="468" type="line"/>
      <point x="76" y="468"/>
      <point x="92" y="459"/>
      <point x="99" y="428" type="curve" smooth="yes"/>
      <point x="103" y="411"/>
      <point x="107" y="363"/>
      <point x="107" y="290" type="curve" smooth="yes"/>
      <point x="107" y="-78" type="line" smooth="yes"/>
      <point x="107" y="-172"/>
      <point x="82" y="-207"/>
      <point x="33" y="-207" type="curve" smooth="yes"/>
      <point x="1" y="-207"/>
      <point x="-9" y="-185"/>
      <point x="-18" y="-161" type="curve" smooth="yes"/>
      <point x="-28" y="-132"/>
      <point x="-37" y="-99"/>
      <point x="-83" y="-99" type="curve" smooth="yes"/>
      <point x="-124" y="-99"/>
      <point x="-153" y="-128"/>
      <point x="-153" y="-161" type="curve"/>
      <point x="-153" y="-227"/>
      <point x="-91" y="-260"/>
      <point x="21" y="-260" type="curve"/>
      <point x="188" y="-260"/>
      <point x="272" y="-176"/>
      <point x="272" y="8" type="curve" smooth="yes"/>
    </contour>
    <contour>
      <point x="172" y="651" type="move" name="top"/>
    </contour>
  </outline>
</glyph>
<glyph name="schwa" format="1">
  <advance width="585"/>
  <unicode hex="0259"/>
  <outline>
    <contour>
      <point x="422" y="179" type="line"/>
      <point x="422" y="235" type="line"/>
      <point x="70" y="235" type="line" smooth="yes"/>
      <point x="39" y="235"/>
      <point x="37" y="233"/>
      <point x="37" y="212" type="curve" smooth="yes"/>
      <point x="37" y="76"/>
      <point x="115" y="-5"/>
      <point x="261" y="-5" type="curve"/>
      <point x="440" y="-5"/>
      <point x="547" y="107"/>
      <point x="547" y="272" type="curve" smooth="yes"/>
      <point x="547" y="442"/>
      <point x="440" y="540"/>
      <point x="270" y="540" type="curve" smooth="yes"/>
      <point x="183" y="540"/>
      <point x="98" y="508"/>
      <point x="43" y="452" type="curve"/>
      <point x="69" y="414" type="line"/>
      <point x="118" y="452"/>
      <point x="166" y="474"/>
      <point x="229" y="474" type="curve"/>
      <point x="335" y="474"/>
      <point x="372" y="396"/>
      <point x="372" y="258" type="curve" smooth="yes"/>
      <point x="372" y="129"/>
      <point x="347" y="53"/>
      <point x="270" y="53" type="curve"/>
      <point x="219" y="53"/>
      <point x="194" y="95"/>
      <point x="194" y="153" type="curve" smooth="yes"/>
      <point x="194" y="176"/>
      <point x="203" y="179"/>
      <point x="257" y="179" type="curve" smooth="yes"/>
    </contour>
  </outline>
</glyph>
<glyph name="tilde" format="1">
  <advance width="401"/>
  <unicode hex="02DC"/>
  <outline>
    <contour>
      <point x="57" y="660" type="line"/>
      <point x="67" y="690"/>
      <point x="78" y="700"/>
      <point x="101" y="700" type="curve" smooth="yes"/>
      <point x="151" y="700"/>
      <point x="210" y="652"/>
      <point x="273" y="652" type="curve" smooth="yes"/>
      <point x="346" y="652"/>
      <point x="380" y="721"/>
      <point x="390" y="790" type="curve"/>
      <point x="345" y="790" type="line"/>
      <point x="335" y="759"/>
      <point x="321" y="748"/>
      <point x="296" y="748" type="curve" smooth="yes"/>
      <point x="256" y="748"/>
      <point x="185" y="794"/>
      <point x="130" y="794" type="curve" smooth="yes"/>
      <point x="63" y="794"/>
      <point x="24" y="738"/>
      <point x="11" y="660" type="curve"/>
    </contour>
    <contour>
      <point x="202" y="651" type="move" name="_top"/>
    </contour>
  </outline>
</glyph>
<glyph name="uni03BC" format="1">
  <advance width="757"/>
  <unicode hex="03BC"/>
  <outline>
    <contour>
      <point x="105" y="-178" type="line" smooth="yes"/>
      <point x="105" y="-229"/>
      <point x="136" y="-260"/>
      <point x="185" y="-260" type="curve" smooth="yes"/>
      <point x="232" y="-260"/>
      <point x="261" y="-230"/>
      <point x="261" y="-186" type="curve" smooth="yes"/>
      <point x="261" y="-139"/>
      <point x="223" y="10"/>
      <point x="198" y="91" type="curve"/>
      <point x="202" y="92" type="line"/>
      <point x="233" y="30"/>
      <point x="280" y="-10"/>
      <point x="359" y="-10" type="curve"/>
      <point x="440" y="-10"/>
      <point x="481" y="23"/>
      <point x="515" y="78" type="curve"/>
      <point x="519" y="78" type="line"/>
      <point x="530" y="-11" type="line"/>
      <point x="740" y="1" type="line"/>
      <point x="740" y="40" type="line"/>
      <point x="674" y="40"/>
      <point x="662" y="46"/>
      <point x="655" y="80" type="curve" smooth="yes"/>
      <point x="650" y="102"/>
      <point x="648" y="146"/>
      <point x="648" y="227" type="curve" smooth="yes"/>
      <point x="648" y="530" type="line"/>
      <point x="396" y="530" type="line"/>
      <point x="396" y="490" type="line"/>
      <point x="477" y="482"/>
      <point x="483" y="474"/>
      <point x="483" y="366" type="curve" smooth="yes"/>
      <point x="483" y="232" type="line"/>
      <point x="483" y="115"/>
      <point x="455" y="55"/>
      <point x="375" y="55" type="curve" smooth="yes"/>
      <point x="302" y="55"/>
      <point x="270" y="103"/>
      <point x="270" y="227" type="curve"/>
      <point x="270" y="530" type="line"/>
      <point x="20" y="530" type="line"/>
      <point x="20" y="490" type="line"/>
      <point x="100" y="481"/>
      <point x="105" y="476"/>
      <point x="105" y="366" type="curve"/>
    </contour>
    <contour>
      <point x="363" y="651" type="move" name="top"/>
    </contour>
    <contour>
      <point x="340" y="0" type="move" name="bottom"/>
    </contour>
  </outline>
</glyph>
<glyph name="quoteleft" format="1">
  <advance width="286"/>
  <unicode hex="2018"/>
  <outline>
    <contour>
      <point x="206" y="830" type="line"/>
      <point x="114" y="801"/>
      <point x="44" y="721"/>
      <point x="44" y="645" type="curve" smooth="yes"/>
      <point x="44" y="588"/>
      <point x="74" y="538"/>
      <point x="136" y="538" type="curve"/>
      <point x="196" y="538"/>
      <point x="230" y="577"/>
      <point x="230" y="624" type="curve" smooth="yes"/>
      <point x="230" y="672"/>
      <point x="200" y="700"/>
      <point x="162" y="700" type="curve"/>
      <point x="144" y="700"/>
      <point x="133" y="696"/>
      <point x="126" y="692" type="curve"/>
      <point x="126" y="720"/>
      <point x="160" y="758"/>
      <point x="235" y="788" type="curve"/>
    </contour>
  </outline>
</glyph>
<glyph name="apostrophe" format="1">
  <advance width="204"/>
  <unicode hex="2019"/>
  <outline>
    <contour>
      <point x="123" y="596" type="line"/>
      <point x="132" y="654"/>
      <point x="158" y="736"/>
      <point x="158" y="770" type="curve" smooth="yes"/>
      <point x="158" y="805"/>
      <point x="134" y="830"/>
      <point x="102" y="830" type="curve" smooth="yes"/>
      <point x="70" y="830"/>
      <point x="46" y="805"/>
      <point x="46" y="771" type="curve" smooth="yes"/>
      <point x="46" y="736"/>
      <point x="73" y="653"/>
      <point x="82" y="596" type="curve"/>
    </contour>
  </outline>
</glyph>
<glyph name="quoteright" format="1">
  <advance width="281"/>
  <unicode hex="2019"/>
  <outline>
    <contour>
      <point x="83" y="538" type="line"/>
      <point x="175" y="567"/>
      <point x="245" y="647"/>
      <point x="245" y="723" type="curve" smooth="yes"/>
      <point x="245" y="780"/>
      <point x="215" y="830"/>
      <point x="153" y="830" type="curve"/>
      <point x="93" y="830"/>
      <point x="59" y="791"/>
      <point x="59" y="744" type="curve" smooth="yes"/>
      <point x="59" y="696"/>
      <point x="89" y="668"/>
      <point x="127" y="668" type="curve"/>
      <point x="145" y="668"/>
      <point x="156" y="672"/>
      <point x="163" y="676" type="curve"/>
      <point x="163" y="648"/>
      <point x="129" y="610"/>
      <point x="54" y="580" type="curve"/>
    </contour>
  </outline>
</glyph>
<glyph name="quotesinglbase" format="1">
  <advance width="300"/>
  <unicode hex="201A"/>
  <outline>
    <contour>
      <point x="84" y="-155" type="line"/>
      <point x="195" y="-104"/>
      <point x="246" y="-26"/>
      <point x="246" y="50" type="curve" smooth="yes"/>
      <point x="246" y="107"/>
      <point x="216" y="157"/>
      <point x="154" y="157" type="curve"/>
      <point x="94" y="157"/>
      <point x="60" y="118"/>
      <point x="60" y="71" type="curve" smooth="yes"/>
      <point x="60" y="23"/>
      <point x="90" y="-5"/>
      <point x="128" y="-5" type="curve"/>
      <point x="146" y="-5"/>
      <point x="157" y="-1"/>
      <point x="164" y="3" type="curve"/>
      <point x="164" y="-25"/>
      <point x="149" y="-61"/>
      <point x="55" y="-113" type="curve"/>
    </contour>
  </outline>
</glyph>
<glyph name="quotedblleft" format="1">
  <advance width="510"/>
  <unicode hex="201C"/>
  <outline>
    <contour>
      <point x="430" y="830" type="line"/>
      <point x="338" y="801"/>
      <point x="268" y="721"/>
      <point x="268" y="645" type="curve" smooth="yes"/>
      <point x="268" y="588"/>
      <point x="298" y="538"/>
      <point x="360" y="538" type="curve"/>
      <point x="420" y="538"/>
      <point x="454" y="577"/>
      <point x="454" y="624" type="curve" smooth="yes"/>
      <point x="454" y="672"/>
      <point x="424" y="700"/>
      <point x="386" y="700" type="curve"/>
      <point x="368" y="700"/>
      <point x="357" y="696"/>
      <point x="350" y="692" type="curve"/>
      <point x="350" y="720"/>
      <point x="384" y="758"/>
      <point x="459" y="788" type="curve"/>
    </contour>
    <contour>
      <point x="206" y="830" type="line"/>
      <point x="114" y="801"/>
      <point x="44" y="721"/>
      <point x="44" y="645" type="curve" smooth="yes"/>
      <point x="44" y="588"/>
      <point x="74" y="538"/>
      <point x="136" y="538" type="curve"/>
      <point x="196" y="538"/>
      <point x="230" y="577"/>
      <point x="230" y="624" type="curve" smooth="yes"/>
      <point x="230" y="672"/>
      <point x="200" y="700"/>
      <point x="162" y="700" type="curve"/>
      <point x="144" y="700"/>
      <point x="133" y="696"/>
      <point x="126" y="692" type="curve"/>
      <point x="126" y="720"/>
      <point x="160" y="758"/>
      <point x="235" y="788" type="curve"/>
    </contour>
  </outline>
</glyph>
<glyph name="quotedblright" format="1">
  <advance width="505"/>
  <unicode hex="201D"/>
  <outline>
    <contour>
      <point x="83" y="538" type="line"/>
      <point x="175" y="567"/>
      <point x="245" y="647"/>
      <point x="245" y="723" type="curve" smooth="yes"/>
      <point x="245" y="780"/>
      <point x="215" y="830"/>
      <point x="153" y="830" type="curve"/>
      <point x="93" y="830"/>
      <point x="59" y="791"/>
      <point x="59" y="744" type="curve" smooth="yes"/>
      <point x="59" y="696"/>
      <point x="89" y="668"/>
      <point x="127" y="668" type="curve"/>
      <point x="145" y="668"/>
      <point x="156" y="672"/>
      <point x="163" y="676" type="curve"/>
      <point x="163" y="648"/>
      <point x="129" y="610"/>
      <point x="54" y="580" type="curve"/>
    </contour>
    <contour>
      <point x="307" y="538" type="line"/>
      <point x="399" y="567"/>
      <point x="469" y="647"/>
      <point x="469" y="723" type="curve" smooth="yes"/>
      <point x="469" y="780"/>
      <point x="439" y="830"/>
      <point x="377" y="830" type="curve"/>
      <point x="317" y="830"/>
      <point x="283" y="791"/>
      <point x="283" y="744" type="curve" smooth="yes"/>
      <point x="283" y="696"/>
      <point x="313" y="668"/>
      <point x="351" y="668" type="curve"/>
      <point x="369" y="668"/>
      <point x="380" y="672"/>
      <point x="387" y="676" type="curve"/>
      <point x="387" y="648"/>
      <point x="353" y="610"/>
      <point x="278" y="580" type="curve"/>
    </contour>
  </outline>
</glyph>
<glyph name="quotedblbase" format="1">
  <advance width="515"/>
  <unicode hex="201E"/>
  <outline>
    <contour>
      <point x="84" y="-155" type="line"/>
      <point x="195" y="-104"/>
      <point x="246" y="-26"/>
      <point x="246" y="50" type="curve" smooth="yes"/>
      <point x="246" y="107"/>
      <point x="216" y="157"/>
      <point x="154" y="157" type="curve"/>
      <point x="94" y="157"/>
      <point x="60" y="118"/>
      <point x="60" y="71" type="curve" smooth="yes"/>
      <point x="60" y="23"/>
      <point x="90" y="-5"/>
      <point x="128" y="-5" type="curve"/>
      <point x="146" y="-5"/>
      <point x="157" y="-1"/>
      <point x="164" y="3" type="curve"/>
      <point x="164" y="-25"/>
      <point x="149" y="-61"/>
      <point x="55" y="-113" type="curve"/>
    </contour>
    <contour>
      <point x="299" y="-155" type="line"/>
      <point x="410" y="-104"/>
      <point x="461" y="-26"/>
      <point x="461" y="50" type="curve" smooth="yes"/>
      <point x="461" y="107"/>
      <point x="431" y="157"/>
      <point x="369" y="157" type="curve"/>
      <point x="309" y="157"/>
      <point x="275" y="118"/>
      <point x="275" y="71" type="curve" smooth="yes"/>
      <point x="275" y="23"/>
      <point x="305" y="-5"/>
      <point x="343" y="-5" type="curve"/>
      <point x="361" y="-5"/>
      <point x="372" y="-1"/>
      <point x="379" y="3" type="curve"/>
      <point x="379" y="-25"/>
      <point x="364" y="-61"/>
      <point x="270" y="-113" type="curve"/>
    </contour>
  </outline>
</glyph>
<glyph name="dagger" format="1">
  <advance width="570"/>
  <unicode hex="2020"/>
  <outline>
    <contour>
      <point x="102" y="421" type="curve" smooth="yes"/>
      <point x="150" y="421"/>
      <point x="178" y="457"/>
      <point x="258" y="466" type="curve"/>
      <point x="257" y="368"/>
      <point x="236" y="317"/>
      <point x="190" y="261" type="curve"/>
      <point x="226" y="153"/>
      <point x="258" y="-93"/>
      <point x="258" y="-260" type="curve"/>
      <point x="310" y="-260" type="line"/>
      <point x="310" y="-93"/>
      <point x="342" y="153"/>
      <point x="378" y="261" type="curve"/>
      <point x="332" y="317"/>
      <point x="310" y="368"/>
      <point x="310" y="466" type="curve"/>
      <point x="400" y="457"/>
      <point x="428" y="421"/>
      <point x="468" y="421" type="curve" smooth="yes"/>
      <point x="515" y="421"/>
      <point x="547" y="452"/>
      <point x="543" y="493" type="curve" smooth="yes"/>
      <point x="547" y="534"/>
      <point x="515" y="565"/>
      <point x="468" y="565" type="curve" smooth="yes"/>
      <point x="428" y="565"/>
      <point x="401" y="529"/>
      <point x="310" y="519" type="curve"/>
      <point x="320" y="631"/>
      <point x="365" y="659"/>
      <point x="361" y="710" type="curve" smooth="yes"/>
      <point x="365" y="751"/>
      <point x="333" y="782"/>
      <point x="286" y="782" type="curve" smooth="yes"/>
      <point x="247" y="782"/>
      <point x="215" y="751"/>
      <point x="211" y="710" type="curve" smooth="yes"/>
      <point x="215" y="658"/>
      <point x="261" y="630"/>
      <point x="261" y="519" type="curve"/>
      <point x="177" y="528"/>
      <point x="149" y="565"/>
      <point x="102" y="565" type="curve" smooth="yes"/>
      <point x="63" y="565"/>
      <point x="31" y="534"/>
      <point x="27" y="493" type="curve" smooth="yes"/>
      <point x="31" y="452"/>
      <point x="63" y="421"/>
    </contour>
  </outline>
</glyph>
<glyph name="ellipsis" format="1">
  <advance width="823"/>
  <unicode hex="2026"/>
  <outline>
    <contour>
      <point x="54" y="75" type="curve" smooth="yes"/>
      <point x="54" y="28"/>
      <point x="92" y="-10"/>
      <point x="140" y="-10" type="curve" smooth="yes"/>
      <point x="191" y="-10"/>
      <point x="229" y="28"/>
      <point x="229" y="75" type="curve" smooth="yes"/>
      <point x="229" y="125"/>
      <point x="191" y="164"/>
      <point x="140" y="164" type="curve" smooth="yes"/>
      <point x="92" y="164"/>
      <point x="54" y="125"/>
    </contour>
    <contour>
      <point x="324" y="75" type="curve" smooth="yes"/>
      <point x="324" y="28"/>
      <point x="362" y="-10"/>
      <point x="410" y="-10" type="curve" smooth="yes"/>
      <point x="461" y="-10"/>
      <point x="499" y="28"/>
      <point x="499" y="75" type="curve" smooth="yes"/>
      <point x="499" y="125"/>
      <point x="461" y="164"/>
      <point x="410" y="164" type="curve" smooth="yes"/>
      <point x="362" y="164"/>
      <point x="324" y="125"/>
    </contour>
    <contour>
      <point x="594" y="75" type="curve" smooth="yes"/>
      <point x="594" y="28"/>
      <point x="632" y="-10"/>
      <point x="680" y="-10" type="curve" smooth="yes"/>
      <point x="731" y="-10"/>
      <point x="769" y="28"/>
      <point x="769" y="75" type="curve" smooth="yes"/>
      <point x="769" y="125"/>
      <point x="731" y="164"/>
      <point x="680" y="164" type="curve" smooth="yes"/>
      <point x="632" y="164"/>
      <point x="594" y="125"/>
    </contour>
  </outline>
</glyph>
